STARTFONT 2.1
FONT -arc-grapefruit-medium-r-normal--10-110-75-75-m-4-ISO8859-1
SIZE 10 75 75
FONTBOUNDINGBOX 10 12 -2 -3
STARTPROPERTIES 26
FONTNAME_REGISTRY ""
FOUNDRY "artwiz"
FAMILY_NAME "grapefruit"
WEIGHT_NAME "medium"
SLANT "r"
SETWIDTH_NAME "normal"
ADD_STYLE_NAME ""
PIXEL_SIZE 10
POINT_SIZE 110
RESOLUTION_X 75
RESOLUTION_Y 75
SPACING "m"
AVERAGE_WIDTH 50
CHARSET_REGISTRY "ISO8859"
CHARSET_ENCODING "1"
OPYRIGHT "artwiz, fixed by aleczapka"
FACE_NAME "grapefruit"
WEIGHT 10
X_HEIGHT 6
QUAD_WIDTH 5
_ORIGINAL_FONT_NAME "lime"
_GBDFED_INFO "Edited with gbdfed 1.6."
CHARSET_COLLECTIONS "ISO8859-2 ISO8859-5 ISO8859-9 ISO8859-4 ISO10646-1"
DEFAULT_CHAR 52
FONT_DESCENT 2
FONT_ASCENT 8
ENDPROPERTIES
CHARS 1030
STARTCHAR 5240
ENCODING -1
SWIDTH 525 0
DWIDTH 7 0
BBX 10 12 -2 -3
BITMAP
0000
0000
0000
0400
1F00
0940
12C0
0200
3FC0
0200
0200
0000
ENDCHAR
STARTCHAR char32
ENCODING 32
SWIDTH 525 0
DWIDTH 7 0
BBX 10 12 -2 -3
BITMAP
0000
0000
0000
0000
0000
0000
0000
0000
0000
0000
0000
0000
ENDCHAR
STARTCHAR uni0021
ENCODING 33
SWIDTH 525 0
DWIDTH 7 0
BBX 10 12 -2 -3
BITMAP
0000
0000
0000
0800
0800
0800
0800
0000
0800
0000
0000
0000
ENDCHAR
STARTCHAR uni0022
ENCODING 34
SWIDTH 525 0
DWIDTH 7 0
BBX 10 12 -2 -3
BITMAP
0000
0000
1400
1400
1400
0000
0000
0000
0000
0000
0000
0000
ENDCHAR
STARTCHAR uni0023
ENCODING 35
SWIDTH 525 0
DWIDTH 7 0
BBX 10 12 -2 -3
BITMAP
0000
0000
0000
0000
1400
3600
1400
3600
1400
0000
0000
0000
ENDCHAR
STARTCHAR uni0024
ENCODING 36
SWIDTH 525 0
DWIDTH 7 0
BBX 10 12 -2 -3
BITMAP
0000
0000
0400
0E00
1400
0C00
0A00
0A00
1C00
0800
0000
0000
ENDCHAR
STARTCHAR uni0025
ENCODING 37
SWIDTH 525 0
DWIDTH 7 0
BBX 10 12 -2 -3
BITMAP
0000
0000
0000
1200
1200
0400
0800
1200
1200
0000
0000
0000
ENDCHAR
STARTCHAR uni0026
ENCODING 38
SWIDTH 525 0
DWIDTH 7 0
BBX 10 12 -2 -3
BITMAP
0000
0000
0000
1000
2800
1000
2A00
2400
1A00
0000
0000
0000
ENDCHAR
STARTCHAR uni0027
ENCODING 39
SWIDTH 525 0
DWIDTH 7 0
BBX 10 12 -2 -3
BITMAP
0000
0000
0800
0800
0800
0000
0000
0000
0000
0000
0000
0000
ENDCHAR
STARTCHAR uni0028
ENCODING 40
SWIDTH 525 0
DWIDTH 7 0
BBX 10 12 -2 -3
BITMAP
0000
0000
0200
0400
0800
0800
0800
0800
0400
0200
0000
0000
ENDCHAR
STARTCHAR uni0028
ENCODING 41
SWIDTH 525 0
DWIDTH 7 0
BBX 10 12 -2 -3
BITMAP
0000
0000
0800
0400
0200
0200
0200
0200
0400
0800
0000
0000
ENDCHAR
STARTCHAR uni002A
ENCODING 42
SWIDTH 525 0
DWIDTH 7 0
BBX 10 12 -2 -3
BITMAP
0000
0000
0000
0000
1200
0C00
1E00
0C00
1200
0000
0000
0000
ENDCHAR
STARTCHAR uni002B
ENCODING 43
SWIDTH 525 0
DWIDTH 7 0
BBX 10 12 -2 -3
BITMAP
0000
0000
0000
0800
0800
3E00
0800
0800
0000
0000
0000
0000
ENDCHAR
STARTCHAR uni002C
ENCODING 44
SWIDTH 525 0
DWIDTH 7 0
BBX 10 12 -2 -3
BITMAP
0000
0000
0000
0000
0000
0000
0000
0800
0800
1000
0000
0000
ENDCHAR
STARTCHAR uni002D
ENCODING 45
SWIDTH 525 0
DWIDTH 7 0
BBX 10 12 -2 -3
BITMAP
0000
0000
0000
0000
0000
1E00
0000
0000
0000
0000
0000
0000
ENDCHAR
STARTCHAR uni002E
ENCODING 46
SWIDTH 525 0
DWIDTH 7 0
BBX 10 12 -2 -3
BITMAP
0000
0000
0000
0000
0000
0000
0000
0800
0800
0000
0000
0000
ENDCHAR
STARTCHAR uni002F
ENCODING 47
SWIDTH 525 0
DWIDTH 7 0
BBX 10 12 -2 -3
BITMAP
0000
0000
0200
0200
0400
0400
0800
0800
1000
1000
0000
0000
ENDCHAR
STARTCHAR uni0030
ENCODING 48
SWIDTH 525 0
DWIDTH 7 0
BBX 10 12 -2 -3
BITMAP
0000
0000
0000
0C00
1200
1600
1A00
1200
0C00
0000
0000
0000
ENDCHAR
STARTCHAR uni0031
ENCODING 49
SWIDTH 525 0
DWIDTH 7 0
BBX 10 12 -2 -3
BITMAP
0000
0000
0000
0800
1800
0800
0800
0800
0800
0000
0000
0000
ENDCHAR
STARTCHAR uni0032
ENCODING 50
SWIDTH 525 0
DWIDTH 7 0
BBX 10 12 -2 -3
BITMAP
0000
0000
0000
1C00
0200
0200
0C00
1000
1E00
0000
0000
0000
ENDCHAR
STARTCHAR uni0033
ENCODING 51
SWIDTH 525 0
DWIDTH 7 0
BBX 10 12 -2 -3
BITMAP
0000
0000
0000
1C00
0200
0C00
0200
0200
1C00
0000
0000
0000
ENDCHAR
STARTCHAR uni0034
ENCODING 52
SWIDTH 525 0
DWIDTH 7 0
BBX 10 12 -2 -3
BITMAP
0000
0000
0000
1200
1200
1200
0E00
0200
0200
0000
0000
0000
ENDCHAR
STARTCHAR uni0035
ENCODING 53
SWIDTH 525 0
DWIDTH 7 0
BBX 10 12 -2 -3
BITMAP
0000
0000
0000
1E00
1000
1C00
0200
0200
1C00
0000
0000
0000
ENDCHAR
STARTCHAR uni0036
ENCODING 54
SWIDTH 525 0
DWIDTH 7 0
BBX 10 12 -2 -3
BITMAP
0000
0000
0000
0C00
1000
1C00
1200
1200
0C00
0000
0000
0000
ENDCHAR
STARTCHAR uni0037
ENCODING 55
SWIDTH 525 0
DWIDTH 7 0
BBX 10 12 -2 -3
BITMAP
0000
0000
0000
1E00
0200
0400
0400
0800
0800
0000
0000
0000
ENDCHAR
STARTCHAR uni0038
ENCODING 56
SWIDTH 525 0
DWIDTH 7 0
BBX 10 12 -2 -3
BITMAP
0000
0000
0000
0C00
1200
0C00
1200
1200
0C00
0000
0000
0000
ENDCHAR
STARTCHAR uni0039
ENCODING 57
SWIDTH 525 0
DWIDTH 7 0
BBX 10 12 -2 -3
BITMAP
0000
0000
0000
0C00
1200
1200
0E00
0200
0C00
0000
0000
0000
ENDCHAR
STARTCHAR uni003A
ENCODING 58
SWIDTH 525 0
DWIDTH 7 0
BBX 10 12 -2 -3
BITMAP
0000
0000
0000
0000
0800
0800
0000
0800
0800
0000
0000
0000
ENDCHAR
STARTCHAR uni003B
ENCODING 59
SWIDTH 525 0
DWIDTH 7 0
BBX 10 12 -2 -3
BITMAP
0000
0000
0000
0000
0800
0800
0000
0800
0800
1000
0000
0000
ENDCHAR
STARTCHAR uni003C
ENCODING 60
SWIDTH 525 0
DWIDTH 7 0
BBX 10 12 -2 -3
BITMAP
0000
0000
0000
0000
0400
0800
1000
0800
0400
0000
0000
0000
ENDCHAR
STARTCHAR uni003D
ENCODING 61
SWIDTH 525 0
DWIDTH 7 0
BBX 10 12 -2 -3
BITMAP
0000
0000
0000
0000
1C00
0000
1C00
0000
0000
0000
0000
0000
ENDCHAR
STARTCHAR uni003E
ENCODING 62
SWIDTH 525 0
DWIDTH 7 0
BBX 10 12 -2 -3
BITMAP
0000
0000
0000
0000
0800
0400
0200
0400
0800
0000
0000
0000
ENDCHAR
STARTCHAR uni003F
ENCODING 63
SWIDTH 525 0
DWIDTH 7 0
BBX 10 12 -2 -3
BITMAP
0000
0000
0000
1C00
1400
0400
0800
0000
0800
0000
0000
0000
ENDCHAR
STARTCHAR uni0040
ENCODING 64
SWIDTH 525 0
DWIDTH 7 0
BBX 10 12 -2 -3
BITMAP
0000
0000
0000
0C00
1200
1600
1600
1000
0E00
0000
0000
0000
ENDCHAR
STARTCHAR uni0041
ENCODING 65
SWIDTH 525 0
DWIDTH 7 0
BBX 10 12 -2 -3
BITMAP
0000
0000
0000
0C00
1200
1200
1E00
1200
1200
0000
0000
0000
ENDCHAR
STARTCHAR uni0042
ENCODING 66
SWIDTH 525 0
DWIDTH 7 0
BBX 10 12 -2 -3
BITMAP
0000
0000
0000
0C00
1200
1C00
1200
1200
1C00
0000
0000
0000
ENDCHAR
STARTCHAR uni0043
ENCODING 67
SWIDTH 525 0
DWIDTH 7 0
BBX 10 12 -2 -3
BITMAP
0000
0000
0000
0E00
1000
1000
1000
1000
0E00
0000
0000
0000
ENDCHAR
STARTCHAR uni0044
ENCODING 68
SWIDTH 525 0
DWIDTH 7 0
BBX 10 12 -2 -3
BITMAP
0000
0000
0000
0C00
1200
1200
1200
1200
1C00
0000
0000
0000
ENDCHAR
STARTCHAR uni0045
ENCODING 69
SWIDTH 525 0
DWIDTH 7 0
BBX 10 12 -2 -3
BITMAP
0000
0000
0000
0E00
1000
1C00
1000
1000
0E00
0000
0000
0000
ENDCHAR
STARTCHAR uni0046
ENCODING 70
SWIDTH 525 0
DWIDTH 7 0
BBX 10 12 -2 -3
BITMAP
0000
0000
0000
0E00
1000
1C00
1000
1000
1000
0000
0000
0000
ENDCHAR
STARTCHAR uni0047
ENCODING 71
SWIDTH 525 0
DWIDTH 7 0
BBX 10 12 -2 -3
BITMAP
0000
0000
0000
0E00
1000
1000
1600
1200
0C00
0000
0000
0000
ENDCHAR
STARTCHAR uni0048
ENCODING 72
SWIDTH 525 0
DWIDTH 7 0
BBX 10 12 -2 -3
BITMAP
0000
0000
0000
1200
1200
1E00
1200
1200
1200
0000
0000
0000
ENDCHAR
STARTCHAR uni0049
ENCODING 73
SWIDTH 525 0
DWIDTH 7 0
BBX 10 12 -2 -3
BITMAP
0000
0000
0000
1C00
0800
0800
0800
0800
1C00
0000
0000
0000
ENDCHAR
STARTCHAR uni004A
ENCODING 74
SWIDTH 525 0
DWIDTH 7 0
BBX 10 12 -2 -3
BITMAP
0000
0000
0000
0E00
0200
0200
0200
1200
0C00
0000
0000
0000
ENDCHAR
STARTCHAR uni004B
ENCODING 75
SWIDTH 525 0
DWIDTH 7 0
BBX 10 12 -2 -3
BITMAP
0000
0000
0000
1200
1400
1800
1400
1200
1200
0000
0000
0000
ENDCHAR
STARTCHAR uni004C
ENCODING 76
SWIDTH 525 0
DWIDTH 7 0
BBX 10 12 -2 -3
BITMAP
0000
0000
0000
1000
1000
1000
1000
1000
0E00
0000
0000
0000
ENDCHAR
STARTCHAR uni004D
ENCODING 77
SWIDTH 525 0
DWIDTH 7 0
BBX 10 12 -2 -3
BITMAP
0000
0000
0000
1200
1E00
1600
1200
1200
1200
0000
0000
0000
ENDCHAR
STARTCHAR uni004E
ENCODING 78
SWIDTH 525 0
DWIDTH 7 0
BBX 10 12 -2 -3
BITMAP
0000
0000
0000
1200
1A00
1A00
1600
1600
1200
0000
0000
0000
ENDCHAR
STARTCHAR uni004F
ENCODING 79
SWIDTH 525 0
DWIDTH 7 0
BBX 10 12 -2 -3
BITMAP
0000
0000
0000
0C00
1200
1200
1200
1200
0C00
0000
0000
0000
ENDCHAR
STARTCHAR uni0050
ENCODING 80
SWIDTH 525 0
DWIDTH 7 0
BBX 10 12 -2 -3
BITMAP
0000
0000
0000
0C00
1200
1200
1C00
1000
1000
0000
0000
0000
ENDCHAR
STARTCHAR uni0051
ENCODING 81
SWIDTH 525 0
DWIDTH 7 0
BBX 10 12 -2 -3
BITMAP
0000
0000
0000
0C00
1200
1200
1200
1200
0C00
0600
0000
0000
ENDCHAR
STARTCHAR uni0052
ENCODING 82
SWIDTH 525 0
DWIDTH 7 0
BBX 10 12 -2 -3
BITMAP
0000
0000
0000
0C00
1200
1200
1C00
1200
1200
0000
0000
0000
ENDCHAR
STARTCHAR uni0053
ENCODING 83
SWIDTH 525 0
DWIDTH 7 0
BBX 10 12 -2 -3
BITMAP
0000
0000
0000
0E00
1000
0C00
0200
0200
1C00
0000
0000
0000
ENDCHAR
STARTCHAR uni0054
ENCODING 84
SWIDTH 525 0
DWIDTH 7 0
BBX 10 12 -2 -3
BITMAP
0000
0000
0000
3E00
0800
0800
0800
0800
0800
0000
0000
0000
ENDCHAR
STARTCHAR uni0055
ENCODING 85
SWIDTH 525 0
DWIDTH 7 0
BBX 10 12 -2 -3
BITMAP
0000
0000
0000
1200
1200
1200
1200
1200
0C00
0000
0000
0000
ENDCHAR
STARTCHAR uni0056
ENCODING 86
SWIDTH 525 0
DWIDTH 7 0
BBX 10 12 -2 -3
BITMAP
0000
0000
0000
1200
1200
1200
0C00
0C00
0C00
0000
0000
0000
ENDCHAR
STARTCHAR uni0057
ENCODING 87
SWIDTH 525 0
DWIDTH 7 0
BBX 10 12 -2 -3
BITMAP
0000
0000
0000
1200
1200
1200
1600
1E00
1200
0000
0000
0000
ENDCHAR
STARTCHAR uni0058
ENCODING 88
SWIDTH 525 0
DWIDTH 7 0
BBX 10 12 -2 -3
BITMAP
0000
0000
0000
1200
1200
0C00
1200
1200
1200
0000
0000
0000
ENDCHAR
STARTCHAR uni0059
ENCODING 89
SWIDTH 525 0
DWIDTH 7 0
BBX 10 12 -2 -3
BITMAP
0000
0000
0000
2200
1400
0800
0800
0800
0800
0000
0000
0000
ENDCHAR
STARTCHAR uni005A
ENCODING 90
SWIDTH 525 0
DWIDTH 7 0
BBX 10 12 -2 -3
BITMAP
0000
0000
0000
1E00
0200
0400
0800
1000
1E00
0000
0000
0000
ENDCHAR
STARTCHAR uni005B
ENCODING 91
SWIDTH 525 0
DWIDTH 7 0
BBX 10 12 -2 -3
BITMAP
0000
0000
1C00
1000
1000
1000
1000
1000
1000
1C00
0000
0000
ENDCHAR
STARTCHAR uni005C
ENCODING 92
SWIDTH 525 0
DWIDTH 7 0
BBX 10 12 -2 -3
BITMAP
0000
0000
1000
1000
0800
0800
0400
0400
0200
0200
0000
0000
ENDCHAR
STARTCHAR uni005D
ENCODING 93
SWIDTH 525 0
DWIDTH 7 0
BBX 10 12 -2 -3
BITMAP
0000
0000
1C00
0400
0400
0400
0400
0400
0400
1C00
0000
0000
ENDCHAR
STARTCHAR uni005E
ENCODING 94
SWIDTH 525 0
DWIDTH 7 0
BBX 10 12 -2 -3
BITMAP
0000
0000
0800
1400
2200
0000
0000
0000
0000
0000
0000
0000
ENDCHAR
STARTCHAR uni005F
ENCODING 95
SWIDTH 525 0
DWIDTH 7 0
BBX 10 12 -2 -3
BITMAP
0000
0000
0000
0000
0000
0000
0000
0000
0000
1E00
0000
0000
ENDCHAR
STARTCHAR uni0060
ENCODING 96
SWIDTH 525 0
DWIDTH 7 0
BBX 10 12 -2 -3
BITMAP
0000
0000
0800
0800
0400
0000
0000
0000
0000
0000
0000
0000
ENDCHAR
STARTCHAR uni0061
ENCODING 97
SWIDTH 525 0
DWIDTH 7 0
BBX 10 12 -2 -3
BITMAP
0000
0000
0000
0000
0C00
1200
1200
1600
0A00
0000
0000
0000
ENDCHAR
STARTCHAR uni0062
ENCODING 98
SWIDTH 525 0
DWIDTH 7 0
BBX 10 12 -2 -3
BITMAP
0000
0000
1000
1000
1C00
1200
1200
1200
0C00
0000
0000
0000
ENDCHAR
STARTCHAR uni0063
ENCODING 99
SWIDTH 525 0
DWIDTH 7 0
BBX 10 12 -2 -3
BITMAP
0000
0000
0000
0000
0E00
1000
1000
1000
0E00
0000
0000
0000
ENDCHAR
STARTCHAR uni0064
ENCODING 100
SWIDTH 525 0
DWIDTH 7 0
BBX 10 12 -2 -3
BITMAP
0000
0000
0200
0200
0E00
1200
1200
1600
0A00
0000
0000
0000
ENDCHAR
STARTCHAR uni0065
ENCODING 101
SWIDTH 525 0
DWIDTH 7 0
BBX 10 12 -2 -3
BITMAP
0000
0000
0000
0000
0C00
1200
1E00
1000
0E00
0000
0000
0000
ENDCHAR
STARTCHAR uni0066
ENCODING 102
SWIDTH 525 0
DWIDTH 7 0
BBX 10 12 -2 -3
BITMAP
0000
0000
0600
0800
0E00
0800
0800
0800
0800
0000
0000
0000
ENDCHAR
STARTCHAR uni0067
ENCODING 103
SWIDTH 525 0
DWIDTH 7 0
BBX 10 12 -2 -3
BITMAP
0000
0000
0000
0000
0C00
1200
1200
1600
0A00
0200
0C00
0000
ENDCHAR
STARTCHAR uni0068
ENCODING 104
SWIDTH 525 0
DWIDTH 7 0
BBX 10 12 -2 -3
BITMAP
0000
0000
1000
1000
1C00
1200
1200
1200
1200
0000
0000
0000
ENDCHAR
STARTCHAR uni0069
ENCODING 105
SWIDTH 525 0
DWIDTH 7 0
BBX 10 12 -2 -3
BITMAP
0000
0000
0400
0000
0C00
0400
0400
0400
0400
0000
0000
0000
ENDCHAR
STARTCHAR uni006A
ENCODING 106
SWIDTH 525 0
DWIDTH 7 0
BBX 10 12 -2 -3
BITMAP
0000
0000
0400
0000
0C00
0400
0400
0400
0400
0400
1800
0000
ENDCHAR
STARTCHAR uni006B
ENCODING 107
SWIDTH 525 0
DWIDTH 7 0
BBX 10 12 -2 -3
BITMAP
0000
0000
1000
1000
1200
1400
1C00
1200
1200
0000
0000
0000
ENDCHAR
STARTCHAR uni006C
ENCODING 108
SWIDTH 525 0
DWIDTH 7 0
BBX 10 12 -2 -3
BITMAP
0000
0000
0C00
0400
0400
0400
0400
0400
0400
0000
0000
0000
ENDCHAR
STARTCHAR uni006D
ENCODING 109
SWIDTH 525 0
DWIDTH 7 0
BBX 10 12 -2 -3
BITMAP
0000
0000
0000
0000
1200
1E00
1600
1200
1200
0000
0000
0000
ENDCHAR
STARTCHAR uni006E
ENCODING 110
SWIDTH 525 0
DWIDTH 7 0
BBX 10 12 -2 -3
BITMAP
0000
0000
0000
0000
0C00
1200
1200
1200
1200
0000
0000
0000
ENDCHAR
STARTCHAR uni006F
ENCODING 111
SWIDTH 525 0
DWIDTH 7 0
BBX 10 12 -2 -3
BITMAP
0000
0000
0000
0000
0C00
1200
1200
1200
0C00
0000
0000
0000
ENDCHAR
STARTCHAR uni0070
ENCODING 112
SWIDTH 525 0
DWIDTH 7 0
BBX 10 12 -2 -3
BITMAP
0000
0000
0000
0000
0C00
1200
1200
1200
1C00
1000
1000
0000
ENDCHAR
STARTCHAR uni0071
ENCODING 113
SWIDTH 525 0
DWIDTH 7 0
BBX 10 12 -2 -3
BITMAP
0000
0000
0000
0000
0C00
1200
1200
1200
0E00
0200
0200
0000
ENDCHAR
STARTCHAR uni0072
ENCODING 114
SWIDTH 525 0
DWIDTH 7 0
BBX 10 12 -2 -3
BITMAP
0000
0000
0000
0000
1600
1800
1000
1000
1000
0000
0000
0000
ENDCHAR
STARTCHAR uni0073
ENCODING 115
SWIDTH 525 0
DWIDTH 7 0
BBX 10 12 -2 -3
BITMAP
0000
0000
0000
0000
0E00
1000
0C00
0200
1C00
0000
0000
0000
ENDCHAR
STARTCHAR uni0074
ENCODING 116
SWIDTH 525 0
DWIDTH 7 0
BBX 10 12 -2 -3
BITMAP
0000
0000
0000
0800
1C00
0800
0800
0800
0400
0000
0000
0000
ENDCHAR
STARTCHAR uni0075
ENCODING 117
SWIDTH 525 0
DWIDTH 7 0
BBX 10 12 -2 -3
BITMAP
0000
0000
0000
0000
1200
1200
1200
1200
0E00
0000
0000
0000
ENDCHAR
STARTCHAR uni0076
ENCODING 118
SWIDTH 525 0
DWIDTH 7 0
BBX 10 12 -2 -3
BITMAP
0000
0000
0000
0000
1200
1200
1200
0C00
0C00
0000
0000
0000
ENDCHAR
STARTCHAR uni0077
ENCODING 119
SWIDTH 525 0
DWIDTH 7 0
BBX 10 12 -2 -3
BITMAP
0000
0000
0000
0000
1200
1200
1600
1E00
1200
0000
0000
0000
ENDCHAR
STARTCHAR uni0078
ENCODING 120
SWIDTH 525 0
DWIDTH 7 0
BBX 10 12 -2 -3
BITMAP
0000
0000
0000
0000
1200
1200
0C00
1200
1200
0000
0000
0000
ENDCHAR
STARTCHAR uni0079
ENCODING 121
SWIDTH 525 0
DWIDTH 7 0
BBX 10 12 -2 -3
BITMAP
0000
0000
0000
0000
1200
1200
1200
1200
0E00
0200
0C00
0000
ENDCHAR
STARTCHAR uni007A
ENCODING 122
SWIDTH 525 0
DWIDTH 7 0
BBX 10 12 -2 -3
BITMAP
0000
0000
0000
0000
1E00
0400
0800
1000
1E00
0000
0000
0000
ENDCHAR
STARTCHAR uni007B
ENCODING 123
SWIDTH 525 0
DWIDTH 7 0
BBX 10 12 -2 -3
BITMAP
0000
0000
0400
0800
0800
1800
1800
0800
0800
0400
0000
0000
ENDCHAR
STARTCHAR uni007C
ENCODING 124
SWIDTH 525 0
DWIDTH 7 0
BBX 10 12 -2 -3
BITMAP
0000
0800
0800
0800
0800
0800
0800
0800
0800
0800
0800
0000
ENDCHAR
STARTCHAR uni007D
ENCODING 125
SWIDTH 525 0
DWIDTH 7 0
BBX 10 12 -2 -3
BITMAP
0000
0000
0800
0400
0400
0600
0600
0400
0400
0800
0000
0000
ENDCHAR
STARTCHAR uni007E
ENCODING 126
SWIDTH 525 0
DWIDTH 7 0
BBX 10 12 -2 -3
BITMAP
0000
0000
0000
0000
1000
2A00
2A00
0400
0000
0000
0000
0000
ENDCHAR
STARTCHAR char149
ENCODING 149
SWIDTH 525 0
DWIDTH 7 0
BBX 10 12 -2 -3
BITMAP
0000
0000
0000
0000
0000
0C00
1E00
1E00
0C00
0000
0000
0000
ENDCHAR
STARTCHAR char161
ENCODING 161
SWIDTH 525 0
DWIDTH 7 0
BBX 10 12 -2 -3
BITMAP
0000
0000
0000
0800
0000
1800
0800
0800
0C00
0000
0000
0000
ENDCHAR
STARTCHAR char162
ENCODING 162
SWIDTH 525 0
DWIDTH 7 0
BBX 10 12 -2 -3
BITMAP
0000
0000
0000
0400
1C00
2800
2800
2800
1C00
1000
0000
0000
ENDCHAR
STARTCHAR char163
ENCODING 163
SWIDTH 525 0
DWIDTH 7 0
BBX 10 12 -2 -3
BITMAP
0000
0000
0C00
1000
1000
3800
1000
1200
3C00
0000
0000
0000
ENDCHAR
STARTCHAR char164
ENCODING 164
SWIDTH 525 0
DWIDTH 7 0
BBX 10 12 -2 -3
BITMAP
0000
0000
0000
2200
1C00
1400
1400
1C00
2200
0000
0000
0000
ENDCHAR
STARTCHAR char165
ENCODING 165
SWIDTH 525 0
DWIDTH 7 0
BBX 10 12 -2 -3
BITMAP
0000
2200
2200
1400
0800
3E00
0800
3E00
0800
0800
0000
0000
ENDCHAR
STARTCHAR char166
ENCODING 166
SWIDTH 525 0
DWIDTH 7 0
BBX 10 12 -2 -3
BITMAP
0000
0000
0000
0000
0000
0000
0000
1800
0000
0000
0000
0000
ENDCHAR
STARTCHAR char167
ENCODING 167
SWIDTH 525 0
DWIDTH 7 0
BBX 10 12 -2 -3
BITMAP
0000
0C00
1000
0800
1C00
2200
1C00
0800
0400
1800
0000
0000
ENDCHAR
STARTCHAR char168
ENCODING 168
SWIDTH 525 0
DWIDTH 7 0
BBX 10 12 -2 -3
BITMAP
0000
0000
0000
1400
0000
0000
0000
0000
0000
0000
0000
0000
ENDCHAR
STARTCHAR char169
ENCODING 169
SWIDTH 525 0
DWIDTH 7 0
BBX 10 12 -2 -3
BITMAP
0000
0000
0E00
1100
2E00
2800
2E00
1100
0E00
0000
0000
0000
ENDCHAR
STARTCHAR char170
ENCODING 170
SWIDTH 525 0
DWIDTH 7 0
BBX 10 12 -2 -3
BITMAP
0000
0E00
1200
1200
0E00
0000
0000
0000
0000
0000
0000
0000
ENDCHAR
STARTCHAR char171
ENCODING 171
SWIDTH 525 0
DWIDTH 7 0
BBX 10 12 -2 -3
BITMAP
0000
0000
0000
0000
0A00
1400
0A00
0000
0000
0000
0000
0000
ENDCHAR
STARTCHAR char172
ENCODING 172
SWIDTH 525 0
DWIDTH 7 0
BBX 10 12 -2 -3
BITMAP
0000
0000
0000
0000
0000
3E00
0200
0200
0000
0000
0000
0000
ENDCHAR
STARTCHAR char174
ENCODING 174
SWIDTH 525 0
DWIDTH 7 0
BBX 10 12 -2 -3
BITMAP
0000
0000
0E00
1100
2E80
2C80
2A80
1100
0E00
0000
0000
0000
ENDCHAR
STARTCHAR char175
ENCODING 175
SWIDTH 525 0
DWIDTH 7 0
BBX 10 12 -2 -3
BITMAP
0000
0000
1C00
0000
0000
0000
0000
0000
0000
0000
0000
0000
ENDCHAR
STARTCHAR char176
ENCODING 176
SWIDTH 525 0
DWIDTH 7 0
BBX 10 12 -2 -3
BITMAP
0000
0000
0000
0800
1400
0800
0000
0000
0000
0000
0000
0000
ENDCHAR
STARTCHAR char177
ENCODING 177
SWIDTH 525 0
DWIDTH 7 0
BBX 10 12 -2 -3
BITMAP
0000
0000
0000
0000
0800
1C00
0800
0000
1C00
0000
0000
0000
ENDCHAR
STARTCHAR char178
ENCODING 178
SWIDTH 525 0
DWIDTH 7 0
BBX 10 12 -2 -3
BITMAP
0000
0000
1800
0400
0800
1000
1C00
0000
0000
0000
0000
0000
ENDCHAR
STARTCHAR char179
ENCODING 179
SWIDTH 525 0
DWIDTH 7 0
BBX 10 12 -2 -3
BITMAP
0000
0000
1800
0400
1800
0400
1800
0000
0000
0000
0000
0000
ENDCHAR
STARTCHAR char180
ENCODING 180
SWIDTH 525 0
DWIDTH 7 0
BBX 10 12 -2 -3
BITMAP
0000
0800
1000
0000
0000
0000
0000
0000
0000
0000
0000
0000
ENDCHAR
STARTCHAR char181
ENCODING 181
SWIDTH 525 0
DWIDTH 7 0
BBX 10 12 -2 -3
BITMAP
0000
0000
0000
0000
2400
2400
2400
2400
3800
2000
0000
0000
ENDCHAR
STARTCHAR char182
ENCODING 182
SWIDTH 525 0
DWIDTH 7 0
BBX 10 12 -2 -3
BITMAP
0000
0000
0000
1E00
2A00
2A00
1A00
0A00
0A00
0000
0000
0000
ENDCHAR
STARTCHAR char183
ENCODING 183
SWIDTH 525 0
DWIDTH 7 0
BBX 10 12 -2 -3
BITMAP
0000
0000
0000
0000
0000
0C00
0C00
0000
0000
0000
0000
0000
ENDCHAR
STARTCHAR char184
ENCODING 184
SWIDTH 525 0
DWIDTH 7 0
BBX 10 12 -2 -3
BITMAP
0000
0000
0000
0000
0000
0800
0400
1C00
0000
0000
0000
0000
ENDCHAR
STARTCHAR char185
ENCODING 185
SWIDTH 525 0
DWIDTH 7 0
BBX 10 12 -2 -3
BITMAP
0000
0000
0000
0800
1800
0800
0800
0000
0000
0000
0000
0000
ENDCHAR
STARTCHAR char186
ENCODING 186
SWIDTH 525 0
DWIDTH 7 0
BBX 10 12 -2 -3
BITMAP
0000
1800
2400
2400
1800
0000
0000
0000
0000
0000
0000
0000
ENDCHAR
STARTCHAR char187
ENCODING 187
SWIDTH 525 0
DWIDTH 7 0
BBX 10 12 -2 -3
BITMAP
0000
0000
0000
0000
1400
0A00
1400
0000
0000
0000
0000
0000
ENDCHAR
STARTCHAR char188
ENCODING 188
SWIDTH 525 0
DWIDTH 7 0
BBX 10 12 -2 -3
BITMAP
0000
0800
1800
0800
0A00
0600
0A00
0F00
0200
0000
0000
0000
ENDCHAR
STARTCHAR char189
ENCODING 189
SWIDTH 525 0
DWIDTH 7 0
BBX 10 12 -2 -3
BITMAP
0000
0800
1800
0800
0E00
0100
0200
0700
0000
0000
0000
0000
ENDCHAR
STARTCHAR char190
ENCODING 190
SWIDTH 525 0
DWIDTH 7 0
BBX 10 12 -2 -3
BITMAP
0000
3000
0800
1000
0A00
3600
0A00
0F00
0200
0000
0000
0000
ENDCHAR
STARTCHAR char191
ENCODING 191
SWIDTH 525 0
DWIDTH 7 0
BBX 10 12 -2 -3
BITMAP
0000
0000
0000
0400
0000
0400
0800
0A00
0E00
0000
0000
0000
ENDCHAR
STARTCHAR char192
ENCODING 192
SWIDTH 525 0
DWIDTH 7 0
BBX 10 12 -2 -3
BITMAP
0000
0800
0400
0C00
1200
1200
1E00
1200
1200
0000
0000
0000
ENDCHAR
STARTCHAR char193
ENCODING 193
SWIDTH 525 0
DWIDTH 7 0
BBX 10 12 -2 -3
BITMAP
0000
0400
0800
0C00
1200
1200
1E00
1200
1200
0000
0000
0000
ENDCHAR
STARTCHAR char194
ENCODING 194
SWIDTH 525 0
DWIDTH 7 0
BBX 10 12 -2 -3
BITMAP
0400
0A00
0000
0C00
1200
1200
1E00
1200
1200
0000
0000
0000
ENDCHAR
STARTCHAR char195
ENCODING 195
SWIDTH 525 0
DWIDTH 7 0
BBX 10 12 -2 -3
BITMAP
0000
0A00
1400
0C00
1200
1200
1E00
1200
1200
0000
0000
0000
ENDCHAR
STARTCHAR char196
ENCODING 196
SWIDTH 525 0
DWIDTH 7 0
BBX 10 12 -2 -3
BITMAP
0000
1200
0000
0C00
1200
1200
1E00
1200
1200
0000
0000
0000
ENDCHAR
STARTCHAR char197
ENCODING 197
SWIDTH 525 0
DWIDTH 7 0
BBX 10 12 -2 -3
BITMAP
0000
0C00
1200
0C00
1200
1200
1E00
1200
1200
0000
0000
0000
ENDCHAR
STARTCHAR char198
ENCODING 198
SWIDTH 525 0
DWIDTH 7 0
BBX 10 12 -2 -3
BITMAP
0000
0000
0000
1F00
2400
2600
3C00
2400
2700
0000
0000
0000
ENDCHAR
STARTCHAR char199
ENCODING 199
SWIDTH 525 0
DWIDTH 7 0
BBX 10 12 -2 -3
BITMAP
0000
0000
0000
1C00
2000
2000
2000
2000
1C00
0800
1000
0000
ENDCHAR
STARTCHAR char200
ENCODING 200
SWIDTH 525 0
DWIDTH 7 0
BBX 10 12 -2 -3
BITMAP
0000
0800
0400
1E00
1000
1C00
1000
1000
1E00
0000
0000
0000
ENDCHAR
STARTCHAR char201
ENCODING 201
SWIDTH 525 0
DWIDTH 7 0
BBX 10 12 -2 -3
BITMAP
0000
0400
0800
1E00
1000
1C00
1000
1000
1E00
0000
0000
0000
ENDCHAR
STARTCHAR char202
ENCODING 202
SWIDTH 525 0
DWIDTH 7 0
BBX 10 12 -2 -3
BITMAP
0000
0800
1400
1E00
1000
1C00
1000
1000
1E00
0000
0000
0000
ENDCHAR
STARTCHAR char203
ENCODING 203
SWIDTH 525 0
DWIDTH 7 0
BBX 10 12 -2 -3
BITMAP
0000
1400
0000
1E00
1000
1C00
1000
1000
1E00
0000
0000
0000
ENDCHAR
STARTCHAR char204
ENCODING 204
SWIDTH 525 0
DWIDTH 7 0
BBX 10 12 -2 -3
BITMAP
1000
0800
0000
1C00
0800
0800
0800
0800
1C00
0000
0000
0000
ENDCHAR
STARTCHAR char205
ENCODING 205
SWIDTH 525 0
DWIDTH 7 0
BBX 10 12 -2 -3
BITMAP
0400
0800
0000
1C00
0800
0800
0800
0800
1C00
0000
0000
0000
ENDCHAR
STARTCHAR char206
ENCODING 206
SWIDTH 525 0
DWIDTH 7 0
BBX 10 12 -2 -3
BITMAP
0800
1400
0000
1C00
0800
0800
0800
0800
1C00
0000
0000
0000
ENDCHAR
STARTCHAR char207
ENCODING 207
SWIDTH 525 0
DWIDTH 7 0
BBX 10 12 -2 -3
BITMAP
0000
1400
0000
1C00
0800
0800
0800
0800
1C00
0000
0000
0000
ENDCHAR
STARTCHAR char208
ENCODING 208
SWIDTH 525 0
DWIDTH 7 0
BBX 10 12 -2 -3
BITMAP
0000
0000
0000
1C00
1200
3A00
1200
1200
1C00
0000
0000
0000
ENDCHAR
STARTCHAR char209
ENCODING 209
SWIDTH 525 0
DWIDTH 7 0
BBX 10 12 -2 -3
BITMAP
0000
0A00
1400
0000
1C00
1200
1200
1200
1200
0000
0000
0000
ENDCHAR
STARTCHAR char210
ENCODING 210
SWIDTH 525 0
DWIDTH 7 0
BBX 10 12 -2 -3
BITMAP
0000
1000
0800
0000
0C00
1200
1200
1200
0C00
0000
0000
0000
ENDCHAR
STARTCHAR char211
ENCODING 211
SWIDTH 525 0
DWIDTH 7 0
BBX 10 12 -2 -3
BITMAP
0000
0400
0800
0000
0C00
1200
1200
1200
0C00
0000
0000
0000
ENDCHAR
STARTCHAR char212
ENCODING 212
SWIDTH 525 0
DWIDTH 7 0
BBX 10 12 -2 -3
BITMAP
0000
0800
1400
0000
0C00
1200
1200
1200
0C00
0000
0000
0000
ENDCHAR
STARTCHAR char213
ENCODING 213
SWIDTH 525 0
DWIDTH 7 0
BBX 10 12 -2 -3
BITMAP
0000
0A00
1400
0000
0C00
1200
1200
1200
0C00
0000
0000
0000
ENDCHAR
STARTCHAR char214
ENCODING 214
SWIDTH 525 0
DWIDTH 7 0
BBX 10 12 -2 -3
BITMAP
0000
0000
1200
0000
0C00
1200
1200
1200
0C00
0000
0000
0000
ENDCHAR
STARTCHAR char215
ENCODING 215
SWIDTH 525 0
DWIDTH 7 0
BBX 10 12 -2 -3
BITMAP
0000
0000
0000
0000
1400
0800
1400
0000
0000
0000
0000
0000
ENDCHAR
STARTCHAR char216
ENCODING 216
SWIDTH 525 0
DWIDTH 7 0
BBX 10 12 -2 -3
BITMAP
0000
0000
0200
0C00
1600
1600
1A00
1A00
0C00
1000
0000
0000
ENDCHAR
STARTCHAR char217
ENCODING 217
SWIDTH 525 0
DWIDTH 7 0
BBX 10 12 -2 -3
BITMAP
0000
1000
0800
1200
1200
1200
1200
1200
0E00
0000
0000
0000
ENDCHAR
STARTCHAR char218
ENCODING 218
SWIDTH 525 0
DWIDTH 7 0
BBX 10 12 -2 -3
BITMAP
0000
0200
0400
1200
1200
1200
1200
1200
0E00
0000
0000
0000
ENDCHAR
STARTCHAR char219
ENCODING 219
SWIDTH 525 0
DWIDTH 7 0
BBX 10 12 -2 -3
BITMAP
0400
0A00
0000
1200
1200
1200
1200
1200
0E00
0000
0000
0000
ENDCHAR
STARTCHAR char220
ENCODING 220
SWIDTH 525 0
DWIDTH 7 0
BBX 10 12 -2 -3
BITMAP
0000
0A00
0000
1200
1200
1200
1200
1200
0E00
0000
0000
0000
ENDCHAR
STARTCHAR char221
ENCODING 221
SWIDTH 525 0
DWIDTH 7 0
BBX 10 12 -2 -3
BITMAP
0000
0400
0800
2200
1400
0800
0800
0800
0800
0000
0000
0000
ENDCHAR
STARTCHAR char222
ENCODING 222
SWIDTH 525 0
DWIDTH 7 0
BBX 10 12 -2 -3
BITMAP
0000
0000
0000
1000
1000
1C00
1200
1200
1C00
1000
0000
0000
ENDCHAR
STARTCHAR char223
ENCODING 223
SWIDTH 525 0
DWIDTH 7 0
BBX 10 12 -2 -3
BITMAP
0000
0000
0000
0C00
1200
1400
1200
1200
1400
1000
0000
0000
ENDCHAR
STARTCHAR char224
ENCODING 224
SWIDTH 525 0
DWIDTH 7 0
BBX 10 12 -2 -3
BITMAP
0000
1000
0800
0000
0E00
1200
1200
1600
0A00
0000
0000
0000
ENDCHAR
STARTCHAR char225
ENCODING 225
SWIDTH 525 0
DWIDTH 7 0
BBX 10 12 -2 -3
BITMAP
0000
0400
0800
0000
0E00
1200
1200
1600
0A00
0000
0000
0000
ENDCHAR
STARTCHAR char226
ENCODING 226
SWIDTH 525 0
DWIDTH 7 0
BBX 10 12 -2 -3
BITMAP
0000
0800
1400
0000
0E00
1200
1200
1600
0A00
0000
0000
0000
ENDCHAR
STARTCHAR char227
ENCODING 227
SWIDTH 525 0
DWIDTH 7 0
BBX 10 12 -2 -3
BITMAP
0000
0A00
1400
0000
0E00
1200
1200
1600
0A00
0000
0000
0000
ENDCHAR
STARTCHAR char228
ENCODING 228
SWIDTH 525 0
DWIDTH 7 0
BBX 10 12 -2 -3
BITMAP
0000
0000
1200
0000
0E00
1200
1200
1600
0A00
0000
0000
0000
ENDCHAR
STARTCHAR char229
ENCODING 229
SWIDTH 525 0
DWIDTH 7 0
BBX 10 12 -2 -3
BITMAP
0000
0000
0400
0000
0E00
1200
1200
1600
0A00
0000
0000
0000
ENDCHAR
STARTCHAR char230
ENCODING 230
SWIDTH 525 0
DWIDTH 7 0
BBX 10 12 -2 -3
BITMAP
0000
0000
0000
0000
0E00
1500
1700
1400
0B00
0000
0000
0000
ENDCHAR
STARTCHAR char231
ENCODING 231
SWIDTH 525 0
DWIDTH 7 0
BBX 10 12 -2 -3
BITMAP
0000
0000
0000
0000
0E00
1000
1000
1000
0E00
0400
0800
0000
ENDCHAR
STARTCHAR char232
ENCODING 232
SWIDTH 525 0
DWIDTH 7 0
BBX 10 12 -2 -3
BITMAP
0000
1000
0800
0000
0C00
1200
1E00
1000
0E00
0000
0000
0000
ENDCHAR
STARTCHAR char233
ENCODING 233
SWIDTH 525 0
DWIDTH 7 0
BBX 10 12 -2 -3
BITMAP
0000
0400
0800
0000
0C00
1200
1E00
1000
0E00
0000
0000
0000
ENDCHAR
STARTCHAR char234
ENCODING 234
SWIDTH 525 0
DWIDTH 7 0
BBX 10 12 -2 -3
BITMAP
0000
0800
1400
0000
0C00
1200
1E00
1000
0E00
0000
0000
0000
ENDCHAR
STARTCHAR char235
ENCODING 235
SWIDTH 525 0
DWIDTH 7 0
BBX 10 12 -2 -3
BITMAP
0000
0000
1400
0000
0C00
1200
1E00
1000
0E00
0000
0000
0000
ENDCHAR
STARTCHAR char236
ENCODING 236
SWIDTH 525 0
DWIDTH 7 0
BBX 10 12 -2 -3
BITMAP
0000
0800
0400
0000
0C00
0400
0400
0400
0400
0000
0000
0000
ENDCHAR
STARTCHAR char237
ENCODING 237
SWIDTH 525 0
DWIDTH 7 0
BBX 10 12 -2 -3
BITMAP
0000
0200
0400
0000
0C00
0400
0400
0400
0400
0000
0000
0000
ENDCHAR
STARTCHAR char238
ENCODING 238
SWIDTH 525 0
DWIDTH 7 0
BBX 10 12 -2 -3
BITMAP
0000
0400
0A00
0000
0C00
0400
0400
0400
0400
0000
0000
0000
ENDCHAR
STARTCHAR char239
ENCODING 239
SWIDTH 525 0
DWIDTH 7 0
BBX 10 12 -2 -3
BITMAP
0000
0000
0A00
0000
0C00
0400
0400
0400
0400
0000
0000
0000
ENDCHAR
STARTCHAR char240
ENCODING 240
SWIDTH 525 0
DWIDTH 7 0
BBX 10 12 -2 -3
BITMAP
0000
1400
0C00
1200
0E00
1200
1200
1200
0C00
0000
0000
0000
ENDCHAR
STARTCHAR char241
ENCODING 241
SWIDTH 525 0
DWIDTH 7 0
BBX 10 12 -2 -3
BITMAP
0000
0A00
1400
0000
1C00
1200
1200
1200
1200
0000
0000
0000
ENDCHAR
STARTCHAR char242
ENCODING 242
SWIDTH 525 0
DWIDTH 7 0
BBX 10 12 -2 -3
BITMAP
0000
1000
0800
0000
0C00
1200
1200
1200
0C00
0000
0000
0000
ENDCHAR
STARTCHAR char243
ENCODING 243
SWIDTH 525 0
DWIDTH 7 0
BBX 10 12 -2 -3
BITMAP
0000
0200
0400
0000
0C00
1200
1200
1200
0C00
0000
0000
0000
ENDCHAR
STARTCHAR char244
ENCODING 244
SWIDTH 525 0
DWIDTH 7 0
BBX 10 12 -2 -3
BITMAP
0000
0800
1400
0000
0C00
1200
1200
1200
0C00
0000
0000
0000
ENDCHAR
STARTCHAR char245
ENCODING 245
SWIDTH 525 0
DWIDTH 7 0
BBX 10 12 -2 -3
BITMAP
0000
0A00
1400
0000
0C00
1200
1200
1200
0C00
0000
0000
0000
ENDCHAR
STARTCHAR char246
ENCODING 246
SWIDTH 525 0
DWIDTH 7 0
BBX 10 12 -2 -3
BITMAP
0000
0000
1200
0000
0C00
1200
1200
1200
0C00
0000
0000
0000
ENDCHAR
STARTCHAR char247
ENCODING 247
SWIDTH 525 0
DWIDTH 7 0
BBX 10 12 -2 -3
BITMAP
0000
0000
0000
0800
0000
3E00
0000
0800
0000
0000
0000
0000
ENDCHAR
STARTCHAR char248
ENCODING 248
SWIDTH 525 0
DWIDTH 7 0
BBX 10 12 -2 -3
BITMAP
0000
0000
0000
0200
0C00
1600
1200
1A00
0C00
1000
0000
0000
ENDCHAR
STARTCHAR char249
ENCODING 249
SWIDTH 525 0
DWIDTH 7 0
BBX 10 12 -2 -3
BITMAP
0000
1000
0800
0000
1200
1200
1200
1200
0E00
0000
0000
0000
ENDCHAR
STARTCHAR char250
ENCODING 250
SWIDTH 525 0
DWIDTH 7 0
BBX 10 12 -2 -3
BITMAP
0000
0400
0800
0000
1200
1200
1200
1200
0E00
0000
0000
0000
ENDCHAR
STARTCHAR char251
ENCODING 251
SWIDTH 525 0
DWIDTH 7 0
BBX 10 12 -2 -3
BITMAP
0000
0800
1400
0000
1200
1200
1200
1200
0E00
0000
0000
0000
ENDCHAR
STARTCHAR char252
ENCODING 252
SWIDTH 525 0
DWIDTH 7 0
BBX 10 12 -2 -3
BITMAP
0000
0000
1400
0000
1200
1200
1200
1200
0E00
0000
0000
0000
ENDCHAR
STARTCHAR char253
ENCODING 253
SWIDTH 525 0
DWIDTH 7 0
BBX 10 12 -2 -3
BITMAP
0000
0400
0800
0000
1200
1200
1200
1200
0E00
0200
0C00
0000
ENDCHAR
STARTCHAR char254
ENCODING 254
SWIDTH 525 0
DWIDTH 7 0
BBX 10 12 -2 -3
BITMAP
0000
0000
1000
1000
1C00
1200
1200
1200
1C00
1000
1000
0000
ENDCHAR
STARTCHAR char255
ENCODING 255
SWIDTH 525 0
DWIDTH 7 0
BBX 10 12 -2 -3
BITMAP
0000
0000
0A00
0000
1200
1200
1200
1200
0E00
0200
0C00
0000
ENDCHAR
STARTCHAR uni0041
ENCODING 256
SWIDTH 525 0
DWIDTH 7 0
BBX 10 12 -2 -3
BITMAP
0000
1E00
0000
0C00
1200
1200
1E00
1200
1200
0000
0000
0000
ENDCHAR
STARTCHAR uni0061
ENCODING 257
SWIDTH 525 0
DWIDTH 7 0
BBX 10 12 -2 -3
BITMAP
0000
0000
1E00
0000
0E00
1200
1200
1600
0A00
0000
0000
0000
ENDCHAR
STARTCHAR uni0041
ENCODING 258
SWIDTH 525 0
DWIDTH 7 0
BBX 10 12 -2 -3
BITMAP
1200
0C00
0000
0C00
1200
1200
1E00
1200
1200
0000
0000
0000
ENDCHAR
STARTCHAR uni0061
ENCODING 259
SWIDTH 525 0
DWIDTH 7 0
BBX 10 12 -2 -3
BITMAP
0000
1200
0C00
0000
0E00
1200
1200
1600
0A00
0000
0000
0000
ENDCHAR
STARTCHAR uni0041
ENCODING 260
SWIDTH 525 0
DWIDTH 7 0
BBX 10 12 -2 -3
BITMAP
0000
0000
0000
0C00
1200
1200
1E00
1200
1200
0100
0000
0000
ENDCHAR
STARTCHAR uni0061
ENCODING 261
SWIDTH 525 0
DWIDTH 7 0
BBX 10 12 -2 -3
BITMAP
0000
0000
0000
0000
0E00
1200
1200
1600
0A00
0100
0000
0000
ENDCHAR
STARTCHAR uni0043
ENCODING 262
SWIDTH 525 0
DWIDTH 7 0
BBX 10 12 -2 -3
BITMAP
0400
0800
0000
0E00
1000
1000
1000
1000
0E00
0000
0000
0000
ENDCHAR
STARTCHAR uni0063
ENCODING 263
SWIDTH 525 0
DWIDTH 7 0
BBX 10 12 -2 -3
BITMAP
0000
0400
0800
0000
0E00
1000
1000
1000
0E00
0000
0000
0000
ENDCHAR
STARTCHAR uni0043
ENCODING 264
SWIDTH 525 0
DWIDTH 7 0
BBX 10 12 -2 -3
BITMAP
0400
0A00
0000
0E00
1000
1000
1000
1000
0E00
0000
0000
0000
ENDCHAR
STARTCHAR uni0063
ENCODING 265
SWIDTH 525 0
DWIDTH 7 0
BBX 10 12 -2 -3
BITMAP
0000
0400
0A00
0000
0E00
1000
1000
1000
0E00
0000
0000
0000
ENDCHAR
STARTCHAR uni0043
ENCODING 266
SWIDTH 525 0
DWIDTH 7 0
BBX 10 12 -2 -3
BITMAP
0000
0400
0000
0E00
1000
1000
1000
1000
0E00
0000
0000
0000
ENDCHAR
STARTCHAR uni0063
ENCODING 267
SWIDTH 525 0
DWIDTH 7 0
BBX 10 12 -2 -3
BITMAP
0000
0000
0400
0000
0E00
1000
1000
1000
0E00
0000
0000
0000
ENDCHAR
STARTCHAR uni0043
ENCODING 268
SWIDTH 525 0
DWIDTH 7 0
BBX 10 12 -2 -3
BITMAP
0A00
0400
0000
0E00
1000
1000
1000
1000
0E00
0000
0000
0000
ENDCHAR
STARTCHAR uni0063
ENCODING 269
SWIDTH 525 0
DWIDTH 7 0
BBX 10 12 -2 -3
BITMAP
0000
0A00
0400
0000
0E00
1000
1000
1000
0E00
0000
0000
0000
ENDCHAR
STARTCHAR uni0044
ENCODING 270
SWIDTH 525 0
DWIDTH 7 0
BBX 10 12 -2 -3
BITMAP
1400
0800
0000
1C00
1200
1200
1200
1200
1C00
0000
0000
0000
ENDCHAR
STARTCHAR uni0064
ENCODING 271
SWIDTH 525 0
DWIDTH 7 0
BBX 10 12 -2 -3
BITMAP
0000
0080
0280
0300
0E00
1200
1200
1600
0A00
0000
0000
0000
ENDCHAR
STARTCHAR uni0044
ENCODING 272
SWIDTH 525 0
DWIDTH 7 0
BBX 10 12 -2 -3
BITMAP
0000
0000
0000
1C00
1200
3A00
1200
1200
1C00
0000
0000
0000
ENDCHAR
STARTCHAR uni0064
ENCODING 273
SWIDTH 525 0
DWIDTH 7 0
BBX 10 12 -2 -3
BITMAP
0000
0000
0700
0200
0E00
1200
1200
1600
0A00
0000
0000
0000
ENDCHAR
STARTCHAR uni0045
ENCODING 274
SWIDTH 525 0
DWIDTH 7 0
BBX 10 12 -2 -3
BITMAP
0000
0C00
0000
1E00
1000
1C00
1000
1000
1E00
0000
0000
0000
ENDCHAR
STARTCHAR uni0065
ENCODING 275
SWIDTH 525 0
DWIDTH 7 0
BBX 10 12 -2 -3
BITMAP
0000
0000
1E00
0000
0C00
1200
1E00
1000
0E00
0000
0000
0000
ENDCHAR
STARTCHAR uni0045
ENCODING 276
SWIDTH 525 0
DWIDTH 7 0
BBX 10 12 -2 -3
BITMAP
1200
0C00
0000
1E00
1000
1C00
1000
1000
1E00
0000
0000
0000
ENDCHAR
STARTCHAR uni0065
ENCODING 277
SWIDTH 525 0
DWIDTH 7 0
BBX 10 12 -2 -3
BITMAP
0000
1200
0C00
0000
0C00
1200
1E00
1000
0E00
0000
0000
0000
ENDCHAR
STARTCHAR uni0045
ENCODING 278
SWIDTH 525 0
DWIDTH 7 0
BBX 10 12 -2 -3
BITMAP
0000
0800
0000
1E00
1000
1C00
1000
1000
1E00
0000
0000
0000
ENDCHAR
STARTCHAR uni0065
ENCODING 279
SWIDTH 525 0
DWIDTH 7 0
BBX 10 12 -2 -3
BITMAP
0000
0000
0800
0000
0C00
1200
1E00
1000
0E00
0000
0000
0000
ENDCHAR
STARTCHAR uni0045
ENCODING 280
SWIDTH 525 0
DWIDTH 7 0
BBX 10 12 -2 -3
BITMAP
0000
0000
0000
1E00
1000
1C00
1000
1000
1E00
0100
0000
0000
ENDCHAR
STARTCHAR uni0065
ENCODING 281
SWIDTH 525 0
DWIDTH 7 0
BBX 10 12 -2 -3
BITMAP
0000
0000
0000
0000
0C00
1200
1E00
1000
0C00
0200
0000
0000
ENDCHAR
STARTCHAR uni0045
ENCODING 282
SWIDTH 525 0
DWIDTH 7 0
BBX 10 12 -2 -3
BITMAP
1400
0800
0000
1E00
1000
1C00
1000
1000
1E00
0000
0000
0000
ENDCHAR
STARTCHAR uni0065
ENCODING 283
SWIDTH 525 0
DWIDTH 7 0
BBX 10 12 -2 -3
BITMAP
0000
1400
0800
0000
0C00
1200
1E00
1000
0E00
0000
0000
0000
ENDCHAR
STARTCHAR uni0047
ENCODING 284
SWIDTH 525 0
DWIDTH 7 0
BBX 10 12 -2 -3
BITMAP
0400
0A00
0000
0E00
1000
1000
1600
1200
0E00
0000
0000
0000
ENDCHAR
STARTCHAR uni0067
ENCODING 285
SWIDTH 525 0
DWIDTH 7 0
BBX 10 12 -2 -3
BITMAP
0000
0400
0A00
0000
0E00
1200
1200
1600
0A00
0200
0C00
0000
ENDCHAR
STARTCHAR uni0047
ENCODING 286
SWIDTH 525 0
DWIDTH 7 0
BBX 10 12 -2 -3
BITMAP
1200
0C00
0000
0E00
1000
1000
1600
1200
0E00
0000
0000
0000
ENDCHAR
STARTCHAR uni0067
ENCODING 287
SWIDTH 525 0
DWIDTH 7 0
BBX 10 12 -2 -3
BITMAP
0000
1200
0C00
0000
0E00
1200
1200
1600
0A00
0200
0C00
0000
ENDCHAR
STARTCHAR uni0047
ENCODING 288
SWIDTH 525 0
DWIDTH 7 0
BBX 10 12 -2 -3
BITMAP
0000
0400
0000
0E00
1000
1000
1600
1200
0E00
0000
0000
0000
ENDCHAR
STARTCHAR uni0067
ENCODING 289
SWIDTH 525 0
DWIDTH 7 0
BBX 10 12 -2 -3
BITMAP
0000
0000
0400
0000
0E00
1200
1200
1600
0A00
0200
0C00
0000
ENDCHAR
STARTCHAR uni0047
ENCODING 290
SWIDTH 525 0
DWIDTH 7 0
BBX 10 12 -2 -3
BITMAP
0000
0000
0000
0E00
1000
1000
1600
1200
0E00
0400
0800
0000
ENDCHAR
STARTCHAR uni0067
ENCODING 291
SWIDTH 525 0
DWIDTH 7 0
BBX 10 12 -2 -3
BITMAP
0000
0400
0800
0000
0E00
1200
1200
1600
0A00
0200
0C00
0000
ENDCHAR
STARTCHAR uni0048
ENCODING 292
SWIDTH 525 0
DWIDTH 7 0
BBX 10 12 -2 -3
BITMAP
0400
0A00
0000
1200
1200
1E00
1200
1200
1200
0000
0000
0000
ENDCHAR
STARTCHAR uni0068
ENCODING 293
SWIDTH 525 0
DWIDTH 7 0
BBX 10 12 -2 -3
BITMAP
0400
0A00
1000
1000
1C00
1200
1200
1200
1200
0000
0000
0000
ENDCHAR
STARTCHAR uni0048
ENCODING 294
SWIDTH 525 0
DWIDTH 7 0
BBX 10 12 -2 -3
BITMAP
0000
0000
0000
3F00
1200
1E00
1200
1200
1200
0000
0000
0000
ENDCHAR
STARTCHAR uni0068
ENCODING 295
SWIDTH 525 0
DWIDTH 7 0
BBX 10 12 -2 -3
BITMAP
0000
0000
3C00
1000
1C00
1200
1200
1200
1200
0000
0000
0000
ENDCHAR
STARTCHAR uni0049
ENCODING 296
SWIDTH 525 0
DWIDTH 7 0
BBX 10 12 -2 -3
BITMAP
1400
2800
0000
1C00
0800
0800
0800
0800
1C00
0000
0000
0000
ENDCHAR
STARTCHAR uni0069
ENCODING 297
SWIDTH 525 0
DWIDTH 7 0
BBX 10 12 -2 -3
BITMAP
0000
0A00
1400
0000
0C00
0400
0400
0400
0400
0000
0000
0000
ENDCHAR
STARTCHAR uni0049
ENCODING 298
SWIDTH 525 0
DWIDTH 7 0
BBX 10 12 -2 -3
BITMAP
0000
1C00
0000
1C00
0800
0800
0800
0800
1C00
0000
0000
0000
ENDCHAR
STARTCHAR uni0069
ENCODING 299
SWIDTH 525 0
DWIDTH 7 0
BBX 10 12 -2 -3
BITMAP
0000
0000
0E00
0000
0C00
0400
0400
0400
0400
0000
0000
0000
ENDCHAR
STARTCHAR uni0049
ENCODING 300
SWIDTH 525 0
DWIDTH 7 0
BBX 10 12 -2 -3
BITMAP
1400
0800
0000
1C00
0800
0800
0800
0800
1C00
0000
0000
0000
ENDCHAR
STARTCHAR uni0069
ENCODING 301
SWIDTH 525 0
DWIDTH 7 0
BBX 10 12 -2 -3
BITMAP
0000
0A00
0400
0000
0C00
0400
0400
0400
0400
0000
0000
0000
ENDCHAR
STARTCHAR uni0049
ENCODING 302
SWIDTH 525 0
DWIDTH 7 0
BBX 10 12 -2 -3
BITMAP
0000
0000
0000
1C00
0800
0800
0800
0800
1C00
1000
0800
0000
ENDCHAR
STARTCHAR uni0069
ENCODING 303
SWIDTH 525 0
DWIDTH 7 0
BBX 10 12 -2 -3
BITMAP
0000
0000
0400
0000
0C00
0400
0400
0400
0C00
0800
0400
0000
ENDCHAR
STARTCHAR uni0049
ENCODING 304
SWIDTH 525 0
DWIDTH 7 0
BBX 10 12 -2 -3
BITMAP
0000
0800
0000
1C00
0800
0800
0800
0800
1C00
0000
0000
0000
ENDCHAR
STARTCHAR uni0069
ENCODING 305
SWIDTH 525 0
DWIDTH 7 0
BBX 10 12 -2 -3
BITMAP
0000
0000
0000
0000
0C00
0400
0400
0400
0400
0000
0000
0000
ENDCHAR
STARTCHAR uni0049
ENCODING 306
SWIDTH 525 0
DWIDTH 7 0
BBX 10 12 -2 -3
BITMAP
0000
0000
0000
1F80
0880
0880
0880
0A80
1D00
0000
0000
0000
ENDCHAR
STARTCHAR uni0069
ENCODING 307
SWIDTH 525 0
DWIDTH 7 0
BBX 10 12 -2 -3
BITMAP
0000
0000
0900
0000
1B00
0900
0900
0900
0900
0600
0000
0000
ENDCHAR
STARTCHAR uni004A
ENCODING 308
SWIDTH 525 0
DWIDTH 7 0
BBX 10 12 -2 -3
BITMAP
0400
0A00
0000
0E00
0200
0200
0200
1200
0C00
0000
0000
0000
ENDCHAR
STARTCHAR uni006A
ENCODING 309
SWIDTH 525 0
DWIDTH 7 0
BBX 10 12 -2 -3
BITMAP
0000
0400
0A00
0000
0C00
0400
0400
0400
0400
0400
1800
0000
ENDCHAR
STARTCHAR uni004B
ENCODING 310
SWIDTH 525 0
DWIDTH 7 0
BBX 10 12 -2 -3
BITMAP
0000
0000
0000
1200
1400
1800
1400
1200
1200
0800
1000
0000
ENDCHAR
STARTCHAR uni006B
ENCODING 311
SWIDTH 525 0
DWIDTH 7 0
BBX 10 12 -2 -3
BITMAP
0000
0000
1000
1000
1200
1400
1C00
1200
1200
0800
1000
0000
ENDCHAR
STARTCHAR uni006B
ENCODING 312
SWIDTH 525 0
DWIDTH 7 0
BBX 10 12 -2 -3
BITMAP
0000
0000
0000
0000
1200
1400
1C00
1200
1200
0000
0000
0000
ENDCHAR
STARTCHAR uni004C
ENCODING 313
SWIDTH 525 0
DWIDTH 7 0
BBX 10 12 -2 -3
BITMAP
0000
0200
0400
1000
1000
1000
1000
1000
1E00
0000
0000
0000
ENDCHAR
STARTCHAR uni006C
ENCODING 314
SWIDTH 525 0
DWIDTH 7 0
BBX 10 12 -2 -3
BITMAP
0100
0200
0C00
0400
0400
0400
0400
0400
0400
0000
0000
0000
ENDCHAR
STARTCHAR uni004C
ENCODING 315
SWIDTH 525 0
DWIDTH 7 0
BBX 10 12 -2 -3
BITMAP
0000
0000
0000
1000
1000
1000
1000
1000
1E00
0400
0800
0000
ENDCHAR
STARTCHAR uni006C
ENCODING 316
SWIDTH 525 0
DWIDTH 7 0
BBX 10 12 -2 -3
BITMAP
0000
0000
0C00
0400
0400
0400
0400
0400
0400
0800
1000
0000
ENDCHAR
STARTCHAR uni004C
ENCODING 317
SWIDTH 525 0
DWIDTH 7 0
BBX 10 12 -2 -3
BITMAP
0000
0000
0600
1200
1000
1000
1000
1000
1E00
0000
0000
0000
ENDCHAR
STARTCHAR uni006C
ENCODING 318
SWIDTH 525 0
DWIDTH 7 0
BBX 10 12 -2 -3
BITMAP
0300
0100
0C00
0400
0400
0400
0400
0400
0400
0200
0000
0000
ENDCHAR
STARTCHAR uni004C
ENCODING 319
SWIDTH 525 0
DWIDTH 7 0
BBX 10 12 -2 -3
BITMAP
0000
0000
0000
1000
1000
1000
1400
1000
1E00
0000
0000
0000
ENDCHAR
STARTCHAR uni006C
ENCODING 320
SWIDTH 525 0
DWIDTH 7 0
BBX 10 12 -2 -3
BITMAP
0000
0000
0C00
0400
0400
0400
0500
0400
0400
0000
0000
0000
ENDCHAR
STARTCHAR uni004C
ENCODING 321
SWIDTH 525 0
DWIDTH 7 0
BBX 10 12 -2 -3
BITMAP
0000
0000
0000
1000
1400
1800
1000
1000
1E00
0000
0000
0000
ENDCHAR
STARTCHAR uni006C
ENCODING 322
SWIDTH 525 0
DWIDTH 7 0
BBX 10 12 -2 -3
BITMAP
0000
0000
0C00
0400
0400
0600
0C00
0400
0400
0000
0000
0000
ENDCHAR
STARTCHAR uni004E
ENCODING 323
SWIDTH 525 0
DWIDTH 7 0
BBX 10 12 -2 -3
BITMAP
0400
0800
0000
1200
1A00
1A00
1600
1600
1200
0000
0000
0000
ENDCHAR
STARTCHAR uni006E
ENCODING 324
SWIDTH 525 0
DWIDTH 7 0
BBX 10 12 -2 -3
BITMAP
0000
0400
0800
0000
1C00
1200
1200
1200
1200
0000
0000
0000
ENDCHAR
STARTCHAR uni004E
ENCODING 325
SWIDTH 525 0
DWIDTH 7 0
BBX 10 12 -2 -3
BITMAP
0000
0000
0000
1200
1A00
1A00
1600
1600
1A00
0800
1000
0000
ENDCHAR
STARTCHAR uni006E
ENCODING 326
SWIDTH 525 0
DWIDTH 7 0
BBX 10 12 -2 -3
BITMAP
0000
0400
0800
0000
1C00
1200
1200
1200
1A00
0800
1000
0000
ENDCHAR
STARTCHAR uni004E
ENCODING 327
SWIDTH 525 0
DWIDTH 7 0
BBX 10 12 -2 -3
BITMAP
0000
0A00
0400
1200
1A00
1A00
1600
1600
1200
0000
0000
0000
ENDCHAR
STARTCHAR uni006E
ENCODING 328
SWIDTH 525 0
DWIDTH 7 0
BBX 10 12 -2 -3
BITMAP
0000
0A00
0400
0000
1C00
1200
1200
1200
1200
0000
0000
0000
ENDCHAR
STARTCHAR uni006E
ENCODING 329
SWIDTH 525 0
DWIDTH 7 0
BBX 10 12 -2 -3
BITMAP
0000
1000
1000
0000
1C00
1200
1200
1200
1200
0000
0000
0000
ENDCHAR
STARTCHAR uni004E
ENCODING 330
SWIDTH 525 0
DWIDTH 7 0
BBX 10 12 -2 -3
BITMAP
0000
0000
0000
1200
1A00
1A00
1600
1600
1200
0200
0C00
0000
ENDCHAR
STARTCHAR uni006E
ENCODING 331
SWIDTH 525 0
DWIDTH 7 0
BBX 10 12 -2 -3
BITMAP
0000
0400
0800
0000
1C00
1200
1200
1200
1200
0200
0C00
0000
ENDCHAR
STARTCHAR uni004F
ENCODING 332
SWIDTH 525 0
DWIDTH 7 0
BBX 10 12 -2 -3
BITMAP
0000
1E00
0000
0C00
1200
1200
1200
1200
0C00
0000
0000
0000
ENDCHAR
STARTCHAR uni006F
ENCODING 333
SWIDTH 525 0
DWIDTH 7 0
BBX 10 12 -2 -3
BITMAP
0000
0000
1E00
0000
0C00
1200
1200
1200
0C00
0000
0000
0000
ENDCHAR
STARTCHAR uni004F
ENCODING 334
SWIDTH 525 0
DWIDTH 7 0
BBX 10 12 -2 -3
BITMAP
1200
0C00
0000
0C00
1200
1200
1200
1200
0C00
0000
0000
0000
ENDCHAR
STARTCHAR uni006F
ENCODING 335
SWIDTH 525 0
DWIDTH 7 0
BBX 10 12 -2 -3
BITMAP
0000
1200
0C00
0000
0C00
1200
1200
1200
0C00
0000
0000
0000
ENDCHAR
STARTCHAR uni004F
ENCODING 336
SWIDTH 525 0
DWIDTH 7 0
BBX 10 12 -2 -3
BITMAP
0A00
1400
0000
0C00
1200
1200
1200
1200
0C00
0000
0000
0000
ENDCHAR
STARTCHAR uni006F
ENCODING 337
SWIDTH 525 0
DWIDTH 7 0
BBX 10 12 -2 -3
BITMAP
0000
0A00
1400
0000
0C00
1200
1200
1200
0C00
0000
0000
0000
ENDCHAR
STARTCHAR char198
ENCODING 338
SWIDTH 525 0
DWIDTH 7 0
BBX 10 12 -2 -3
BITMAP
0000
0000
0000
1F00
2400
2600
2400
2400
1F00
0000
0000
0000
ENDCHAR
STARTCHAR char230
ENCODING 339
SWIDTH 525 0
DWIDTH 7 0
BBX 10 12 -2 -3
BITMAP
0000
0000
0000
0000
0E00
1500
1700
1400
0F00
0000
0000
0000
ENDCHAR
STARTCHAR uni0052
ENCODING 340
SWIDTH 525 0
DWIDTH 7 0
BBX 10 12 -2 -3
BITMAP
0000
0400
0800
1C00
1200
1200
1C00
1200
1200
0000
0000
0000
ENDCHAR
STARTCHAR uni0072
ENCODING 341
SWIDTH 525 0
DWIDTH 7 0
BBX 10 12 -2 -3
BITMAP
0000
0400
0800
0000
1600
1800
1000
1000
1000
0000
0000
0000
ENDCHAR
STARTCHAR uni0052
ENCODING 342
SWIDTH 525 0
DWIDTH 7 0
BBX 10 12 -2 -3
BITMAP
0000
0000
0000
1C00
1200
1200
1C00
1200
1200
0800
1000
0000
ENDCHAR
STARTCHAR uni0072
ENCODING 343
SWIDTH 525 0
DWIDTH 7 0
BBX 10 12 -2 -3
BITMAP
0000
0000
0000
0000
1600
1800
1000
1000
1000
0800
1000
0000
ENDCHAR
STARTCHAR uni0052
ENCODING 344
SWIDTH 525 0
DWIDTH 7 0
BBX 10 12 -2 -3
BITMAP
0000
1400
0800
1C00
1200
1200
1C00
1200
1200
0000
0000
0000
ENDCHAR
STARTCHAR uni0072
ENCODING 345
SWIDTH 525 0
DWIDTH 7 0
BBX 10 12 -2 -3
BITMAP
0000
1400
0800
0000
1600
1800
1000
1000
1000
0000
0000
0000
ENDCHAR
STARTCHAR uni0053
ENCODING 346
SWIDTH 525 0
DWIDTH 7 0
BBX 10 12 -2 -3
BITMAP
0400
0800
0000
0E00
1000
0C00
0200
0200
1C00
0000
0000
0000
ENDCHAR
STARTCHAR uni0073
ENCODING 347
SWIDTH 525 0
DWIDTH 7 0
BBX 10 12 -2 -3
BITMAP
0000
0400
0800
0000
0E00
1000
0C00
0200
1C00
0000
0000
0000
ENDCHAR
STARTCHAR uni0053
ENCODING 348
SWIDTH 525 0
DWIDTH 7 0
BBX 10 12 -2 -3
BITMAP
0400
0A00
0000
0E00
1000
0C00
0200
0200
1C00
0000
0000
0000
ENDCHAR
STARTCHAR uni0073
ENCODING 349
SWIDTH 525 0
DWIDTH 7 0
BBX 10 12 -2 -3
BITMAP
0000
0400
0A00
0000
0E00
1000
0C00
0200
1C00
0000
0000
0000
ENDCHAR
STARTCHAR uni0053
ENCODING 350
SWIDTH 525 0
DWIDTH 7 0
BBX 10 12 -2 -3
BITMAP
0000
0000
0000
0E00
1000
0C00
0200
0200
1C00
0400
0400
0000
ENDCHAR
STARTCHAR uni0073
ENCODING 351
SWIDTH 525 0
DWIDTH 7 0
BBX 10 12 -2 -3
BITMAP
0000
0000
0000
0000
0E00
1000
0C00
0200
1C00
0400
0400
0000
ENDCHAR
STARTCHAR uni0053
ENCODING 352
SWIDTH 525 0
DWIDTH 7 0
BBX 10 12 -2 -3
BITMAP
0A00
0400
0000
0E00
1000
0C00
0200
0200
1C00
0000
0000
0000
ENDCHAR
STARTCHAR uni0073
ENCODING 353
SWIDTH 525 0
DWIDTH 7 0
BBX 10 12 -2 -3
BITMAP
0000
0A00
0400
0000
0E00
1000
0C00
0200
1C00
0000
0000
0000
ENDCHAR
STARTCHAR uni0054
ENCODING 354
SWIDTH 525 0
DWIDTH 7 0
BBX 10 12 -2 -3
BITMAP
0000
0000
0000
3E00
0800
0800
0800
0800
0800
1000
0000
0000
ENDCHAR
STARTCHAR uni0074
ENCODING 355
SWIDTH 525 0
DWIDTH 7 0
BBX 10 12 -2 -3
BITMAP
0000
0000
0000
0800
1C00
0800
0800
0800
0400
0800
0000
0000
ENDCHAR
STARTCHAR uni0054
ENCODING 356
SWIDTH 525 0
DWIDTH 7 0
BBX 10 12 -2 -3
BITMAP
1400
0800
0000
3E00
0800
0800
0800
0800
0800
0000
0000
0000
ENDCHAR
STARTCHAR uni0074
ENCODING 357
SWIDTH 525 0
DWIDTH 7 0
BBX 10 12 -2 -3
BITMAP
0000
0600
0200
0800
1C00
0800
0800
0800
0400
0000
0000
0000
ENDCHAR
STARTCHAR uni0054
ENCODING 358
SWIDTH 525 0
DWIDTH 7 0
BBX 10 12 -2 -3
BITMAP
0000
0000
0000
3E00
0800
0800
1C00
0800
0800
0000
0000
0000
ENDCHAR
STARTCHAR uni0074
ENCODING 359
SWIDTH 525 0
DWIDTH 7 0
BBX 10 12 -2 -3
BITMAP
0000
0000
0000
0800
1C00
0800
1C00
0800
0400
0000
0000
0000
ENDCHAR
STARTCHAR uni0055
ENCODING 360
SWIDTH 525 0
DWIDTH 7 0
BBX 10 12 -2 -3
BITMAP
0A00
1400
0000
1200
1200
1200
1200
1200
0E00
0000
0000
0000
ENDCHAR
STARTCHAR uni0075
ENCODING 361
SWIDTH 525 0
DWIDTH 7 0
BBX 10 12 -2 -3
BITMAP
0000
0A00
1400
0000
1200
1200
1200
1200
0E00
0000
0000
0000
ENDCHAR
STARTCHAR uni0055
ENCODING 362
SWIDTH 525 0
DWIDTH 7 0
BBX 10 12 -2 -3
BITMAP
0000
1E00
0000
1200
1200
1200
1200
1200
0E00
0000
0000
0000
ENDCHAR
STARTCHAR uni0075
ENCODING 363
SWIDTH 525 0
DWIDTH 7 0
BBX 10 12 -2 -3
BITMAP
0000
0000
1E00
0000
1200
1200
1200
1200
0E00
0000
0000
0000
ENDCHAR
STARTCHAR uni0055
ENCODING 364
SWIDTH 525 0
DWIDTH 7 0
BBX 10 12 -2 -3
BITMAP
1200
0C00
0000
1200
1200
1200
1200
1200
0E00
0000
0000
0000
ENDCHAR
STARTCHAR uni0075
ENCODING 365
SWIDTH 525 0
DWIDTH 7 0
BBX 10 12 -2 -3
BITMAP
0000
1200
0C00
0000
1200
1200
1200
1200
0E00
0000
0000
0000
ENDCHAR
STARTCHAR uni0055
ENCODING 366
SWIDTH 525 0
DWIDTH 7 0
BBX 10 12 -2 -3
BITMAP
0400
0A00
0400
1200
1200
1200
1200
1200
0E00
0000
0000
0000
ENDCHAR
STARTCHAR uni0075
ENCODING 367
SWIDTH 525 0
DWIDTH 7 0
BBX 10 12 -2 -3
BITMAP
0000
0400
0A00
0400
1200
1200
1200
1200
0E00
0000
0000
0000
ENDCHAR
STARTCHAR uni0055
ENCODING 368
SWIDTH 525 0
DWIDTH 7 0
BBX 10 12 -2 -3
BITMAP
0900
1200
0000
1200
1200
1200
1200
1200
0E00
0000
0000
0000
ENDCHAR
STARTCHAR uni0075
ENCODING 369
SWIDTH 525 0
DWIDTH 7 0
BBX 10 12 -2 -3
BITMAP
0000
0900
1200
0000
1200
1200
1200
1200
0E00
0000
0000
0000
ENDCHAR
STARTCHAR uni0055
ENCODING 370
SWIDTH 525 0
DWIDTH 7 0
BBX 10 12 -2 -3
BITMAP
0000
0000
0000
1200
1200
1200
1200
1200
0E00
0800
0400
0000
ENDCHAR
STARTCHAR uni0075
ENCODING 371
SWIDTH 525 0
DWIDTH 7 0
BBX 10 12 -2 -3
BITMAP
0000
0000
0000
0000
1200
1200
1200
1200
0E00
0800
0400
0000
ENDCHAR
STARTCHAR uni0077
ENCODING 372
SWIDTH 525 0
DWIDTH 7 0
BBX 10 12 -2 -3
BITMAP
0400
0A00
0000
1200
1200
1200
1200
1E00
1200
0000
0000
0000
ENDCHAR
STARTCHAR uni0077
ENCODING 373
SWIDTH 525 0
DWIDTH 7 0
BBX 10 12 -2 -3
BITMAP
0000
0400
0A00
0000
1200
1200
1200
1E00
1200
0000
0000
0000
ENDCHAR
STARTCHAR uni0059
ENCODING 374
SWIDTH 525 0
DWIDTH 7 0
BBX 10 12 -2 -3
BITMAP
0800
1400
0000
2200
1400
0800
0800
0800
0800
0000
0000
0000
ENDCHAR
STARTCHAR uni0079
ENCODING 375
SWIDTH 525 0
DWIDTH 7 0
BBX 10 12 -2 -3
BITMAP
0000
0400
0A00
0000
1200
1200
1200
1200
0E00
0200
0C00
0000
ENDCHAR
STARTCHAR uni0059
ENCODING 376
SWIDTH 525 0
DWIDTH 7 0
BBX 10 12 -2 -3
BITMAP
0000
1400
0000
2200
1400
0800
0800
0800
0800
0000
0000
0000
ENDCHAR
STARTCHAR uni005A
ENCODING 377
SWIDTH 525 0
DWIDTH 7 0
BBX 10 12 -2 -3
BITMAP
0400
0800
0000
1E00
0200
0400
0800
1000
1E00
0000
0000
0000
ENDCHAR
STARTCHAR uni007A
ENCODING 378
SWIDTH 525 0
DWIDTH 7 0
BBX 10 12 -2 -3
BITMAP
0000
0400
0800
0000
1E00
0400
0800
1000
1E00
0000
0000
0000
ENDCHAR
STARTCHAR uni005A
ENCODING 379
SWIDTH 525 0
DWIDTH 7 0
BBX 10 12 -2 -3
BITMAP
0000
0400
0000
1E00
0200
0400
0800
1000
1E00
0000
0000
0000
ENDCHAR
STARTCHAR uni007A
ENCODING 380
SWIDTH 525 0
DWIDTH 7 0
BBX 10 12 -2 -3
BITMAP
0000
0000
0400
0000
1E00
0400
0800
1000
1E00
0000
0000
0000
ENDCHAR
STARTCHAR uni005A
ENCODING 381
SWIDTH 525 0
DWIDTH 7 0
BBX 10 12 -2 -3
BITMAP
0A00
0400
0000
1E00
0200
0400
0800
1000
1E00
0000
0000
0000
ENDCHAR
STARTCHAR uni007A
ENCODING 382
SWIDTH 525 0
DWIDTH 7 0
BBX 10 12 -2 -3
BITMAP
0000
0A00
0400
0000
1E00
0400
0800
1000
1E00
0000
0000
0000
ENDCHAR
STARTCHAR LATIN SMALL LETTER LONG S
ENCODING 383
SWIDTH 525 0
DWIDTH 7 0
BBX 10 12 -2 -3
BITMAP
0000
0000
0600
0800
1800
0800
0800
0800
0800
0000
0000
0000
ENDCHAR
STARTCHAR uni0062
ENCODING 384
SWIDTH 525 0
DWIDTH 7 0
BBX 10 12 -2 -3
BITMAP
0000
0000
3800
1000
1C00
1200
1200
1200
1C00
0000
0000
0000
ENDCHAR
STARTCHAR uni0042
ENCODING 385
SWIDTH 525 0
DWIDTH 7 0
BBX 10 12 -2 -3
BITMAP
0000
0000
0000
3C00
1200
1C00
1200
1200
1C00
0000
0000
0000
ENDCHAR
STARTCHAR uni0042
ENCODING 386
SWIDTH 525 0
DWIDTH 7 0
BBX 10 12 -2 -3
BITMAP
0000
1C00
1400
1000
1E00
1100
1100
1100
1E00
0000
0000
0000
ENDCHAR
STARTCHAR uni0042
ENCODING 387
SWIDTH 525 0
DWIDTH 7 0
BBX 10 12 -2 -3
BITMAP
0000
1C00
1400
1000
1C00
1200
1200
1200
1C00
0000
0000
0000
ENDCHAR
STARTCHAR uni0062
ENCODING 388
SWIDTH 525 0
DWIDTH 7 0
BBX 10 12 -2 -3
BITMAP
0000
0000
1000
3000
1E00
1100
1100
1100
1E00
0000
0000
0000
ENDCHAR
STARTCHAR uni0062
ENCODING 389
SWIDTH 525 0
DWIDTH 7 0
BBX 10 12 -2 -3
BITMAP
0000
0000
1000
3000
1C00
1200
1200
1200
1C00
0000
0000
0000
ENDCHAR
STARTCHAR uni0043
ENCODING 390
SWIDTH 525 0
DWIDTH 7 0
BBX 10 12 -2 -3
BITMAP
0000
0000
0000
1C00
0200
0200
0200
0200
1C00
0000
0000
0000
ENDCHAR
STARTCHAR uni0043
ENCODING 391
SWIDTH 525 0
DWIDTH 7 0
BBX 10 12 -2 -3
BITMAP
0000
0000
0100
0E00
1000
1000
1000
1000
0E00
0000
0000
0000
ENDCHAR
STARTCHAR uni0063
ENCODING 392
SWIDTH 525 0
DWIDTH 7 0
BBX 10 12 -2 -3
BITMAP
0000
0000
0000
0000
0E00
1000
1000
1000
0E00
0000
0000
0000
ENDCHAR
STARTCHAR uni0044
ENCODING 393
SWIDTH 525 0
DWIDTH 7 0
BBX 10 12 -2 -3
BITMAP
0000
0000
0000
1C00
1200
3A00
1200
1200
1C00
0000
0000
0000
ENDCHAR
STARTCHAR uni0044
ENCODING 394
SWIDTH 525 0
DWIDTH 7 0
BBX 10 12 -2 -3
BITMAP
0000
0000
0000
3C00
5200
1200
1200
1200
1C00
0000
0000
0000
ENDCHAR
STARTCHAR uni0042
ENCODING 395
SWIDTH 525 0
DWIDTH 7 0
BBX 10 12 -2 -3
BITMAP
0000
0700
0500
0100
0F00
1100
1100
1300
0D00
0000
0000
0000
ENDCHAR
STARTCHAR uni0042
ENCODING 396
SWIDTH 525 0
DWIDTH 7 0
BBX 10 12 -2 -3
BITMAP
0000
0E00
0A00
0200
0E00
1200
1200
1600
0A00
0000
0000
0000
ENDCHAR
STARTCHAR uni0045
ENCODING 398
SWIDTH 525 0
DWIDTH 7 0
BBX 10 12 -2 -3
BITMAP
0000
0000
0000
1E00
2200
0E00
0200
0200
1E00
0000
0000
0000
ENDCHAR
STARTCHAR uni0065
ENCODING 399
SWIDTH 525 0
DWIDTH 7 0
BBX 10 12 -2 -3
BITMAP
0000
0000
0000
0000
1C00
0200
1E00
1200
0C00
0000
0000
0000
ENDCHAR
STARTCHAR char1028
ENCODING 400
SWIDTH 525 0
DWIDTH 7 0
BBX 10 12 -2 -3
BITMAP
0000
0000
0000
0C00
1200
0800
1000
1200
0C00
0000
0000
0000
ENDCHAR
STARTCHAR uni0066
ENCODING 402
SWIDTH 525 0
DWIDTH 7 0
BBX 10 12 -2 -3
BITMAP
0000
0000
0600
0800
0C00
0800
0800
0800
0800
1000
0000
0000
ENDCHAR
STARTCHAR uni0047
ENCODING 403
SWIDTH 525 0
DWIDTH 7 0
BBX 10 12 -2 -3
BITMAP
0000
0000
0000
0EC0
1140
1000
1600
1200
0E00
0000
0000
0000
ENDCHAR
STARTCHAR uni0049
ENCODING 407
SWIDTH 525 0
DWIDTH 7 0
BBX 10 12 -2 -3
BITMAP
0000
1C00
0000
1C00
0800
0800
0800
0800
1C00
0000
0000
0000
ENDCHAR
STARTCHAR uni0049
ENCODING 410
SWIDTH 525 0
DWIDTH 7 0
BBX 10 12 -2 -3
BITMAP
0000
0000
1800
0800
0800
1C00
0800
0800
0800
0000
0000
0000
ENDCHAR
STARTCHAR uni006E
ENCODING 414
SWIDTH 525 0
DWIDTH 7 0
BBX 10 12 -2 -3
BITMAP
0000
0000
0000
0000
1C00
1200
1200
1200
1200
0200
0000
0000
ENDCHAR
STARTCHAR GREEK SMALL LETTER THETA
ENCODING 415
SWIDTH 525 0
DWIDTH 7 0
BBX 10 12 -2 -3
BITMAP
0000
0000
0000
0000
1800
2400
3C00
2400
1800
0000
0000
0000
ENDCHAR
STARTCHAR uni004F
ENCODING 416
SWIDTH 525 0
DWIDTH 7 0
BBX 10 12 -2 -3
BITMAP
0000
0080
0080
0D00
1200
1200
1200
1200
0C00
0000
0000
0000
ENDCHAR
STARTCHAR uni006F
ENCODING 417
SWIDTH 525 0
DWIDTH 7 0
BBX 10 12 -2 -3
BITMAP
0000
0080
0080
0100
0C00
1200
1200
1200
0C00
0000
0000
0000
ENDCHAR
STARTCHAR uni004F
ENCODING 418
SWIDTH 525 0
DWIDTH 7 0
BBX 10 12 -2 -3
BITMAP
0000
0000
0100
0C80
1280
1280
1280
1280
0C80
0000
0000
0000
ENDCHAR
STARTCHAR uni006F
ENCODING 419
SWIDTH 525 0
DWIDTH 7 0
BBX 10 12 -2 -3
BITMAP
0000
0000
0000
0100
0C80
1280
1280
1280
0C80
0000
0000
0000
ENDCHAR
STARTCHAR uni0050
ENCODING 420
SWIDTH 525 0
DWIDTH 7 0
BBX 10 12 -2 -3
BITMAP
0000
0000
0000
7C00
5200
1200
1C00
1000
1000
0000
0000
0000
ENDCHAR
STARTCHAR uni0070
ENCODING 421
SWIDTH 525 0
DWIDTH 7 0
BBX 10 12 -2 -3
BITMAP
0000
0000
0180
0280
1C00
1200
1200
1200
1C00
1000
1000
0000
ENDCHAR
STARTCHAR uni0053
ENCODING 423
SWIDTH 525 0
DWIDTH 7 0
BBX 10 12 -2 -3
BITMAP
0000
0000
0000
1C00
0200
0C00
1000
1000
0E00
0000
0000
0000
ENDCHAR
STARTCHAR uni0073
ENCODING 424
SWIDTH 525 0
DWIDTH 7 0
BBX 10 12 -2 -3
BITMAP
0000
0000
0000
0000
1C00
0200
0C00
1000
0E00
0000
0000
0000
ENDCHAR
STARTCHAR GREEK CAPITAL LETTER SIGMA
ENCODING 425
SWIDTH 525 0
DWIDTH 7 0
BBX 10 12 -2 -3
BITMAP
0000
0000
0000
3E00
1200
0800
1000
2200
3E00
0000
0000
0000
ENDCHAR
STARTCHAR uni0074
ENCODING 427
SWIDTH 525 0
DWIDTH 7 0
BBX 10 12 -2 -3
BITMAP
0000
0000
0000
0800
1C00
0800
0800
0800
0400
0800
0000
0000
ENDCHAR
STARTCHAR uni0054
ENCODING 428
SWIDTH 525 0
DWIDTH 7 0
BBX 10 12 -2 -3
BITMAP
0000
0000
0000
3E00
0A00
0800
0800
0800
0800
0000
0000
0000
ENDCHAR
STARTCHAR uni0054
ENCODING 430
SWIDTH 525 0
DWIDTH 7 0
BBX 10 12 -2 -3
BITMAP
0000
0000
0000
3E00
2A00
0800
0800
0800
0800
0000
0000
0000
ENDCHAR
STARTCHAR GREEK SMALL LETTER PI
ENCODING 480
SWIDTH 525 0
DWIDTH 7 0
BBX 10 12 -2 -3
BITMAP
0000
0000
0000
0000
1F00
0A00
0A00
0A00
0A00
0000
0000
0000
ENDCHAR
STARTCHAR uni0061
ENCODING 592
SWIDTH 525 0
DWIDTH 7 0
BBX 10 12 -2 -3
BITMAP
0000
0000
0000
0000
1400
1A00
1200
1200
1C00
0000
0000
0000
ENDCHAR
STARTCHAR uni0061
ENCODING 593
SWIDTH 525 0
DWIDTH 7 0
BBX 10 12 -2 -3
BITMAP
0000
0000
0000
0000
0A00
1600
1200
1600
0A00
0000
0000
0000
ENDCHAR
STARTCHAR uni0061
ENCODING 594
SWIDTH 525 0
DWIDTH 7 0
BBX 10 12 -2 -3
BITMAP
0000
0000
0000
0000
1400
1A00
1200
1A00
1400
0000
0000
0000
ENDCHAR
STARTCHAR uni0062
ENCODING 595
SWIDTH 525 0
DWIDTH 7 0
BBX 10 12 -2 -3
BITMAP
0000
0000
1000
1000
1C00
1200
1200
1200
1C00
0000
0000
0000
ENDCHAR
STARTCHAR uni0063
ENCODING 596
SWIDTH 525 0
DWIDTH 7 0
BBX 10 12 -2 -3
BITMAP
0000
0000
0000
0000
0C00
1200
1000
1200
0C00
0000
0000
0000
ENDCHAR
STARTCHAR uni0063
ENCODING 597
SWIDTH 525 0
DWIDTH 7 0
BBX 10 12 -2 -3
BITMAP
0000
0000
0000
0000
0C00
1200
1000
1600
0C00
0000
0000
0000
ENDCHAR
STARTCHAR uni0064
ENCODING 598
SWIDTH 525 0
DWIDTH 7 0
BBX 10 12 -2 -3
BITMAP
0000
0000
0200
0200
0E00
1200
1200
1600
0A00
0100
0000
0000
ENDCHAR
STARTCHAR uni0064
ENCODING 599
SWIDTH 525 0
DWIDTH 7 0
BBX 10 12 -2 -3
BITMAP
0000
0100
0200
0200
0E00
1200
1200
1600
0A00
0000
0000
0000
ENDCHAR
STARTCHAR uni0065
ENCODING 600
SWIDTH 525 0
DWIDTH 7 0
BBX 10 12 -2 -3
BITMAP
0000
0000
0000
0000
0C00
1200
1E00
0200
1C00
0000
0000
0000
ENDCHAR
STARTCHAR uni0065
ENCODING 601
SWIDTH 525 0
DWIDTH 7 0
BBX 10 12 -2 -3
BITMAP
0000
0000
0000
0000
1C00
0200
1E00
1200
0C00
0000
0000
0000
ENDCHAR
STARTCHAR uni0065
ENCODING 602
SWIDTH 525 0
DWIDTH 7 0
BBX 10 12 -2 -3
BITMAP
0000
0000
0000
0000
1D00
0200
1E00
1200
0C00
0000
0000
0000
ENDCHAR
STARTCHAR uni0033
ENCODING 603
SWIDTH 525 0
DWIDTH 7 0
BBX 10 12 -2 -3
BITMAP
0000
0000
0000
0E00
1000
0C00
1000
1000
0E00
0000
0000
0000
ENDCHAR
STARTCHAR uni0033
ENCODING 604
SWIDTH 525 0
DWIDTH 7 0
BBX 10 12 -2 -3
BITMAP
0000
0000
0000
1C00
0200
0C00
0200
0200
1C00
0000
0000
0000
ENDCHAR
STARTCHAR uni0033
ENCODING 605
SWIDTH 525 0
DWIDTH 7 0
BBX 10 12 -2 -3
BITMAP
0000
0000
0000
1D00
0200
0C00
0200
0200
1C00
0000
0000
0000
ENDCHAR
STARTCHAR char223
ENCODING 606
SWIDTH 525 0
DWIDTH 7 0
BBX 10 12 -2 -3
BITMAP
0000
0000
0000
0C00
1200
1400
1200
1200
0C00
0000
0000
0000
ENDCHAR
STARTCHAR uni006A
ENCODING 607
SWIDTH 525 0
DWIDTH 7 0
BBX 10 12 -2 -3
BITMAP
0000
0000
0000
0000
0C00
0400
0600
0C00
0400
0400
1800
0000
ENDCHAR
STARTCHAR uni0067
ENCODING 608
SWIDTH 525 0
DWIDTH 7 0
BBX 10 12 -2 -3
BITMAP
0000
0000
0000
0100
0E00
1200
1200
1600
0A00
0200
0C00
0000
ENDCHAR
STARTCHAR uni0067
ENCODING 609
SWIDTH 525 0
DWIDTH 7 0
BBX 10 12 -2 -3
BITMAP
0000
0000
0000
0000
0E00
1200
1200
1600
0A00
0200
0C00
0000
ENDCHAR
STARTCHAR uni0047
ENCODING 610
SWIDTH 525 0
DWIDTH 7 0
BBX 10 12 -2 -3
BITMAP
0000
0000
0000
0000
0E00
1000
1600
1200
0E00
0000
0000
0000
ENDCHAR
STARTCHAR uni0076
ENCODING 611
SWIDTH 525 0
DWIDTH 7 0
BBX 10 12 -2 -3
BITMAP
0000
0000
0000
0000
1200
1200
1200
0C00
0C00
1200
0C00
0000
ENDCHAR
STARTCHAR uni0076
ENCODING 612
SWIDTH 525 0
DWIDTH 7 0
BBX 10 12 -2 -3
BITMAP
0000
0000
0000
0000
2100
1200
1200
0C00
0C00
1200
0C00
0000
ENDCHAR
STARTCHAR uni0068
ENCODING 613
SWIDTH 525 0
DWIDTH 7 0
BBX 10 12 -2 -3
BITMAP
0000
0000
1200
1200
1200
1200
0E00
0200
0200
0000
0000
0000
ENDCHAR
STARTCHAR uni0068
ENCODING 614
SWIDTH 525 0
DWIDTH 7 0
BBX 10 12 -2 -3
BITMAP
0000
0C00
1000
1000
1C00
1200
1200
1200
1200
0000
0000
0000
ENDCHAR
STARTCHAR uni0068
ENCODING 615
SWIDTH 525 0
DWIDTH 7 0
BBX 10 12 -2 -3
BITMAP
0000
0C00
1000
1000
1C00
1200
1200
1200
1200
0400
0000
0000
ENDCHAR
STARTCHAR uni0069
ENCODING 616
SWIDTH 525 0
DWIDTH 7 0
BBX 10 12 -2 -3
BITMAP
0000
0000
0400
0000
0C00
0400
0E00
0400
0400
0000
0000
0000
ENDCHAR
STARTCHAR uni0069
ENCODING 617
SWIDTH 525 0
DWIDTH 7 0
BBX 10 12 -2 -3
BITMAP
0000
0000
0000
0000
0C00
0400
0400
0400
0400
0200
0000
0000
ENDCHAR
STARTCHAR uni0069
ENCODING 618
SWIDTH 525 0
DWIDTH 7 0
BBX 10 12 -2 -3
BITMAP
0000
0000
0000
0000
1C00
0800
0800
0800
1C00
0000
0000
0000
ENDCHAR
STARTCHAR uni006C
ENCODING 619
SWIDTH 525 0
DWIDTH 7 0
BBX 10 12 -2 -3
BITMAP
0000
0000
0C00
0400
0400
0D00
1600
0400
0400
0000
0000
0000
ENDCHAR
STARTCHAR uni006C
ENCODING 620
SWIDTH 525 0
DWIDTH 7 0
BBX 10 12 -2 -3
BITMAP
0000
0000
0C00
0400
0C00
1400
0E00
0400
0400
0000
0000
0000
ENDCHAR
STARTCHAR uni006C
ENCODING 621
SWIDTH 525 0
DWIDTH 7 0
BBX 10 12 -2 -3
BITMAP
0000
0000
0C00
0400
0400
0400
0400
0400
0400
0200
0000
0000
ENDCHAR
STARTCHAR LATIN SMALL LETTER LEZH
ENCODING 622
SWIDTH 525 0
DWIDTH 7 0
BBX 10 12 -2 -3
BITMAP
0000
0000
2000
3E00
2200
2400
2C00
2200
1200
0C00
0000
0000
ENDCHAR
STARTCHAR uni006D
ENCODING 623
SWIDTH 525 0
DWIDTH 7 0
BBX 10 12 -2 -3
BITMAP
0000
0000
0000
0000
1200
1200
1200
1E00
1200
0000
0000
0000
ENDCHAR
STARTCHAR uni006D
ENCODING 624
SWIDTH 525 0
DWIDTH 7 0
BBX 10 12 -2 -3
BITMAP
0000
0000
0000
0000
1200
1200
1200
1E00
1200
0200
0000
0000
ENDCHAR
STARTCHAR uni006D
ENCODING 625
SWIDTH 525 0
DWIDTH 7 0
BBX 10 12 -2 -3
BITMAP
0000
0000
0000
0000
1200
1E00
1600
1200
1200
0400
0000
0000
ENDCHAR
STARTCHAR uni006E
ENCODING 626
SWIDTH 525 0
DWIDTH 7 0
BBX 10 12 -2 -3
BITMAP
0000
0000
0000
0000
1C00
1200
1200
1200
1200
2000
0000
0000
ENDCHAR
STARTCHAR uni006E
ENCODING 627
SWIDTH 525 0
DWIDTH 7 0
BBX 10 12 -2 -3
BITMAP
0000
0000
0000
0000
1C00
1200
1200
1200
1200
0100
0000
0000
ENDCHAR
STARTCHAR GREEK SMALL LETTER PAMPHYLIAN DIGAMMA
ENCODING 628
SWIDTH 525 0
DWIDTH 7 0
BBX 10 12 -2 -3
BITMAP
0000
0000
0000
0000
1200
1A00
1600
1200
1200
0000
0000
0000
ENDCHAR
STARTCHAR LATIN SMALL LETTER BARRED O
ENCODING 629
SWIDTH 525 0
DWIDTH 7 0
BBX 10 12 -2 -3
BITMAP
0000
0000
0000
0000
0C00
1200
1E00
1200
0C00
0000
0000
0000
ENDCHAR
STARTCHAR char230
ENCODING 630
SWIDTH 525 0
DWIDTH 7 0
BBX 10 12 -2 -3
BITMAP
0000
0000
0000
0000
0F00
1280
1380
1200
0F80
0000
0000
0000
ENDCHAR
STARTCHAR GREEK SMALL LETTER OMEGA WITH TONOS
ENCODING 631
SWIDTH 525 0
DWIDTH 7 0
BBX 10 12 -2 -3
BITMAP
0000
0000
0000
0000
1C00
2200
2200
2A00
3600
0000
0000
0000
ENDCHAR
STARTCHAR GREEK CAPITAL LETTER PHI
ENCODING 632
SWIDTH 525 0
DWIDTH 7 0
BBX 10 12 -2 -3
BITMAP
0000
0000
0800
1C00
2A00
2A00
2A00
1C00
0800
0000
0000
0000
ENDCHAR
STARTCHAR uni0072
ENCODING 633
SWIDTH 525 0
DWIDTH 7 0
BBX 10 12 -2 -3
BITMAP
0000
0000
0000
0000
0200
0200
0200
0600
1A00
0000
0000
0000
ENDCHAR
STARTCHAR uni0072
ENCODING 634
SWIDTH 525 0
DWIDTH 7 0
BBX 10 12 -2 -3
BITMAP
0000
0000
0000
0200
0200
0200
0200
0600
1A00
0000
0000
0000
ENDCHAR
STARTCHAR uni0072
ENCODING 635
SWIDTH 525 0
DWIDTH 7 0
BBX 10 12 -2 -3
BITMAP
0000
0000
0000
0000
0200
0200
0200
0600
1A00
0100
0000
0000
ENDCHAR
STARTCHAR uni0072
ENCODING 636
SWIDTH 525 0
DWIDTH 7 0
BBX 10 12 -2 -3
BITMAP
0000
0000
0000
1600
1800
1000
1000
1000
1000
0000
0000
0000
ENDCHAR
STARTCHAR uni0072
ENCODING 637
SWIDTH 525 0
DWIDTH 7 0
BBX 10 12 -2 -3
BITMAP
0000
0000
0000
1600
1800
1000
1000
1000
1000
0800
0000
0000
ENDCHAR
STARTCHAR uni0072
ENCODING 638
SWIDTH 525 0
DWIDTH 7 0
BBX 10 12 -2 -3
BITMAP
0000
0000
0000
0000
0C00
1200
1000
1000
1000
0000
0000
0000
ENDCHAR
STARTCHAR uni0072
ENCODING 639
SWIDTH 525 0
DWIDTH 7 0
BBX 10 12 -2 -3
BITMAP
0000
0000
0000
0000
0C00
1200
0200
0200
0200
0000
0000
0000
ENDCHAR
STARTCHAR char1071
ENCODING 640
SWIDTH 525 0
DWIDTH 7 0
BBX 10 12 -2 -3
BITMAP
0000
0000
0000
0E00
1200
1200
0E00
1200
1200
0000
0000
0000
ENDCHAR
STARTCHAR char1071
ENCODING 641
SWIDTH 525 0
DWIDTH 7 0
BBX 10 12 -2 -3
BITMAP
0000
0000
0000
1200
1200
1C00
1200
1200
1C00
0000
0000
0000
ENDCHAR
STARTCHAR uni0073
ENCODING 642
SWIDTH 525 0
DWIDTH 7 0
BBX 10 12 -2 -3
BITMAP
0000
0000
0000
0000
0E00
1000
0C00
0200
1C00
1000
0800
0000
ENDCHAR
STARTCHAR uni0066
ENCODING 643
SWIDTH 525 0
DWIDTH 7 0
BBX 10 12 -2 -3
BITMAP
0000
0000
0600
0800
0800
0800
0800
0800
0800
3000
0000
0000
ENDCHAR
STARTCHAR uni0066
ENCODING 644
SWIDTH 525 0
DWIDTH 7 0
BBX 10 12 -2 -3
BITMAP
0000
0000
0600
0800
0800
1C00
0800
0800
0800
3000
0000
0000
ENDCHAR
STARTCHAR uni0066
ENCODING 645
SWIDTH 525 0
DWIDTH 7 0
BBX 10 12 -2 -3
BITMAP
0000
0000
0000
1000
0800
0800
0800
0800
0800
0400
0000
0000
ENDCHAR
STARTCHAR uni0066
ENCODING 646
SWIDTH 525 0
DWIDTH 7 0
BBX 10 12 -2 -3
BITMAP
0000
0000
0400
0800
0800
0800
0800
1800
2C00
1200
0000
0000
ENDCHAR
STARTCHAR uni0066
ENCODING 647
SWIDTH 525 0
DWIDTH 7 0
BBX 10 12 -2 -3
BITMAP
0000
0000
1800
0400
0400
0E00
0400
0400
0400
0000
0000
0000
ENDCHAR
STARTCHAR uni0075
ENCODING 648
SWIDTH 525 0
DWIDTH 7 0
BBX 10 12 -2 -3
BITMAP
0000
0000
0000
0000
1200
1E00
1200
1200
0E00
0000
0000
0000
ENDCHAR
STARTCHAR uni0075
ENCODING 649
SWIDTH 525 0
DWIDTH 7 0
BBX 10 12 -2 -3
BITMAP
0000
0000
0000
0000
1200
0C00
1200
1200
0E00
0000
0000
0000
ENDCHAR
STARTCHAR uni0076
ENCODING 650
SWIDTH 525 0
DWIDTH 7 0
BBX 10 12 -2 -3
BITMAP
0000
0000
0000
0000
1400
1200
1200
0C00
0C00
0000
0000
0000
ENDCHAR
STARTCHAR uni0076
ENCODING 651
SWIDTH 525 0
DWIDTH 7 0
BBX 10 12 -2 -3
BITMAP
0000
0000
0000
0000
0C00
0C00
1200
1200
1200
0000
0000
0000
ENDCHAR
STARTCHAR uni0076
ENCODING 652
SWIDTH 525 0
DWIDTH 7 0
BBX 10 12 -2 -3
BITMAP
0000
0000
0000
0000
0C00
0C00
1200
1200
2100
0000
0000
0000
ENDCHAR
STARTCHAR uni006D
ENCODING 653
SWIDTH 525 0
DWIDTH 7 0
BBX 10 12 -2 -3
BITMAP
0000
0000
0000
0000
1200
1E00
1600
1200
1200
0000
0000
0000
ENDCHAR
STARTCHAR uni0079
ENCODING 654
SWIDTH 525 0
DWIDTH 7 0
BBX 10 12 -2 -3
BITMAP
0000
0000
0000
0000
0C00
1000
1C00
1200
1200
1200
1200
0000
ENDCHAR
STARTCHAR uni0059
ENCODING 655
SWIDTH 525 0
DWIDTH 7 0
BBX 10 12 -2 -3
BITMAP
0000
0000
0000
0000
0000
2200
1400
0800
0800
0000
0000
0000
ENDCHAR
STARTCHAR uni007A
ENCODING 656
SWIDTH 525 0
DWIDTH 7 0
BBX 10 12 -2 -3
BITMAP
0000
0000
0000
0000
1E00
0400
0800
1000
1E00
0200
0400
0000
ENDCHAR
STARTCHAR uni007A
ENCODING 657
SWIDTH 525 0
DWIDTH 7 0
BBX 10 12 -2 -3
BITMAP
0000
0000
0000
0000
1E00
0400
0800
1400
1E00
0400
0000
0000
ENDCHAR
STARTCHAR uni007A
ENCODING 658
SWIDTH 525 0
DWIDTH 7 0
BBX 10 12 -2 -3
BITMAP
0000
0000
0000
0000
1E00
0400
0800
0400
0200
1200
0C00
0000
ENDCHAR
STARTCHAR uni007A
ENCODING 659
SWIDTH 525 0
DWIDTH 7 0
BBX 10 12 -2 -3
BITMAP
0000
0000
0000
0000
1E00
0400
0800
0400
0A00
1600
0C00
0000
ENDCHAR
STARTCHAR LATIN LETTER GLOTTAL STOP
ENCODING 660
SWIDTH 525 0
DWIDTH 7 0
BBX 10 12 -2 -3
BITMAP
0000
0000
1C00
2200
0200
0400
0800
0800
0800
0000
0000
0000
ENDCHAR
STARTCHAR LATIN LETTER PHARYNGEAL VOICED FRICATIVE
ENCODING 661
SWIDTH 525 0
DWIDTH 7 0
BBX 10 12 -2 -3
BITMAP
0000
0000
1C00
2200
2000
1000
0800
0800
0800
0000
0000
0000
ENDCHAR
STARTCHAR LATIN LETTER INVERTED GLOTTAL STOP
ENCODING 662
SWIDTH 525 0
DWIDTH 7 0
BBX 10 12 -2 -3
BITMAP
0000
0000
0800
0800
0800
0400
0200
2200
1C00
0000
0000
0000
ENDCHAR
STARTCHAR uni0043
ENCODING 663
SWIDTH 525 0
DWIDTH 7 0
BBX 10 12 -2 -3
BITMAP
0000
0000
0000
0E00
1000
1000
1000
1000
1000
0E00
0000
0000
ENDCHAR
STARTCHAR LATIN LETTER BILABIAL CLICK
ENCODING 664
SWIDTH 525 0
DWIDTH 7 0
BBX 10 12 -2 -3
BITMAP
0000
0000
0000
0000
1C00
2200
2A00
2200
1C00
0000
0000
0000
ENDCHAR
STARTCHAR LATIN LETTER SMALL CAPITAL B
ENCODING 665
SWIDTH 525 0
DWIDTH 7 0
BBX 10 12 -2 -3
BITMAP
0000
0000
0000
0000
1C00
1200
1C00
1200
1C00
0000
0000
0000
ENDCHAR
STARTCHAR LATIN SMALL LETTER CLOSED OPEN E
ENCODING 666
SWIDTH 525 0
DWIDTH 7 0
BBX 10 12 -2 -3
BITMAP
0000
0000
0000
0000
0C00
1200
0E00
1200
0C00
0000
0000
0000
ENDCHAR
STARTCHAR uni0047
ENCODING 667
SWIDTH 525 0
DWIDTH 7 0
BBX 10 12 -2 -3
BITMAP
0000
0000
0000
0100
0E00
1000
1600
1200
0E00
0000
0000
0000
ENDCHAR
STARTCHAR uni0048
ENCODING 668
SWIDTH 525 0
DWIDTH 7 0
BBX 10 12 -2 -3
BITMAP
0000
0000
0000
0000
1200
1200
1E00
1200
1200
0000
0000
0000
ENDCHAR
STARTCHAR uni006A
ENCODING 669
SWIDTH 525 0
DWIDTH 7 0
BBX 10 12 -2 -3
BITMAP
0000
0000
0400
0000
0C00
0400
0400
0400
0E00
1400
1800
0000
ENDCHAR
STARTCHAR uni006B
ENCODING 670
SWIDTH 525 0
DWIDTH 7 0
BBX 10 12 -2 -3
BITMAP
0000
0000
1200
1200
0E00
0A00
1200
0200
0200
0000
0000
0000
ENDCHAR
STARTCHAR LATIN LETTER SMALL CAPITAL L
ENCODING 671
SWIDTH 525 0
DWIDTH 7 0
BBX 10 12 -2 -3
BITMAP
0000
0000
0000
0000
1000
1000
1000
1000
1E00
0000
0000
0000
ENDCHAR
STARTCHAR uni0071
ENCODING 672
SWIDTH 525 0
DWIDTH 7 0
BBX 10 12 -2 -3
BITMAP
0000
0000
0000
0100
0E00
1200
1200
1200
0E00
0200
0200
0000
ENDCHAR
STARTCHAR LATIN LETTER GLOTTAL STOP WITH STROKE
ENCODING 673
SWIDTH 525 0
DWIDTH 7 0
BBX 10 12 -2 -3
BITMAP
0000
0000
1C00
2200
0200
0400
0800
1C00
0800
0000
0000
0000
ENDCHAR
STARTCHAR LATIN LETTER REVERSED GLOTTAL STOP WITH STROKE
ENCODING 674
SWIDTH 525 0
DWIDTH 7 0
BBX 10 12 -2 -3
BITMAP
0000
0000
1C00
2200
2000
1000
0800
1C00
0800
0000
0000
0000
ENDCHAR
STARTCHAR LATIN SMALL LETTER DZ DIGRAPH
ENCODING 675
SWIDTH 525 0
DWIDTH 7 0
BBX 10 12 -2 -3
BITMAP
0000
0000
0800
0800
1F00
2900
2A00
2C00
1F00
0000
0000
0000
ENDCHAR
STARTCHAR LATIN SMALL LETTER DEZH DIGRAPH
ENCODING 676
SWIDTH 525 0
DWIDTH 7 0
BBX 10 12 -2 -3
BITMAP
0000
0000
0800
0800
1F00
2900
2A00
2900
1D00
0200
0000
0000
ENDCHAR
STARTCHAR LATIN SMALL LETTER DZ DIGRAPH WITH CURL
ENCODING 677
SWIDTH 525 0
DWIDTH 7 0
BBX 10 12 -2 -3
BITMAP
0000
0000
0800
0800
1F00
2900
2A00
2D00
1F00
0400
0000
0000
ENDCHAR
STARTCHAR LATIN SMALL LETTER TS DIGRAPH
ENCODING 678
SWIDTH 525 0
DWIDTH 7 0
BBX 10 12 -2 -3
BITMAP
0000
0000
0000
1000
3F00
1800
1600
1100
0E00
0000
0000
0000
ENDCHAR
STARTCHAR LATIN SMALL LETTER TESH DIGRAPH
ENCODING 679
SWIDTH 525 0
DWIDTH 7 0
BBX 10 12 -2 -3
BITMAP
0000
0000
0200
1400
3C00
1400
1400
1400
0C00
0400
0800
0000
ENDCHAR
STARTCHAR LATIN SMALL LETTER TC DIGRAPH WITH CURL
ENCODING 680
SWIDTH 525 0
DWIDTH 7 0
BBX 10 12 -2 -3
BITMAP
0000
0000
0000
1000
3B00
1400
1600
1500
0F00
0400
0000
0000
ENDCHAR
STARTCHAR LATIN SMALL LETTER FENG DIGRAPH
ENCODING 681
SWIDTH 525 0
DWIDTH 7 0
BBX 10 12 -2 -3
BITMAP
0000
0000
0800
1000
1000
3E00
1500
1500
1500
0200
0400
0000
ENDCHAR
STARTCHAR LATIN SMALL LETTER LS DIGRAPH
ENCODING 682
SWIDTH 525 0
DWIDTH 7 0
BBX 10 12 -2 -3
BITMAP
0000
0000
2000
2000
2E00
3000
2C00
2200
3C00
0000
0000
0000
ENDCHAR
STARTCHAR LATIN SMALL LETTER LZ DIGRAPH
ENCODING 683
SWIDTH 525 0
DWIDTH 7 0
BBX 10 12 -2 -3
BITMAP
0000
0000
2000
2000
3E00
2400
2800
3000
3E00
0000
0000
0000
ENDCHAR
STARTCHAR LATIN LETTER BILABIAL PERCUSSIVE
ENCODING 684
SWIDTH 525 0
DWIDTH 7 0
BBX 10 12 -2 -3
BITMAP
0000
0000
0000
2A00
2A00
1400
2A00
2A00
1400
0000
0000
0000
ENDCHAR
STARTCHAR LATIN LETTER BIDENTAL PERCUSSIVE
ENCODING 685
SWIDTH 525 0
DWIDTH 7 0
BBX 10 12 -2 -3
BITMAP
0000
0000
0000
0000
3E00
2200
0000
3E00
2200
0000
0000
0000
ENDCHAR
STARTCHAR uni0068
ENCODING 686
SWIDTH 525 0
DWIDTH 7 0
BBX 10 12 -2 -3
BITMAP
0000
0000
2200
1200
1200
1200
0E00
0200
0200
0000
0000
0000
ENDCHAR
STARTCHAR uni0068
ENCODING 687
SWIDTH 525 0
DWIDTH 7 0
BBX 10 12 -2 -3
BITMAP
0000
0000
2200
1200
1200
1200
0E00
0200
0200
0100
0000
0000
ENDCHAR
STARTCHAR uni003C
ENCODING 706
SWIDTH 525 0
DWIDTH 7 0
BBX 10 12 -2 -3
BITMAP
0000
0000
0000
0000
0400
0800
1000
0800
0400
0000
0000
0000
ENDCHAR
STARTCHAR uni003C
ENCODING 707
SWIDTH 525 0
DWIDTH 7 0
BBX 10 12 -2 -3
BITMAP
0000
0000
0000
0000
1000
0800
0400
0800
1000
0000
0000
0000
ENDCHAR
STARTCHAR uni005E
ENCODING 708
SWIDTH 525 0
DWIDTH 7 0
BBX 10 12 -2 -3
BITMAP
0000
0000
0000
0000
2200
1400
0800
0000
0000
0000
0000
0000
ENDCHAR
STARTCHAR uni005E
ENCODING 709
SWIDTH 525 0
DWIDTH 7 0
BBX 10 12 -2 -3
BITMAP
0000
0000
0000
0000
0800
1400
2200
0000
0000
0000
0000
0000
ENDCHAR
STARTCHAR MODIFIER LETTER CIRCUMFLEX ACCENT
ENCODING 710
SWIDTH 525 0
DWIDTH 7 0
BBX 10 12 -2 -3
BITMAP
0000
0800
1400
2200
0000
0000
0000
0000
0000
0000
0000
0000
ENDCHAR
STARTCHAR CARON
ENCODING 711
SWIDTH 525 0
DWIDTH 7 0
BBX 10 12 -2 -3
BITMAP
2200
1400
0800
0000
0000
0000
0000
0000
0000
0000
0000
0000
ENDCHAR
STARTCHAR MODIFIER LETTER VERTICAL LINE
ENCODING 712
SWIDTH 525 0
DWIDTH 7 0
BBX 10 12 -2 -3
BITMAP
0000
0000
0800
0800
0000
0000
0000
0000
0000
0000
0000
0000
ENDCHAR
STARTCHAR MODIFIER LETTER MACRON
ENCODING 713
SWIDTH 525 0
DWIDTH 7 0
BBX 10 12 -2 -3
BITMAP
0000
0000
1800
0000
0000
0000
0000
0000
0000
0000
0000
0000
ENDCHAR
STARTCHAR MODIFIER LETTER ACUTE ACCENT
ENCODING 714
SWIDTH 525 0
DWIDTH 7 0
BBX 10 12 -2 -3
BITMAP
0000
0000
0400
0800
0000
0000
0000
0000
0000
0000
0000
0000
ENDCHAR
STARTCHAR MODIFIER LETTER GRAVE ACCENT
ENCODING 715
SWIDTH 525 0
DWIDTH 7 0
BBX 10 12 -2 -3
BITMAP
0000
0000
0800
0400
0000
0000
0000
0000
0000
0000
0000
0000
ENDCHAR
STARTCHAR BREVE
ENCODING 728
SWIDTH 525 0
DWIDTH 7 0
BBX 10 12 -2 -3
BITMAP
0000
1100
0E00
0000
0000
0000
0000
0000
0000
0000
0000
0000
ENDCHAR
STARTCHAR DOT ABOVE
ENCODING 729
SWIDTH 525 0
DWIDTH 7 0
BBX 10 12 -2 -3
BITMAP
0C00
0C00
0000
0000
0000
0000
0000
0000
0000
0000
0000
0000
ENDCHAR
STARTCHAR RING ABOVE
ENCODING 730
SWIDTH 525 0
DWIDTH 7 0
BBX 10 12 -2 -3
BITMAP
0000
0800
1400
0800
0000
0000
0000
0000
0000
0000
0000
0000
ENDCHAR
STARTCHAR OGONEK
ENCODING 731
SWIDTH 525 0
DWIDTH 7 0
BBX 10 12 -2 -3
BITMAP
0000
0000
0000
0000
0000
0000
0000
0000
0400
0800
0400
0000
ENDCHAR
STARTCHAR SMALL TILDE
ENCODING 732
SWIDTH 525 0
DWIDTH 7 0
BBX 10 12 -2 -3
BITMAP
0000
1A00
2C00
0000
0000
0000
0000
0000
0000
0000
0000
0000
ENDCHAR
STARTCHAR DOUBLE ACUTE ACCENT
ENCODING 733
SWIDTH 525 0
DWIDTH 7 0
BBX 10 12 -2 -3
BITMAP
0A00
0A00
1400
0000
0000
0000
0000
0000
0000
0000
0000
0000
ENDCHAR
STARTCHAR MODIFIER LETTER DOUBLE APOSTROPHE
ENCODING 750
SWIDTH 525 0
DWIDTH 7 0
BBX 10 12 -2 -3
BITMAP
0000
0000
1200
1200
1200
0000
0000
0000
0000
0000
0000
0000
ENDCHAR
STARTCHAR COMBINING GREEK KORONIS
ENCODING 835
SWIDTH 525 0
DWIDTH 7 0
BBX 10 12 -2 -3
BITMAP
0000
0000
0800
0800
0800
1000
0000
0000
0000
0000
0000
0000
ENDCHAR
STARTCHAR COMBINING DOUBLE BREVE BELOW
ENCODING 860
SWIDTH 525 0
DWIDTH 7 0
BBX 10 12 -2 -3
BITMAP
0000
0000
0000
0000
0000
0000
0000
0000
2200
1C00
0000
0000
ENDCHAR
STARTCHAR COMBINING DOUBLE INVERTED BREVE
ENCODING 865
SWIDTH 525 0
DWIDTH 7 0
BBX 10 12 -2 -3
BITMAP
1C00
2200
0000
0000
0000
0000
0000
0000
0000
0000
0000
0000
ENDCHAR
STARTCHAR GREEK CAPITAL LETTER HETA
ENCODING 880
SWIDTH 525 0
DWIDTH 7 0
BBX 10 12 -2 -3
BITMAP
0000
0000
2000
2000
2000
3C00
2000
2000
2000
0000
0000
0000
ENDCHAR
STARTCHAR GREEK SMALL LETTER HETA
ENCODING 881
SWIDTH 525 0
DWIDTH 7 0
BBX 10 12 -2 -3
BITMAP
0000
0000
0000
2000
1000
1000
1E00
1000
1000
0000
0000
0000
ENDCHAR
STARTCHAR GREEK CAPITAL LETTER ARCHAIC SAMPI
ENCODING 882
SWIDTH 525 0
DWIDTH 7 0
BBX 10 12 -2 -3
BITMAP
0000
0000
0000
3E00
2A00
0800
0800
0800
0800
0000
0000
0000
ENDCHAR
STARTCHAR GREEK SMALL LETTER ARCHAIC SAMPI
ENCODING 883
SWIDTH 525 0
DWIDTH 7 0
BBX 10 12 -2 -3
BITMAP
0000
0000
0000
0000
3E00
2A00
0800
0800
0800
0000
0000
0000
ENDCHAR
STARTCHAR GREEK NUMERAL SIGN
ENCODING 884
SWIDTH 525 0
DWIDTH 7 0
BBX 10 12 -2 -3
BITMAP
0000
0C00
1800
0000
0000
0000
0000
0000
0000
0000
0000
0000
ENDCHAR
STARTCHAR GREEK LOWER NUMERAL SIGN
ENCODING 885
SWIDTH 525 0
DWIDTH 7 0
BBX 10 12 -2 -3
BITMAP
0000
0000
0000
0000
0000
0000
0000
0C00
1800
3000
0000
0000
ENDCHAR
STARTCHAR uni004E
ENCODING 886
SWIDTH 525 0
DWIDTH 7 0
BBX 10 12 -2 -3
BITMAP
0000
0000
0000
1200
1600
1600
1A00
1A00
1200
0000
0000
0000
ENDCHAR
STARTCHAR GREEK SMALL LETTER PAMPHYLIAN DIGAMMA
ENCODING 887
SWIDTH 525 0
DWIDTH 7 0
BBX 10 12 -2 -3
BITMAP
0000
0000
0000
0000
1200
1600
1A00
1200
1200
0100
0000
0000
ENDCHAR
STARTCHAR GREEK YPOGEGRAMMENI
ENCODING 890
SWIDTH 525 0
DWIDTH 7 0
BBX 10 12 -2 -3
BITMAP
0000
0000
0000
0000
0000
0000
0000
0000
0000
1000
1800
0000
ENDCHAR
STARTCHAR GREEK SMALL REVERSED LUNATE SIGMA SYMBOL
ENCODING 891
SWIDTH 525 0
DWIDTH 7 0
BBX 10 12 -2 -3
BITMAP
0000
0000
0000
0000
1C00
2200
0200
2200
1C00
0000
0000
0000
ENDCHAR
STARTCHAR GREEK SMALL DOTTED LUNATE SIGMA SYMBOL
ENCODING 892
SWIDTH 525 0
DWIDTH 7 0
BBX 10 12 -2 -3
BITMAP
0000
0000
0000
0000
1C00
2200
2800
2200
1C00
0000
0000
0000
ENDCHAR
STARTCHAR GREEK SMALL REVERSED DOTTED LUNATE SIGMA SYMBOL
ENCODING 893
SWIDTH 525 0
DWIDTH 7 0
BBX 10 12 -2 -3
BITMAP
0000
0000
0000
0000
1C00
2200
0A00
2200
1C00
0000
0000
0000
ENDCHAR
STARTCHAR uni003B
ENCODING 894
SWIDTH 525 0
DWIDTH 7 0
BBX 10 12 -2 -3
BITMAP
0000
0000
0000
0000
0800
0800
0000
0800
0800
1000
0000
0000
ENDCHAR
STARTCHAR uni037F
ENCODING 895
SWIDTH 525 0
DWIDTH 7 0
BBX 10 12 -2 -3
BITMAP
0000
0000
0000
0000
0000
3F00
3F00
3F00
0000
0000
0000
0000
ENDCHAR
STARTCHAR uni037F
ENCODING 896
SWIDTH 525 0
DWIDTH 7 0
BBX 10 12 -2 -3
BITMAP
0000
0000
0000
0000
0000
0000
3E00
3E00
3E00
0000
0000
0000
ENDCHAR
STARTCHAR uni0380
ENCODING 897
SWIDTH 525 0
DWIDTH 7 0
BBX 10 12 -2 -3
BITMAP
0000
0000
0000
0000
0000
0000
2A00
1400
2A00
0000
0000
0000
ENDCHAR
STARTCHAR GREEK TONOS
ENCODING 900
SWIDTH 525 0
DWIDTH 7 0
BBX 10 12 -2 -3
BITMAP
0000
0400
0C00
0800
0000
0000
0000
0000
0000
0000
0000
0000
ENDCHAR
STARTCHAR GREEK DIALYTIKA TONOS
ENCODING 901
SWIDTH 525 0
DWIDTH 7 0
BBX 10 12 -2 -3
BITMAP
0000
0400
2D00
0800
0000
0000
0000
0000
0000
0000
0000
0000
ENDCHAR
STARTCHAR GREEK CAPITAL LETTER ALPHA WITH TONOS
ENCODING 902
SWIDTH 525 0
DWIDTH 7 0
BBX 10 12 -2 -3
BITMAP
0400
0800
0000
0C00
1200
1200
1E00
1200
1200
0000
0000
0000
ENDCHAR
STARTCHAR GREEK ANO TELEIA
ENCODING 903
SWIDTH 525 0
DWIDTH 7 0
BBX 10 12 -2 -3
BITMAP
0000
0000
0000
0000
0C00
0C00
0000
0000
0000
0000
0000
0000
ENDCHAR
STARTCHAR char201
ENCODING 904
SWIDTH 525 0
DWIDTH 7 0
BBX 10 12 -2 -3
BITMAP
0000
0400
0800
1E00
1000
1C00
1000
1000
1E00
0000
0000
0000
ENDCHAR
STARTCHAR GREEK CAPITAL LETTER ETA WITH TONOS
ENCODING 905
SWIDTH 525 0
DWIDTH 7 0
BBX 10 12 -2 -3
BITMAP
0000
0000
0800
1200
3200
1E00
1200
1200
1200
0000
0000
0000
ENDCHAR
STARTCHAR GREEK CAPITAL LETTER IOTA WITH TONOS
ENCODING 906
SWIDTH 525 0
DWIDTH 7 0
BBX 10 12 -2 -3
BITMAP
0000
0000
0800
1C00
2800
0800
0800
0800
1C00
0000
0000
0000
ENDCHAR
STARTCHAR GREEK CAPITAL LETTER OMICRON WITH TONOS
ENCODING 908
SWIDTH 525 0
DWIDTH 7 0
BBX 10 12 -2 -3
BITMAP
0000
1000
2000
0C00
1200
1200
1200
1200
0C00
0000
0000
0000
ENDCHAR
STARTCHAR GREEK CAPITAL LETTER UPSILON WITH TONOS
ENCODING 910
SWIDTH 525 0
DWIDTH 7 0
BBX 10 12 -2 -3
BITMAP
0000
0000
1000
2A00
0A00
0A00
0400
0400
0400
0000
0000
0000
ENDCHAR
STARTCHAR GREEK CAPITAL LETTER OMEGA WITH TONOS
ENCODING 911
SWIDTH 525 0
DWIDTH 7 0
BBX 10 12 -2 -3
BITMAP
0000
1000
2000
1C00
2200
2200
2200
1400
3600
0000
0000
0000
ENDCHAR
STARTCHAR GREEK SMALL LETTER IOTA WITH DIALYTIKA AND TONOS
ENCODING 912
SWIDTH 525 0
DWIDTH 7 0
BBX 10 12 -2 -3
BITMAP
0400
2D00
0800
0000
0800
0800
0800
0800
0800
0000
0000
0000
ENDCHAR
STARTCHAR GREEK CAPITAL LETTER ALPHA
ENCODING 913
SWIDTH 525 0
DWIDTH 7 0
BBX 10 12 -2 -3
BITMAP
0000
0000
0000
0C00
1200
1200
1E00
1200
1200
0000
0000
0000
ENDCHAR
STARTCHAR uni0042
ENCODING 914
SWIDTH 525 0
DWIDTH 7 0
BBX 10 12 -2 -3
BITMAP
0000
0000
0000
1C00
1200
1C00
1200
1200
1C00
0000
0000
0000
ENDCHAR
STARTCHAR GREEK CAPITAL LETTER GAMMA
ENCODING 915
SWIDTH 525 0
DWIDTH 7 0
BBX 10 12 -2 -3
BITMAP
0000
0000
0000
0000
1E00
1000
1000
1000
1000
0000
0000
0000
ENDCHAR
STARTCHAR GREEK CAPITAL LETTER DELTA
ENCODING 916
SWIDTH 525 0
DWIDTH 7 0
BBX 10 12 -2 -3
BITMAP
0000
0000
0000
0800
0800
1400
1400
2200
3E00
0000
0000
0000
ENDCHAR
STARTCHAR uni0045
ENCODING 917
SWIDTH 525 0
DWIDTH 7 0
BBX 10 12 -2 -3
BITMAP
0000
0000
0000
1E00
1000
1C00
1000
1000
1E00
0000
0000
0000
ENDCHAR
STARTCHAR uni005A
ENCODING 918
SWIDTH 525 0
DWIDTH 7 0
BBX 10 12 -2 -3
BITMAP
0000
0000
0000
1E00
0200
0400
0800
1000
1E00
0000
0000
0000
ENDCHAR
STARTCHAR uni0048
ENCODING 919
SWIDTH 525 0
DWIDTH 7 0
BBX 10 12 -2 -3
BITMAP
0000
0000
0000
1200
1200
1E00
1200
1200
1200
0000
0000
0000
ENDCHAR
STARTCHAR GREEK CAPITAL LETTER THETA
ENCODING 920
SWIDTH 525 0
DWIDTH 7 0
BBX 10 12 -2 -3
BITMAP
0000
0000
0000
0C00
1200
1600
1A00
1200
0C00
0000
0000
0000
ENDCHAR
STARTCHAR GREEK CAPITAL LETTER IOTA
ENCODING 921
SWIDTH 525 0
DWIDTH 7 0
BBX 10 12 -2 -3
BITMAP
0000
0000
0000
1C00
0800
0800
0800
0800
1C00
0000
0000
0000
ENDCHAR
STARTCHAR uni004B
ENCODING 922
SWIDTH 525 0
DWIDTH 7 0
BBX 10 12 -2 -3
BITMAP
0000
0000
0000
1200
1400
1800
1400
1200
1200
0000
0000
0000
ENDCHAR
STARTCHAR GREEK CAPITAL LETTER LAMDA
ENCODING 923
SWIDTH 525 0
DWIDTH 7 0
BBX 10 12 -2 -3
BITMAP
0000
0000
0000
0800
0800
1400
1400
2200
2200
0000
0000
0000
ENDCHAR
STARTCHAR uni004D
ENCODING 924
SWIDTH 525 0
DWIDTH 7 0
BBX 10 12 -2 -3
BITMAP
0000
0000
0000
1200
1E00
1600
1200
1200
1200
0000
0000
0000
ENDCHAR
STARTCHAR uni004E
ENCODING 925
SWIDTH 525 0
DWIDTH 7 0
BBX 10 12 -2 -3
BITMAP
0000
0000
0000
1200
1A00
1A00
1600
1600
1200
0000
0000
0000
ENDCHAR
STARTCHAR GREEK CAPITAL LETTER XI
ENCODING 926
SWIDTH 525 0
DWIDTH 7 0
BBX 10 12 -2 -3
BITMAP
0000
0000
0000
0000
3E00
0000
1C00
0000
3E00
0000
0000
0000
ENDCHAR
STARTCHAR GREEK CAPITAL LETTER OMICRON
ENCODING 927
SWIDTH 525 0
DWIDTH 7 0
BBX 10 12 -2 -3
BITMAP
0000
0000
0000
0C00
1200
1200
1200
1200
0C00
0000
0000
0000
ENDCHAR
STARTCHAR char1055
ENCODING 928
SWIDTH 525 0
DWIDTH 7 0
BBX 10 12 -2 -3
BITMAP
0000
0000
0000
1E00
1200
1200
1200
1200
1200
0000
0000
0000
ENDCHAR
STARTCHAR uni0050
ENCODING 929
SWIDTH 525 0
DWIDTH 7 0
BBX 10 12 -2 -3
BITMAP
0000
0000
0000
1C00
1200
1200
1C00
1000
1000
0000
0000
0000
ENDCHAR
STARTCHAR GREEK CAPITAL LETTER SIGMA
ENCODING 931
SWIDTH 525 0
DWIDTH 7 0
BBX 10 12 -2 -3
BITMAP
0000
0000
0000
3E00
1000
0800
1000
2000
3E00
0000
0000
0000
ENDCHAR
STARTCHAR GREEK CAPITAL LETTER TAU
ENCODING 932
SWIDTH 525 0
DWIDTH 7 0
BBX 10 12 -2 -3
BITMAP
0000
0000
0000
3E00
0800
0800
0800
0800
0800
0000
0000
0000
ENDCHAR
STARTCHAR uni0059
ENCODING 933
SWIDTH 525 0
DWIDTH 7 0
BBX 10 12 -2 -3
BITMAP
0000
0000
0000
2200
2200
1400
0800
0800
0800
0000
0000
0000
ENDCHAR
STARTCHAR GREEK CAPITAL LETTER PHI
ENCODING 934
SWIDTH 525 0
DWIDTH 7 0
BBX 10 12 -2 -3
BITMAP
0000
0000
0800
1C00
2A00
2A00
2A00
1C00
0800
0000
0000
0000
ENDCHAR
STARTCHAR uni0058
ENCODING 935
SWIDTH 525 0
DWIDTH 7 0
BBX 10 12 -2 -3
BITMAP
0000
0000
0000
1200
1200
0C00
1200
1200
1200
0000
0000
0000
ENDCHAR
STARTCHAR GREEK CAPITAL LETTER PSI
ENCODING 936
SWIDTH 525 0
DWIDTH 7 0
BBX 10 12 -2 -3
BITMAP
0000
0000
0000
2A00
2A00
2A00
1C00
0800
0800
0000
0000
0000
ENDCHAR
STARTCHAR GREEK CAPITAL LETTER OMEGA
ENCODING 937
SWIDTH 525 0
DWIDTH 7 0
BBX 10 12 -2 -3
BITMAP
0000
0000
0000
1C00
2200
2200
2200
1400
3600
0000
0000
0000
ENDCHAR
STARTCHAR GREEK CAPITAL LETTER IOTA WITH DIALYTIKA
ENCODING 938
SWIDTH 525 0
DWIDTH 7 0
BBX 10 12 -2 -3
BITMAP
0000
1400
0000
0800
0800
0800
0800
0800
0800
0000
0000
0000
ENDCHAR
STARTCHAR GREEK CAPITAL LETTER UPSILON WITH DIALYTIKA
ENCODING 939
SWIDTH 525 0
DWIDTH 7 0
BBX 10 12 -2 -3
BITMAP
0000
1400
0000
2200
2200
1400
0800
0800
0800
0000
0000
0000
ENDCHAR
STARTCHAR char225
ENCODING 940
SWIDTH 525 0
DWIDTH 7 0
BBX 10 12 -2 -3
BITMAP
0000
0400
0800
0000
0E00
1200
1200
1600
0A00
0000
0000
0000
ENDCHAR
STARTCHAR GREEK SMALL LETTER EPSILON WITH TONOS
ENCODING 941
SWIDTH 525 0
DWIDTH 7 0
BBX 10 12 -2 -3
BITMAP
0000
0800
1000
0000
1C00
2000
3800
2000
1C00
0000
0000
0000
ENDCHAR
STARTCHAR uni006E
ENCODING 942
SWIDTH 525 0
DWIDTH 7 0
BBX 10 12 -2 -3
BITMAP
0000
0400
0800
0000
1C00
1200
1200
1200
1200
0200
0000
0000
ENDCHAR
STARTCHAR GREEK SMALL LETTER IOTA WITH TONOS
ENCODING 943
SWIDTH 525 0
DWIDTH 7 0
BBX 10 12 -2 -3
BITMAP
0000
0400
0800
0000
1800
0800
0800
0800
0800
0000
0000
0000
ENDCHAR
STARTCHAR GREEK SMALL LETTER UPSILON WITH DIALYTIKA AND TONOS
ENCODING 944
SWIDTH 525 0
DWIDTH 7 0
BBX 10 12 -2 -3
BITMAP
0000
0400
2D00
0800
1200
1200
1200
1200
0E00
0000
0000
0000
ENDCHAR
STARTCHAR uni0061
ENCODING 945
SWIDTH 525 0
DWIDTH 7 0
BBX 10 12 -2 -3
BITMAP
0000
0000
0000
0000
0E00
1200
1200
1600
0A00
0000
0000
0000
ENDCHAR
STARTCHAR char223
ENCODING 946
SWIDTH 525 0
DWIDTH 7 0
BBX 10 12 -2 -3
BITMAP
0000
0000
0000
1800
2400
2800
2400
2400
2800
2000
0000
0000
ENDCHAR
STARTCHAR uni0076
ENCODING 947
SWIDTH 525 0
DWIDTH 7 0
BBX 10 12 -2 -3
BITMAP
0000
0000
0000
0000
1200
1200
0A00
0C00
0A00
0A00
0400
0000
ENDCHAR
STARTCHAR GREEK SMALL LETTER DELTA
ENCODING 948
SWIDTH 525 0
DWIDTH 7 0
BBX 10 12 -2 -3
BITMAP
0000
0000
1E00
1000
0C00
1200
1200
1200
0C00
0000
0000
0000
ENDCHAR
STARTCHAR GREEK SMALL LETTER EPSILON
ENCODING 949
SWIDTH 525 0
DWIDTH 7 0
BBX 10 12 -2 -3
BITMAP
0000
0000
0000
0000
1C00
2000
3800
2000
1C00
0000
0000
0000
ENDCHAR
STARTCHAR GREEK SMALL LETTER ZETA
ENCODING 950
SWIDTH 525 0
DWIDTH 7 0
BBX 10 12 -2 -3
BITMAP
0000
0000
0000
3C00
0800
1000
2000
2000
1E00
0400
0000
0000
ENDCHAR
STARTCHAR GREEK SMALL LETTER ETA
ENCODING 951
SWIDTH 525 0
DWIDTH 7 0
BBX 10 12 -2 -3
BITMAP
0000
0000
0000
0000
1C00
1200
1200
1200
1200
0200
0000
0000
ENDCHAR
STARTCHAR GREEK SMALL LETTER THETA
ENCODING 952
SWIDTH 525 0
DWIDTH 7 0
BBX 10 12 -2 -3
BITMAP
0000
0000
0000
0000
1800
2400
3C00
2400
1800
0000
0000
0000
ENDCHAR
STARTCHAR GREEK SMALL LETTER IOTA
ENCODING 953
SWIDTH 525 0
DWIDTH 7 0
BBX 10 12 -2 -3
BITMAP
0000
0000
0000
0000
0C00
0400
0400
0400
0400
0000
0000
0000
ENDCHAR
STARTCHAR uni006B
ENCODING 954
SWIDTH 525 0
DWIDTH 7 0
BBX 10 12 -2 -3
BITMAP
0000
0000
0000
0000
1200
1400
1C00
1200
1200
0000
0000
0000
ENDCHAR
STARTCHAR GREEK SMALL LETTER LAMDA
ENCODING 955
SWIDTH 525 0
DWIDTH 7 0
BBX 10 12 -2 -3
BITMAP
0000
0000
1000
1000
0800
0C00
0C00
1200
1200
0000
0000
0000
ENDCHAR
STARTCHAR uni0075
ENCODING 956
SWIDTH 525 0
DWIDTH 7 0
BBX 10 12 -2 -3
BITMAP
0000
0000
0000
0000
1200
1200
1200
1200
1D00
1000
0000
0000
ENDCHAR
STARTCHAR uni0076
ENCODING 957
SWIDTH 525 0
DWIDTH 7 0
BBX 10 12 -2 -3
BITMAP
0000
0000
0000
0000
1200
1200
1200
0C00
0C00
0000
0000
0000
ENDCHAR
STARTCHAR GREEK SMALL LETTER XI
ENCODING 958
SWIDTH 525 0
DWIDTH 7 0
BBX 10 12 -2 -3
BITMAP
0000
0000
0000
1800
2400
1000
2000
2000
1800
0400
0800
0000
ENDCHAR
STARTCHAR GREEK SMALL LETTER OMICRON
ENCODING 959
SWIDTH 525 0
DWIDTH 7 0
BBX 10 12 -2 -3
BITMAP
0000
0000
0000
0000
0C00
1200
1200
1200
0C00
0000
0000
0000
ENDCHAR
STARTCHAR uni0070
ENCODING 961
SWIDTH 525 0
DWIDTH 7 0
BBX 10 12 -2 -3
BITMAP
0000
0000
0000
0000
0C00
1200
1200
1200
1C00
1000
1000
1000
ENDCHAR
STARTCHAR char231
ENCODING 962
SWIDTH 525 0
DWIDTH 7 0
BBX 10 12 -2 -3
BITMAP
0000
0000
0000
0000
0E00
1000
1000
1000
0E00
0400
0800
0000
ENDCHAR
STARTCHAR char240
ENCODING 963
SWIDTH 525 0
DWIDTH 7 0
BBX 10 12 -2 -3
BITMAP
0000
0000
0000
0000
0F00
1200
1200
1200
0C00
0000
0000
0000
ENDCHAR
STARTCHAR GREEK SMALL LETTER TAU
ENCODING 964
SWIDTH 525 0
DWIDTH 7 0
BBX 10 12 -2 -3
BITMAP
0000
0000
0000
0000
1E00
2800
0800
0800
0400
0000
0000
0000
ENDCHAR
STARTCHAR uni0075
ENCODING 965
SWIDTH 525 0
DWIDTH 7 0
BBX 10 12 -2 -3
BITMAP
0000
0000
0000
0000
1200
1200
1200
1200
0E00
0000
0000
0000
ENDCHAR
STARTCHAR GREEK SMALL LETTER PHI
ENCODING 966
SWIDTH 525 0
DWIDTH 7 0
BBX 10 12 -2 -3
BITMAP
0000
0000
0000
0000
1600
1500
1500
1500
0E00
0400
0400
0000
ENDCHAR
STARTCHAR uni0078
ENCODING 967
SWIDTH 525 0
DWIDTH 7 0
BBX 10 12 -2 -3
BITMAP
0000
0000
0000
0000
1200
1200
0C00
1200
1200
0000
0000
0000
ENDCHAR
STARTCHAR GREEK SMALL LETTER PSI
ENCODING 968
SWIDTH 525 0
DWIDTH 7 0
BBX 10 12 -2 -3
BITMAP
0000
0000
0000
0000
1500
1500
1500
0E00
0400
0400
0400
0000
ENDCHAR
STARTCHAR GREEK SMALL LETTER OMEGA
ENCODING 969
SWIDTH 525 0
DWIDTH 7 0
BBX 10 12 -2 -3
BITMAP
0000
0000
0000
0000
1400
2200
2A00
2A00
1400
0000
0000
0000
ENDCHAR
STARTCHAR GREEK SMALL LETTER IOTA WITH DIALYTIKA
ENCODING 970
SWIDTH 525 0
DWIDTH 7 0
BBX 10 12 -2 -3
BITMAP
0000
0000
0A00
0000
0C00
0400
0400
0400
0400
0000
0000
0000
ENDCHAR
STARTCHAR char252
ENCODING 971
SWIDTH 525 0
DWIDTH 7 0
BBX 10 12 -2 -3
BITMAP
0000
0000
1400
0000
1200
1200
1200
1200
0E00
0000
0000
0000
ENDCHAR
STARTCHAR char243
ENCODING 972
SWIDTH 525 0
DWIDTH 7 0
BBX 10 12 -2 -3
BITMAP
0000
0200
0400
0000
0C00
1200
1200
1200
0C00
0000
0000
0000
ENDCHAR
STARTCHAR char250
ENCODING 973
SWIDTH 525 0
DWIDTH 7 0
BBX 10 12 -2 -3
BITMAP
0000
0400
0800
0000
1200
1200
1200
1200
0E00
0000
0000
0000
ENDCHAR
STARTCHAR GREEK SMALL LETTER OMEGA WITH TONOS
ENCODING 974
SWIDTH 525 0
DWIDTH 7 0
BBX 10 12 -2 -3
BITMAP
0000
0800
1000
0000
1400
2200
2A00
3600
2200
0000
0000
0000
ENDCHAR
STARTCHAR uni004B
ENCODING 975
SWIDTH 525 0
DWIDTH 7 0
BBX 10 12 -2 -3
BITMAP
0000
0000
0000
1200
1400
1800
1400
1200
1200
0400
0000
0000
ENDCHAR
STARTCHAR GREEK BETA SYMBOL
ENCODING 976
SWIDTH 525 0
DWIDTH 7 0
BBX 10 12 -2 -3
BITMAP
0000
0000
0000
1800
2400
3800
2400
2400
1800
0000
0000
0000
ENDCHAR
STARTCHAR GREEK THETA SYMBOL
ENCODING 977
SWIDTH 525 0
DWIDTH 7 0
BBX 10 12 -2 -3
BITMAP
0000
0000
0000
0C00
1200
1700
3A00
1200
0C00
0000
0000
0000
ENDCHAR
STARTCHAR uni0059
ENCODING 978
SWIDTH 525 0
DWIDTH 7 0
BBX 10 12 -2 -3
BITMAP
0000
0000
0000
2200
2300
1400
0800
0800
0800
0000
0000
0000
ENDCHAR
STARTCHAR uni0059
ENCODING 979
SWIDTH 525 0
DWIDTH 7 0
BBX 10 12 -2 -3
BITMAP
0000
0000
1000
2200
2300
1400
0800
0800
0800
0000
0000
0000
ENDCHAR
STARTCHAR uni0059
ENCODING 980
SWIDTH 525 0
DWIDTH 7 0
BBX 10 12 -2 -3
BITMAP
0000
1400
0000
2200
2300
1400
0800
0800
0800
0000
0000
0000
ENDCHAR
STARTCHAR GREEK PHI SYMBOL
ENCODING 981
SWIDTH 525 0
DWIDTH 7 0
BBX 10 12 -2 -3
BITMAP
0000
0000
0800
0800
1C00
2A00
2A00
2A00
1C00
0800
0800
0000
ENDCHAR
STARTCHAR GREEK PI SYMBOL
ENCODING 982
SWIDTH 525 0
DWIDTH 7 0
BBX 10 12 -2 -3
BITMAP
0000
0000
0000
0000
3E00
2200
2A00
3600
2200
0000
0000
0000
ENDCHAR
STARTCHAR uni0078
ENCODING 983
SWIDTH 525 0
DWIDTH 7 0
BBX 10 12 -2 -3
BITMAP
0000
0000
0000
0000
1200
1200
0C00
1200
1300
0400
0000
0000
ENDCHAR
STARTCHAR GREEK LETTER ARCHAIC KOPPA
ENCODING 984
SWIDTH 525 0
DWIDTH 7 0
BBX 10 12 -2 -3
BITMAP
0000
0000
0000
1C00
2200
2200
2200
2200
1C00
0800
0800
0000
ENDCHAR
STARTCHAR GREEK SMALL LETTER ARCHAIC KOPPA
ENCODING 985
SWIDTH 525 0
DWIDTH 7 0
BBX 10 12 -2 -3
BITMAP
0000
0000
0000
0000
1C00
2200
2200
2200
1C00
0800
0800
0000
ENDCHAR
STARTCHAR GREEK LETTER STIGMA
ENCODING 986
SWIDTH 525 0
DWIDTH 7 0
BBX 10 12 -2 -3
BITMAP
0000
0000
0000
0E00
1000
1000
1000
1000
0E00
0100
0600
0000
ENDCHAR
STARTCHAR GREEK SMALL LETTER STIGMA
ENCODING 987
SWIDTH 525 0
DWIDTH 7 0
BBX 10 12 -2 -3
BITMAP
0000
0000
0000
0000
0E00
1000
1000
1000
0E00
0100
0600
0000
ENDCHAR
STARTCHAR uni0046
ENCODING 988
SWIDTH 525 0
DWIDTH 7 0
BBX 10 12 -2 -3
BITMAP
0000
0000
0000
1E00
1000
1E00
1200
1000
1000
0000
0000
0000
ENDCHAR
STARTCHAR uni0046
ENCODING 989
SWIDTH 525 0
DWIDTH 7 0
BBX 10 12 -2 -3
BITMAP
0000
0000
0000
0000
1E00
1000
1C00
1400
1000
1000
0000
0000
ENDCHAR
STARTCHAR GREEK LETTER KOPPA
ENCODING 990
SWIDTH 525 0
DWIDTH 7 0
BBX 10 12 -2 -3
BITMAP
0000
0000
0000
0000
2000
1200
1600
1A00
1200
0100
0000
0000
ENDCHAR
STARTCHAR GREEK SMALL LETTER KOPPA
ENCODING 991
SWIDTH 525 0
DWIDTH 7 0
BBX 10 12 -2 -3
BITMAP
0000
0000
0000
0800
1000
2000
3800
0800
1000
2000
0000
0000
ENDCHAR
STARTCHAR GREEK LETTER SAMPI
ENCODING 992
SWIDTH 525 0
DWIDTH 7 0
BBX 10 12 -2 -3
BITMAP
0000
0000
0000
1000
0800
1800
2400
0C00
1400
0400
0000
0000
ENDCHAR
STARTCHAR GREEK SMALL LETTER SAMPI
ENCODING 993
SWIDTH 525 0
DWIDTH 7 0
BBX 10 12 -2 -3
BITMAP
0000
0000
0000
1000
0800
1800
2400
0C00
1400
0400
0000
0000
ENDCHAR
STARTCHAR COPTIC CAPITAL LETTER SHEI
ENCODING 994
SWIDTH 525 0
DWIDTH 7 0
BBX 10 12 -2 -3
BITMAP
0000
0000
0000
1500
1500
1500
1500
0B00
0100
1E00
0000
0000
ENDCHAR
STARTCHAR COPTIC SMALL LETTER SHEI
ENCODING 995
SWIDTH 525 0
DWIDTH 7 0
BBX 10 12 -2 -3
BITMAP
0000
0000
0000
0000
1500
1500
1500
1500
0B00
0100
1E00
0000
ENDCHAR
STARTCHAR COPTIC CAPITAL LETTER FEI
ENCODING 996
SWIDTH 525 0
DWIDTH 7 0
BBX 10 12 -2 -3
BITMAP
0000
0000
1400
2400
2400
1C00
0400
0400
0400
0000
0000
0000
ENDCHAR
STARTCHAR COPTIC SMALL LETTER FEI
ENCODING 997
SWIDTH 525 0
DWIDTH 7 0
BBX 10 12 -2 -3
BITMAP
0000
0000
0000
1400
2400
2400
1C00
0400
0400
0000
0000
0000
ENDCHAR
STARTCHAR COPTIC CAPITAL LETTER KHEI
ENCODING 998
SWIDTH 525 0
DWIDTH 7 0
BBX 10 12 -2 -3
BITMAP
0000
0000
2000
2000
2000
3800
2400
2400
2400
0400
3800
0000
ENDCHAR
STARTCHAR COPTIC SMALL LETTER KHEI
ENCODING 999
SWIDTH 525 0
DWIDTH 7 0
BBX 10 12 -2 -3
BITMAP
0000
0000
0000
0400
1C00
2A00
1200
0200
1C00
2000
0000
0000
ENDCHAR
STARTCHAR uni0053
ENCODING 1000
SWIDTH 525 0
DWIDTH 7 0
BBX 10 12 -2 -3
BITMAP
0000
0000
0000
1C00
0200
0C00
1000
1200
0C00
0000
0000
0000
ENDCHAR
STARTCHAR uni0053
ENCODING 1001
SWIDTH 525 0
DWIDTH 7 0
BBX 10 12 -2 -3
BITMAP
0000
0000
0000
1C00
0200
0C00
1000
1000
0E00
0000
0000
0000
ENDCHAR
STARTCHAR COPTIC CAPITAL LETTER GANGIA
ENCODING 1002
SWIDTH 525 0
DWIDTH 7 0
BBX 10 12 -2 -3
BITMAP
0000
0000
1400
2A00
0800
1400
1400
2200
3E00
0000
0000
0000
ENDCHAR
STARTCHAR COPTIC SMALL LETTER GANGIA
ENCODING 1003
SWIDTH 525 0
DWIDTH 7 0
BBX 10 12 -2 -3
BITMAP
0000
0000
0000
0000
1400
2A00
0800
1400
1C00
0000
0000
0000
ENDCHAR
STARTCHAR COPTIC CAPITAL LETTER SHIMA
ENCODING 1004
SWIDTH 525 0
DWIDTH 7 0
BBX 10 12 -2 -3
BITMAP
0000
0000
1C00
2000
3800
2400
2400
2400
1800
0000
0000
0000
ENDCHAR
STARTCHAR COPTIC SMALL LETTER SHIMA
ENCODING 1005
SWIDTH 525 0
DWIDTH 7 0
BBX 10 12 -2 -3
BITMAP
0000
0000
0000
1800
2000
2800
2400
2400
1800
0000
0000
0000
ENDCHAR
STARTCHAR COPTIC CAPITAL LETTER DEI
ENCODING 1006
SWIDTH 525 0
DWIDTH 7 0
BBX 10 12 -2 -3
BITMAP
0000
0000
0000
0800
1C00
2A00
0800
0800
0800
0000
0000
0000
ENDCHAR
STARTCHAR COPTIC SMALL LETTER DEI
ENCODING 1007
SWIDTH 525 0
DWIDTH 7 0
BBX 10 12 -2 -3
BITMAP
0000
0000
0000
0C00
0800
3E00
2800
0800
1800
0000
0000
0000
ENDCHAR
STARTCHAR uni0078
ENCODING 1008
SWIDTH 525 0
DWIDTH 7 0
BBX 10 12 -2 -3
BITMAP
0000
0000
0000
0000
1200
1400
0C00
0A00
1200
0000
0000
0000
ENDCHAR
STARTCHAR GREEK RHO SYMBOL
ENCODING 1009
SWIDTH 525 0
DWIDTH 7 0
BBX 10 12 -2 -3
BITMAP
0000
0000
0000
0000
1800
2400
2400
2400
3800
2000
1800
0400
ENDCHAR
STARTCHAR uni0063
ENCODING 1010
SWIDTH 525 0
DWIDTH 7 0
BBX 10 12 -2 -3
BITMAP
0000
0000
0000
0000
0E00
1000
1000
1000
0E00
0000
0000
0000
ENDCHAR
STARTCHAR uni006A
ENCODING 1011
SWIDTH 525 0
DWIDTH 7 0
BBX 10 12 -2 -3
BITMAP
0000
0000
0400
0000
0C00
0400
0400
0400
0400
0400
1800
0000
ENDCHAR
STARTCHAR GREEK CAPITAL LETTER THETA
ENCODING 1012
SWIDTH 525 0
DWIDTH 7 0
BBX 10 12 -2 -3
BITMAP
0000
0000
0000
0C00
1200
1600
1A00
1200
0C00
0000
0000
0000
ENDCHAR
STARTCHAR GREEK LUNATE EPSILON SYMBOL
ENCODING 1013
SWIDTH 525 0
DWIDTH 7 0
BBX 10 12 -2 -3
BITMAP
0000
0000
0000
0000
1C00
2000
3800
2000
1C00
0000
0000
0000
ENDCHAR
STARTCHAR GREEK REVERSED LUNATE EPSILON SYMBOL
ENCODING 1014
SWIDTH 525 0
DWIDTH 7 0
BBX 10 12 -2 -3
BITMAP
0000
0000
0000
0000
3800
0400
1C00
0400
3800
0000
0000
0000
ENDCHAR
STARTCHAR GREEK CAPITAL LETTER SHO
ENCODING 1015
SWIDTH 525 0
DWIDTH 7 0
BBX 10 12 -2 -3
BITMAP
0000
0000
0000
2000
3800
2400
2400
3800
2000
0000
0000
0000
ENDCHAR
STARTCHAR GREEK SMALL LETTER SHO
ENCODING 1016
SWIDTH 525 0
DWIDTH 7 0
BBX 10 12 -2 -3
BITMAP
0000
0000
0000
2000
3800
2400
2400
3800
2000
2000
0000
0000
ENDCHAR
STARTCHAR uni0043
ENCODING 1017
SWIDTH 525 0
DWIDTH 7 0
BBX 10 12 -2 -3
BITMAP
0000
0000
0000
0E00
1000
1000
1000
1000
0E00
0000
0000
0000
ENDCHAR
STARTCHAR uni004D
ENCODING 1018
SWIDTH 525 0
DWIDTH 7 0
BBX 10 12 -2 -3
BITMAP
0000
0000
0000
1200
1E00
1600
1200
1200
1200
0000
0000
0000
ENDCHAR
STARTCHAR GREEK SMALL LETTER SAN
ENCODING 1019
SWIDTH 525 0
DWIDTH 7 0
BBX 10 12 -2 -3
BITMAP
0000
0000
0000
0000
0000
1200
1E00
1600
1200
1000
1000
0000
ENDCHAR
STARTCHAR uni0070
ENCODING 1020
SWIDTH 525 0
DWIDTH 7 0
BBX 10 12 -2 -3
BITMAP
0000
0000
0000
0000
0C00
1200
1200
1200
1C00
1000
1800
1000
ENDCHAR
STARTCHAR uni0043
ENCODING 1021
SWIDTH 525 0
DWIDTH 7 0
BBX 10 12 -2 -3
BITMAP
0000
0000
0000
0E00
1100
0100
0100
1100
0E00
0000
0000
0000
ENDCHAR
STARTCHAR uni0043
ENCODING 1022
SWIDTH 525 0
DWIDTH 7 0
BBX 10 12 -2 -3
BITMAP
0000
0000
0000
0E00
1000
1400
1000
1000
0E00
0000
0000
0000
ENDCHAR
STARTCHAR uni0043
ENCODING 1023
SWIDTH 525 0
DWIDTH 7 0
BBX 10 12 -2 -3
BITMAP
0000
0000
0000
1C00
0200
0A00
0200
0200
1C00
0000
0000
0000
ENDCHAR
STARTCHAR char203
ENCODING 1025
SWIDTH 525 0
DWIDTH 7 0
BBX 10 12 -2 -3
BITMAP
0000
1400
0000
1E00
1000
1C00
1000
1000
1E00
0000
0000
0000
ENDCHAR
STARTCHAR char1026
ENCODING 1026
SWIDTH 525 0
DWIDTH 7 0
BBX 10 12 -2 -3
BITMAP
0000
0000
3800
1000
1C00
1200
1200
1200
1200
0400
0000
0000
ENDCHAR
STARTCHAR char1027
ENCODING 1027
SWIDTH 525 0
DWIDTH 7 0
BBX 10 12 -2 -3
BITMAP
0000
0400
0800
1E00
1000
1000
1000
1000
1000
0000
0000
0000
ENDCHAR
STARTCHAR char1028
ENCODING 1028
SWIDTH 525 0
DWIDTH 7 0
BBX 10 12 -2 -3
BITMAP
0000
0000
0000
1800
2400
3000
2000
2400
1800
0000
0000
0000
ENDCHAR
STARTCHAR char1029
ENCODING 1029
SWIDTH 525 0
DWIDTH 7 0
BBX 10 12 -2 -3
BITMAP
0000
0000
0000
0E00
1000
0C00
0200
0200
1C00
0000
0000
0000
ENDCHAR
STARTCHAR char1030
ENCODING 1030
SWIDTH 525 0
DWIDTH 7 0
BBX 10 12 -2 -3
BITMAP
0000
0000
0000
0800
0800
0800
0800
0800
0800
0000
0000
0000
ENDCHAR
STARTCHAR char1031
ENCODING 1031
SWIDTH 525 0
DWIDTH 7 0
BBX 10 12 -2 -3
BITMAP
0000
0000
1400
0800
0800
0800
0800
0800
0800
0000
0000
0000
ENDCHAR
STARTCHAR char1032
ENCODING 1032
SWIDTH 525 0
DWIDTH 7 0
BBX 10 12 -2 -3
BITMAP
0000
0000
0000
0E00
0200
0200
0200
1200
0C00
0000
0000
0000
ENDCHAR
STARTCHAR char1033
ENCODING 1033
SWIDTH 525 0
DWIDTH 7 0
BBX 10 12 -2 -3
BITMAP
0000
0000
0000
0C00
1400
1600
1500
1500
2600
0000
0000
0000
ENDCHAR
STARTCHAR char1034
ENCODING 1034
SWIDTH 525 0
DWIDTH 7 0
BBX 10 12 -2 -3
BITMAP
0000
0000
0000
1400
1400
1E00
1500
1500
1600
0000
0000
0000
ENDCHAR
STARTCHAR char1035
ENCODING 1035
SWIDTH 525 0
DWIDTH 7 0
BBX 10 12 -2 -3
BITMAP
0000
0000
3C00
1000
1C00
1200
1200
1200
1200
0000
0000
0000
ENDCHAR
STARTCHAR char1036
ENCODING 1036
SWIDTH 525 0
DWIDTH 7 0
BBX 10 12 -2 -3
BITMAP
0000
0000
0400
1A00
1400
1800
1400
1200
1200
0000
0000
0000
ENDCHAR
STARTCHAR char1038
ENCODING 1038
SWIDTH 525 0
DWIDTH 7 0
BBX 10 12 -2 -3
BITMAP
0000
0A00
0400
1200
1200
1200
0E00
0200
0C00
0000
0000
0000
ENDCHAR
STARTCHAR char1039
ENCODING 1039
SWIDTH 525 0
DWIDTH 7 0
BBX 10 12 -2 -3
BITMAP
0000
0000
0000
2200
2200
2200
2200
3E00
0800
0800
0000
0000
ENDCHAR
STARTCHAR char1040
ENCODING 1040
SWIDTH 525 0
DWIDTH 7 0
BBX 10 12 -2 -3
BITMAP
0000
0000
0000
1800
2400
2400
3C00
2400
2400
0000
0000
0000
ENDCHAR
STARTCHAR char1041
ENCODING 1041
SWIDTH 525 0
DWIDTH 7 0
BBX 10 12 -2 -3
BITMAP
0000
0000
1C00
1000
1C00
1200
1200
1200
1C00
0000
0000
0000
ENDCHAR
STARTCHAR char1042
ENCODING 1042
SWIDTH 525 0
DWIDTH 7 0
BBX 10 12 -2 -3
BITMAP
0000
0000
0000
1C00
1200
1C00
1200
1200
1C00
0000
0000
0000
ENDCHAR
STARTCHAR char1043
ENCODING 1043
SWIDTH 525 0
DWIDTH 7 0
BBX 10 12 -2 -3
BITMAP
0000
0000
0000
1E00
1000
1000
1000
1000
1000
0000
0000
0000
ENDCHAR
STARTCHAR char1044
ENCODING 1044
SWIDTH 525 0
DWIDTH 7 0
BBX 10 12 -2 -3
BITMAP
0000
0000
0000
0C00
1400
1400
1400
1400
3E00
2200
0000
0000
ENDCHAR
STARTCHAR uni0045
ENCODING 1045
SWIDTH 525 0
DWIDTH 7 0
BBX 10 12 -2 -3
BITMAP
0000
0000
0000
1E00
1000
1C00
1000
1000
1E00
0000
0000
0000
ENDCHAR
STARTCHAR uni0058
ENCODING 1046
SWIDTH 525 0
DWIDTH 7 0
BBX 10 12 -2 -3
BITMAP
0000
0000
0000
2A00
2A00
1C00
2A00
2A00
2A00
0000
0000
0000
ENDCHAR
STARTCHAR uni0033
ENCODING 1047
SWIDTH 525 0
DWIDTH 7 0
BBX 10 12 -2 -3
BITMAP
0000
0000
0000
0C00
1200
0400
0200
1200
0C00
0000
0000
0000
ENDCHAR
STARTCHAR char1080
ENCODING 1048
SWIDTH 525 0
DWIDTH 7 0
BBX 10 12 -2 -3
BITMAP
0000
0000
0000
1200
1600
1600
1A00
1A00
1200
0000
0000
0000
ENDCHAR
STARTCHAR char1080
ENCODING 1049
SWIDTH 525 0
DWIDTH 7 0
BBX 10 12 -2 -3
BITMAP
0000
0A00
0400
1200
1600
1600
1A00
1A00
1200
0000
0000
0000
ENDCHAR
STARTCHAR uni004B
ENCODING 1050
SWIDTH 525 0
DWIDTH 7 0
BBX 10 12 -2 -3
BITMAP
0000
0000
0000
1200
1400
1800
1400
1200
1200
0000
0000
0000
ENDCHAR
STARTCHAR char1051
ENCODING 1051
SWIDTH 525 0
DWIDTH 7 0
BBX 10 12 -2 -3
BITMAP
0000
0000
0000
0600
0A00
0A00
0A00
0A00
1200
0000
0000
0000
ENDCHAR
STARTCHAR uni004D
ENCODING 1052
SWIDTH 525 0
DWIDTH 7 0
BBX 10 12 -2 -3
BITMAP
0000
0000
0000
1200
1E00
1200
1200
1200
1200
0000
0000
0000
ENDCHAR
STARTCHAR uni0048
ENCODING 1053
SWIDTH 525 0
DWIDTH 7 0
BBX 10 12 -2 -3
BITMAP
0000
0000
0000
1200
1200
1E00
1200
1200
1200
0000
0000
0000
ENDCHAR
STARTCHAR uni004F
ENCODING 1054
SWIDTH 525 0
DWIDTH 7 0
BBX 10 12 -2 -3
BITMAP
0000
0000
0000
0C00
1200
1200
1200
1200
0C00
0000
0000
0000
ENDCHAR
STARTCHAR char1055
ENCODING 1055
SWIDTH 525 0
DWIDTH 7 0
BBX 10 12 -2 -3
BITMAP
0000
0000
0000
1E00
1200
1200
1200
1200
1200
0000
0000
0000
ENDCHAR
STARTCHAR uni0043
ENCODING 1057
SWIDTH 525 0
DWIDTH 7 0
BBX 10 12 -2 -3
BITMAP
0000
0000
0000
0E00
1000
1000
1000
1000
0E00
0000
0000
0000
ENDCHAR
STARTCHAR uni0054
ENCODING 1058
SWIDTH 525 0
DWIDTH 7 0
BBX 10 12 -2 -3
BITMAP
0000
0000
0000
0E00
0400
0400
0400
0400
0400
0000
0000
0000
ENDCHAR
STARTCHAR char1038
ENCODING 1059
SWIDTH 525 0
DWIDTH 7 0
BBX 10 12 -2 -3
BITMAP
0000
0000
0000
1200
1200
1200
0E00
0200
0C00
0000
0000
0000
ENDCHAR
STARTCHAR char1060
ENCODING 1060
SWIDTH 525 0
DWIDTH 7 0
BBX 10 12 -2 -3
BITMAP
0000
0000
0800
1C00
2A00
2A00
2A00
2A00
1C00
0800
0000
0000
ENDCHAR
STARTCHAR uni0058
ENCODING 1061
SWIDTH 525 0
DWIDTH 7 0
BBX 10 12 -2 -3
BITMAP
0000
0000
0000
1200
1200
0C00
1200
1200
1200
0000
0000
0000
ENDCHAR
STARTCHAR char1062
ENCODING 1062
SWIDTH 525 0
DWIDTH 7 0
BBX 10 12 -2 -3
BITMAP
0000
0000
0000
1400
1400
1400
1400
1400
1E00
0200
0000
0000
ENDCHAR
STARTCHAR char1063
ENCODING 1063
SWIDTH 525 0
DWIDTH 7 0
BBX 10 12 -2 -3
BITMAP
0000
0000
0000
2400
2400
1C00
0400
0400
0400
0000
0000
0000
ENDCHAR
STARTCHAR char1064
ENCODING 1064
SWIDTH 525 0
DWIDTH 7 0
BBX 10 12 -2 -3
BITMAP
0000
0000
0000
2A00
2A00
2A00
2A00
2A00
3C00
0000
0000
0000
ENDCHAR
STARTCHAR char1065
ENCODING 1065
SWIDTH 525 0
DWIDTH 7 0
BBX 10 12 -2 -3
BITMAP
0000
0000
0000
2A00
2A00
2A00
2A00
2A00
3F00
0100
0000
0000
ENDCHAR
STARTCHAR char1066
ENCODING 1066
SWIDTH 525 0
DWIDTH 7 0
BBX 10 12 -2 -3
BITMAP
0000
0000
0000
3000
1000
1000
1800
1400
1800
0000
0000
0000
ENDCHAR
STARTCHAR char1067
ENCODING 1067
SWIDTH 525 0
DWIDTH 7 0
BBX 10 12 -2 -3
BITMAP
0000
0000
0000
1200
1200
1200
1A00
1600
1A00
0000
0000
0000
ENDCHAR
STARTCHAR char1068
ENCODING 1068
SWIDTH 525 0
DWIDTH 7 0
BBX 10 12 -2 -3
BITMAP
0000
0000
0000
1000
1000
1000
1C00
1200
1C00
0000
0000
0000
ENDCHAR
STARTCHAR uni0033
ENCODING 1069
SWIDTH 525 0
DWIDTH 7 0
BBX 10 12 -2 -3
BITMAP
0000
0000
0000
0C00
1200
0600
0200
1200
0C00
0000
0000
0000
ENDCHAR
STARTCHAR char1070
ENCODING 1070
SWIDTH 525 0
DWIDTH 7 0
BBX 10 12 -2 -3
BITMAP
0000
0000
0000
1200
1500
1D00
1500
1500
1200
0000
0000
0000
ENDCHAR
STARTCHAR char1071
ENCODING 1071
SWIDTH 525 0
DWIDTH 7 0
BBX 10 12 -2 -3
BITMAP
0000
0000
0000
0E00
1200
1200
0E00
1200
1200
0000
0000
0000
ENDCHAR
STARTCHAR uni0061
ENCODING 1072
SWIDTH 525 0
DWIDTH 7 0
BBX 10 12 -2 -3
BITMAP
0000
0000
0000
0000
0E00
1200
1200
1600
0A00
0000
0000
0000
ENDCHAR
STARTCHAR char1073
ENCODING 1073
SWIDTH 525 0
DWIDTH 7 0
BBX 10 12 -2 -3
BITMAP
0000
0000
0200
0C00
1000
1C00
1200
1200
1C00
0000
0000
0000
ENDCHAR
STARTCHAR char1074
ENCODING 1074
SWIDTH 525 0
DWIDTH 7 0
BBX 10 12 -2 -3
BITMAP
0000
0000
0000
0000
1C00
1200
1C00
1200
1C00
0000
0000
0000
ENDCHAR
STARTCHAR char1075
ENCODING 1075
SWIDTH 525 0
DWIDTH 7 0
BBX 10 12 -2 -3
BITMAP
0000
0000
0000
0000
1E00
1000
1000
1000
1000
0000
0000
0000
ENDCHAR
STARTCHAR char1044
ENCODING 1076
SWIDTH 525 0
DWIDTH 7 0
BBX 10 12 -2 -3
BITMAP
0000
0000
0000
0C00
1400
1400
1400
1400
3E00
2200
0000
0000
ENDCHAR
STARTCHAR uni0065
ENCODING 1077
SWIDTH 525 0
DWIDTH 7 0
BBX 10 12 -2 -3
BITMAP
0000
0000
0000
0000
0C00
1200
1E00
1000
0E00
0000
0000
0000
ENDCHAR
STARTCHAR uni0058
ENCODING 1078
SWIDTH 525 0
DWIDTH 7 0
BBX 10 12 -2 -3
BITMAP
0000
0000
0000
0000
2A00
2A00
1C00
2A00
2A00
0000
0000
0000
ENDCHAR
STARTCHAR uni0033
ENCODING 1079
SWIDTH 525 0
DWIDTH 7 0
BBX 10 12 -2 -3
BITMAP
0000
0000
0000
0000
0C00
1200
0400
1200
0C00
0000
0000
0000
ENDCHAR
STARTCHAR char1080
ENCODING 1080
SWIDTH 525 0
DWIDTH 7 0
BBX 10 12 -2 -3
BITMAP
0000
0000
0000
0000
1200
1600
1E00
1A00
1200
0000
0000
0000
ENDCHAR
STARTCHAR char1080
ENCODING 1081
SWIDTH 525 0
DWIDTH 7 0
BBX 10 12 -2 -3
BITMAP
0000
0000
0A00
0400
1200
1600
1E00
1A00
1200
0000
0000
0000
ENDCHAR
STARTCHAR uni006B
ENCODING 1082
SWIDTH 525 0
DWIDTH 7 0
BBX 10 12 -2 -3
BITMAP
0000
0000
0000
0000
1200
1400
1C00
1200
1200
0000
0000
0000
ENDCHAR
STARTCHAR char1051
ENCODING 1083
SWIDTH 525 0
DWIDTH 7 0
BBX 10 12 -2 -3
BITMAP
0000
0000
0000
0000
0600
0A00
0A00
0A00
1200
0000
0000
0000
ENDCHAR
STARTCHAR uni006D
ENCODING 1084
SWIDTH 525 0
DWIDTH 7 0
BBX 10 12 -2 -3
BITMAP
0000
0000
0000
0000
1200
1E00
1200
1200
1200
0000
0000
0000
ENDCHAR
STARTCHAR uni006D
ENCODING 1085
SWIDTH 525 0
DWIDTH 7 0
BBX 10 12 -2 -3
BITMAP
0000
0000
0000
0000
1200
1200
1E00
1200
1200
0000
0000
0000
ENDCHAR
STARTCHAR uni006F
ENCODING 1086
SWIDTH 525 0
DWIDTH 7 0
BBX 10 12 -2 -3
BITMAP
0000
0000
0000
0000
0C00
1200
1200
1200
0C00
0000
0000
0000
ENDCHAR
STARTCHAR uni006E
ENCODING 1087
SWIDTH 525 0
DWIDTH 7 0
BBX 10 12 -2 -3
BITMAP
0000
0000
0000
0000
1E00
1200
1200
1200
1200
0000
0000
0000
ENDCHAR
STARTCHAR uni0070
ENCODING 1088
SWIDTH 525 0
DWIDTH 7 0
BBX 10 12 -2 -3
BITMAP
0000
0000
0000
0000
1C00
1200
1200
1200
1C00
1000
1000
0000
ENDCHAR
STARTCHAR uni0063
ENCODING 1089
SWIDTH 525 0
DWIDTH 7 0
BBX 10 12 -2 -3
BITMAP
0000
0000
0000
0000
0E00
1000
1000
1000
0E00
0000
0000
0000
ENDCHAR
STARTCHAR uni0074
ENCODING 1090
SWIDTH 525 0
DWIDTH 7 0
BBX 10 12 -2 -3
BITMAP
0000
0000
0000
0000
0E00
0400
0400
0400
0400
0000
0000
0000
ENDCHAR
STARTCHAR uni0079
ENCODING 1091
SWIDTH 525 0
DWIDTH 7 0
BBX 10 12 -2 -3
BITMAP
0000
0000
0000
0000
1200
1200
1200
1200
0E00
0200
0C00
0000
ENDCHAR
STARTCHAR char1060
ENCODING 1092
SWIDTH 525 0
DWIDTH 7 0
BBX 10 12 -2 -3
BITMAP
0000
0000
0000
0800
1C00
2A00
2A00
2A00
1C00
0800
0000
0000
ENDCHAR
STARTCHAR uni0078
ENCODING 1093
SWIDTH 525 0
DWIDTH 7 0
BBX 10 12 -2 -3
BITMAP
0000
0000
0000
0000
1200
1200
0C00
1200
1200
0000
0000
0000
ENDCHAR
STARTCHAR char1062
ENCODING 1094
SWIDTH 525 0
DWIDTH 7 0
BBX 10 12 -2 -3
BITMAP
0000
0000
0000
0000
1400
1400
1400
1400
1E00
0200
0000
0000
ENDCHAR
STARTCHAR char1063
ENCODING 1095
SWIDTH 525 0
DWIDTH 7 0
BBX 10 12 -2 -3
BITMAP
0000
0000
0000
0000
2400
2400
1C00
0400
0400
0000
0000
0000
ENDCHAR
STARTCHAR char1064
ENCODING 1096
SWIDTH 525 0
DWIDTH 7 0
BBX 10 12 -2 -3
BITMAP
0000
0000
0000
0000
2A00
2A00
2A00
2A00
3C00
0000
0000
0000
ENDCHAR
STARTCHAR char1065
ENCODING 1097
SWIDTH 525 0
DWIDTH 7 0
BBX 10 12 -2 -3
BITMAP
0000
0000
0000
0000
2A00
2A00
2A00
2A00
3F00
0100
0000
0000
ENDCHAR
STARTCHAR char1066
ENCODING 1098
SWIDTH 525 0
DWIDTH 7 0
BBX 10 12 -2 -3
BITMAP
0000
0000
0000
0000
1800
0800
0C00
0A00
0C00
0000
0000
0000
ENDCHAR
STARTCHAR char1067
ENCODING 1099
SWIDTH 525 0
DWIDTH 7 0
BBX 10 12 -2 -3
BITMAP
0000
0000
0000
0000
1200
1200
1A00
1600
1A00
0000
0000
0000
ENDCHAR
STARTCHAR char1068
ENCODING 1100
SWIDTH 525 0
DWIDTH 7 0
BBX 10 12 -2 -3
BITMAP
0000
0000
0000
0000
1000
1000
1C00
1200
1C00
0000
0000
0000
ENDCHAR
STARTCHAR uni0033
ENCODING 1101
SWIDTH 525 0
DWIDTH 7 0
BBX 10 12 -2 -3
BITMAP
0000
0000
0000
0000
0C00
1200
0600
1200
0C00
0000
0000
0000
ENDCHAR
STARTCHAR char1070
ENCODING 1102
SWIDTH 525 0
DWIDTH 7 0
BBX 10 12 -2 -3
BITMAP
0000
0000
0000
0000
1200
1500
1D00
1500
1200
0000
0000
0000
ENDCHAR
STARTCHAR char1071
ENCODING 1103
SWIDTH 525 0
DWIDTH 7 0
BBX 10 12 -2 -3
BITMAP
0000
0000
0000
0000
0E00
1200
0E00
1200
1200
0000
0000
0000
ENDCHAR
STARTCHAR uni0065
ENCODING 1105
SWIDTH 525 0
DWIDTH 7 0
BBX 10 12 -2 -3
BITMAP
0000
0000
1400
0000
0C00
1200
1E00
1000
0E00
0000
0000
0000
ENDCHAR
STARTCHAR char1026
ENCODING 1106
SWIDTH 525 0
DWIDTH 7 0
BBX 10 12 -2 -3
BITMAP
0000
0000
0000
1000
3800
1000
1C00
1200
1200
0400
0000
0000
ENDCHAR
STARTCHAR char1027
ENCODING 1107
SWIDTH 525 0
DWIDTH 7 0
BBX 10 12 -2 -3
BITMAP
0000
0000
0400
0800
1E00
1000
1000
1000
1000
0000
0000
0000
ENDCHAR
STARTCHAR char1028
ENCODING 1108
SWIDTH 525 0
DWIDTH 7 0
BBX 10 12 -2 -3
BITMAP
0000
0000
0000
0000
1800
2400
3000
2400
1800
0000
0000
0000
ENDCHAR
STARTCHAR uni0073
ENCODING 1109
SWIDTH 525 0
DWIDTH 7 0
BBX 10 12 -2 -3
BITMAP
0000
0000
0000
0000
0E00
1000
0C00
0200
1C00
0000
0000
0000
ENDCHAR
STARTCHAR uni0069
ENCODING 1110
SWIDTH 525 0
DWIDTH 7 0
BBX 10 12 -2 -3
BITMAP
0000
0000
0400
0000
0C00
0400
0400
0400
0400
0000
0000
0000
ENDCHAR
STARTCHAR uni0069
ENCODING 1111
SWIDTH 525 0
DWIDTH 7 0
BBX 10 12 -2 -3
BITMAP
0000
0000
0A00
0000
0C00
0400
0400
0400
0400
0000
0000
0000
ENDCHAR
STARTCHAR uni006A
ENCODING 1112
SWIDTH 525 0
DWIDTH 7 0
BBX 10 12 -2 -3
BITMAP
0000
0000
0400
0000
0C00
0400
0400
0400
0400
0400
1800
0000
ENDCHAR
STARTCHAR uni0079
ENCODING 1118
SWIDTH 525 0
DWIDTH 7 0
BBX 10 12 -2 -3
BITMAP
0000
0000
0000
0000
1200
1200
1200
1200
0E00
0200
0C00
0000
ENDCHAR
STARTCHAR char1126
ENCODING 1126
SWIDTH 525 0
DWIDTH 7 0
BBX 10 12 -2 -3
BITMAP
0000
0000
0000
0800
0800
1400
1C00
2A00
2A00
0000
0000
0000
ENDCHAR
STARTCHAR char1127
ENCODING 1127
SWIDTH 525 0
DWIDTH 7 0
BBX 10 12 -2 -3
BITMAP
0000
0000
0000
0000
0800
1400
1C00
2A00
2A00
0000
0000
0000
ENDCHAR
STARTCHAR char1027
ENCODING 1168
SWIDTH 525 0
DWIDTH 7 0
BBX 10 12 -2 -3
BITMAP
0000
0000
0200
1E00
1000
1000
1000
1000
1000
0000
0000
0000
ENDCHAR
STARTCHAR char1075
ENCODING 1169
SWIDTH 525 0
DWIDTH 7 0
BBX 10 12 -2 -3
BITMAP
0000
0000
0000
0200
1E00
1000
1000
1000
1000
0000
0000
0000
ENDCHAR
STARTCHAR char1984
ENCODING 1984
SWIDTH 525 0
DWIDTH 7 0
BBX 10 12 -2 -3
BITMAP
0000
0000
0000
0000
0000
0000
0000
0000
3F00
3F00
0000
0000
ENDCHAR
STARTCHAR char1984
ENCODING 1985
SWIDTH 525 0
DWIDTH 7 0
BBX 10 12 -2 -3
BITMAP
0000
0000
0000
0000
0000
0000
0000
0000
2A00
1500
0000
0000
ENDCHAR
STARTCHAR char1986
ENCODING 1986
SWIDTH 525 0
DWIDTH 7 0
BBX 10 12 -2 -3
BITMAP
0000
0000
0000
0000
0000
0000
0000
0000
0000
3F00
0000
0000
ENDCHAR
STARTCHAR char1987
ENCODING 1987
SWIDTH 525 0
DWIDTH 7 0
BBX 10 12 -2 -3
BITMAP
0000
0000
0000
0000
0000
0000
0000
0000
0000
0A80
0000
0000
ENDCHAR
STARTCHAR char3232
ENCODING 3232
SWIDTH 525 0
DWIDTH 7 0
BBX 10 12 -2 -3
BITMAP
0000
0000
0600
0100
3E00
1100
1500
1100
0E00
0000
0000
0000
ENDCHAR
STARTCHAR char1480
ENCODING 4808
SWIDTH 525 0
DWIDTH 7 0
BBX 10 12 -2 -3
BITMAP
0000
0000
1F00
1F00
1F00
1F00
1F00
1F00
1F00
1F00
0000
0000
ENDCHAR
STARTCHAR char7461
ENCODING 7461
SWIDTH 525 0
DWIDTH 7 0
BBX 10 12 -2 -3
BITMAP
0000
0000
0000
0000
1C00
1C00
1C00
0800
3600
0000
0000
0000
ENDCHAR
STARTCHAR uni0061
ENCODING 7936
SWIDTH 525 0
DWIDTH 7 0
BBX 10 12 -2 -3
BITMAP
0000
0000
1000
2000
0E00
1200
1200
1600
0A00
0000
0000
0000
ENDCHAR
STARTCHAR uni0041
ENCODING 7944
SWIDTH 525 0
DWIDTH 7 0
BBX 10 12 -2 -3
BITMAP
0000
1000
2000
0C00
1200
1200
1E00
1200
1200
0000
0000
0000
ENDCHAR
STARTCHAR char8216
ENCODING 8216
SWIDTH 525 0
DWIDTH 7 0
BBX 10 12 -2 -3
BITMAP
0000
0000
0800
0800
0800
0000
0000
0000
0000
0000
0000
0000
ENDCHAR
STARTCHAR char8217
ENCODING 8217
SWIDTH 525 0
DWIDTH 7 0
BBX 10 12 -2 -3
BITMAP
0000
0000
0800
0800
0800
0000
0000
0000
0000
0000
0000
0000
ENDCHAR
STARTCHAR char8218
ENCODING 8218
SWIDTH 525 0
DWIDTH 7 0
BBX 10 12 -2 -3
BITMAP
0000
0000
0000
0000
0000
0000
0000
0400
0400
0800
0000
0000
ENDCHAR
STARTCHAR char8220
ENCODING 8220
SWIDTH 525 0
DWIDTH 7 0
BBX 10 12 -2 -3
BITMAP
0000
0000
0000
0A00
1400
1E00
0000
0000
0000
0000
0000
0000
ENDCHAR
STARTCHAR char8221
ENCODING 8221
SWIDTH 525 0
DWIDTH 7 0
BBX 10 12 -2 -3
BITMAP
0000
0000
0000
1E00
0A00
1400
0000
0000
0000
0000
0000
0000
ENDCHAR
STARTCHAR char8222
ENCODING 8222
SWIDTH 525 0
DWIDTH 7 0
BBX 10 12 -2 -3
BITMAP
0000
0000
0000
0000
0000
0000
0000
1E00
0A00
1400
0000
0000
ENDCHAR
STARTCHAR char8223
ENCODING 8223
SWIDTH 525 0
DWIDTH 7 0
BBX 10 12 -2 -3
BITMAP
0000
0000
0000
1E00
1400
0A00
0000
0000
0000
0000
0000
0000
ENDCHAR
STARTCHAR char183
ENCODING 8226
SWIDTH 525 0
DWIDTH 7 0
BBX 10 12 -2 -3
BITMAP
0000
0000
0000
0000
0000
0C00
0C00
0000
0000
0000
0000
0000
ENDCHAR
STARTCHAR char8228
ENCODING 8228
SWIDTH 525 0
DWIDTH 7 0
BBX 10 12 -2 -3
BITMAP
0000
0000
0000
0000
0000
0000
0000
0000
0800
0000
0000
0000
ENDCHAR
STARTCHAR char8229
ENCODING 8229
SWIDTH 525 0
DWIDTH 7 0
BBX 10 12 -2 -3
BITMAP
0000
0000
0000
0000
0000
0000
0000
0000
1400
0000
0000
0000
ENDCHAR
STARTCHAR char8230
ENCODING 8230
SWIDTH 525 0
DWIDTH 7 0
BBX 10 12 -2 -3
BITMAP
0000
0000
0000
0000
0000
0000
0000
0000
2A00
0000
0000
0000
ENDCHAR
STARTCHAR char8231
ENCODING 8231
SWIDTH 525 0
DWIDTH 7 0
BBX 10 12 -2 -3
BITMAP
0000
0000
0000
0000
0000
0000
0800
0000
0000
0000
0000
0000
ENDCHAR
STARTCHAR UNDERTIE
ENCODING 8255
SWIDTH 525 0
DWIDTH 7 0
BBX 10 12 -2 -3
BITMAP
0000
0000
0000
0000
0000
0000
0000
2200
1C00
0000
0000
0000
ENDCHAR
STARTCHAR char8364
ENCODING 8364
SWIDTH 525 0
DWIDTH 7 0
BBX 10 12 -2 -3
BITMAP
0000
0000
0C00
1200
3800
1000
3800
1200
0C00
0000
0000
0000
ENDCHAR
STARTCHAR char8482
ENCODING 8482
SWIDTH 525 0
DWIDTH 7 0
BBX 10 12 -2 -3
BITMAP
0000
0000
0000
3D00
1700
1500
0000
0000
0000
0000
0000
0000
ENDCHAR
STARTCHAR char8592
ENCODING 8592
SWIDTH 525 0
DWIDTH 7 0
BBX 10 12 -2 -3
BITMAP
0000
0000
0000
0000
0800
1800
3F00
1800
0800
0000
0000
0000
ENDCHAR
STARTCHAR char8593
ENCODING 8593
SWIDTH 525 0
DWIDTH 7 0
BBX 10 12 -2 -3
BITMAP
0000
0000
0000
0800
1C00
3E00
0800
0800
0800
0000
0000
0000
ENDCHAR
STARTCHAR char8594
ENCODING 8594
SWIDTH 525 0
DWIDTH 7 0
BBX 10 12 -2 -3
BITMAP
0000
0000
0000
0000
0400
0600
3F00
0600
0400
0000
0000
0000
ENDCHAR
STARTCHAR char8595
ENCODING 8595
SWIDTH 525 0
DWIDTH 7 0
BBX 10 12 -2 -3
BITMAP
0000
0000
0000
0800
0800
0800
3E00
1C00
0800
0000
0000
0000
ENDCHAR
STARTCHAR char8596
ENCODING 8596
SWIDTH 525 0
DWIDTH 7 0
BBX 10 12 -2 -3
BITMAP
0000
0000
0000
0000
0000
1200
3F00
1200
0000
0000
0000
0000
ENDCHAR
STARTCHAR char8597
ENCODING 8597
SWIDTH 525 0
DWIDTH 7 0
BBX 10 12 -2 -3
BITMAP
0000
0000
0800
1C00
3E00
0800
0800
3E00
1C00
0800
0000
0000
ENDCHAR
STARTCHAR char8598
ENCODING 8598
SWIDTH 525 0
DWIDTH 7 0
BBX 10 12 -2 -3
BITMAP
0000
0000
0000
0000
3800
3000
2800
0400
0000
0000
0000
0000
ENDCHAR
STARTCHAR char8599
ENCODING 8599
SWIDTH 525 0
DWIDTH 7 0
BBX 10 12 -2 -3
BITMAP
0000
0000
0000
0000
0E00
0600
0A00
1000
0000
0000
0000
0000
ENDCHAR
STARTCHAR char8600
ENCODING 8600
SWIDTH 525 0
DWIDTH 7 0
BBX 10 12 -2 -3
BITMAP
0000
0000
0000
0000
0000
1000
0A00
0600
0E00
0000
0000
0000
ENDCHAR
STARTCHAR char8601
ENCODING 8601
SWIDTH 525 0
DWIDTH 7 0
BBX 10 12 -2 -3
BITMAP
0000
0000
0000
0000
0000
0400
2800
3000
3800
0000
0000
0000
ENDCHAR
STARTCHAR char8624
ENCODING 8624
SWIDTH 525 0
DWIDTH 7 0
BBX 10 12 -2 -3
BITMAP
0000
0000
0000
0000
1000
3C00
1400
0400
0400
0000
0000
0000
ENDCHAR
STARTCHAR char8625
ENCODING 8625
SWIDTH 525 0
DWIDTH 7 0
BBX 10 12 -2 -3
BITMAP
0000
0000
0000
0000
0800
3C00
2800
2000
2000
0000
0000
0000
ENDCHAR
STARTCHAR char8626
ENCODING 8626
SWIDTH 525 0
DWIDTH 7 0
BBX 10 12 -2 -3
BITMAP
0000
0000
0000
0000
0000
0400
0400
1400
3C00
1000
0000
0000
ENDCHAR
STARTCHAR char8627
ENCODING 8627
SWIDTH 525 0
DWIDTH 7 0
BBX 10 12 -2 -3
BITMAP
0000
0000
0000
0000
0000
2000
2000
2800
3C00
0800
0000
0000
ENDCHAR
STARTCHAR char8628
ENCODING 8628
SWIDTH 525 0
DWIDTH 7 0
BBX 10 12 -2 -3
BITMAP
0000
0000
0000
0000
0000
0000
3800
0800
1C00
0800
0000
0000
ENDCHAR
STARTCHAR char8629
ENCODING 8629
SWIDTH 525 0
DWIDTH 7 0
BBX 10 12 -2 -3
BITMAP
0000
0000
0000
0000
0000
0400
0400
1400
3C00
1000
0000
0000
ENDCHAR
STARTCHAR char8630
ENCODING 8630
SWIDTH 525 0
DWIDTH 7 0
BBX 10 12 -2 -3
BITMAP
0000
0000
0000
0000
0800
1400
1000
3800
1000
0000
0000
0000
ENDCHAR
STARTCHAR char8631
ENCODING 8631
SWIDTH 525 0
DWIDTH 7 0
BBX 10 12 -2 -3
BITMAP
0000
0000
0000
0000
0800
1400
0400
0E00
0400
0000
0000
0000
ENDCHAR
STARTCHAR char8689
ENCODING 8689
SWIDTH 525 0
DWIDTH 7 0
BBX 10 12 -2 -3
BITMAP
0000
0000
0000
3E00
2000
2E00
2C00
2A00
0100
0000
0000
0000
ENDCHAR
STARTCHAR char8690
ENCODING 8690
SWIDTH 525 0
DWIDTH 7 0
BBX 10 12 -2 -3
BITMAP
0000
0000
0000
0000
1000
0A80
0680
0E80
0080
0F80
0000
0000
ENDCHAR
STARTCHAR char8693
ENCODING 8693
SWIDTH 525 0
DWIDTH 7 0
BBX 10 12 -2 -3
BITMAP
0000
0000
0000
1200
3A00
1200
1200
1700
1200
0000
0000
0000
ENDCHAR
STARTCHAR char8694
ENCODING 8694
SWIDTH 525 0
DWIDTH 7 0
BBX 10 12 -2 -3
BITMAP
0000
0000
0000
0200
1F00
0200
1F00
0200
1F00
0200
0000
0000
ENDCHAR
STARTCHAR char8695
ENCODING 8695
SWIDTH 525 0
DWIDTH 7 0
BBX 10 12 -2 -3
BITMAP
0000
0000
0000
0000
0000
0000
1400
3F00
1400
0000
0000
0000
ENDCHAR
STARTCHAR char8696
ENCODING 8696
SWIDTH 525 0
DWIDTH 7 0
BBX 10 12 -2 -3
BITMAP
0000
0000
0000
0000
0000
0000
0A00
3F00
0A00
0000
0000
0000
ENDCHAR
STARTCHAR char8701
ENCODING 8701
SWIDTH 525 0
DWIDTH 7 0
BBX 10 12 -2 -3
BITMAP
0000
0000
0000
0000
0000
1000
2F00
1000
0000
0000
0000
0000
ENDCHAR
STARTCHAR char8702
ENCODING 8702
SWIDTH 525 0
DWIDTH 7 0
BBX 10 12 -2 -3
BITMAP
0000
0000
0000
0000
0000
0200
3D00
0200
0000
0000
0000
0000
ENDCHAR
STARTCHAR char8703
ENCODING 8703
SWIDTH 525 0
DWIDTH 7 0
BBX 10 12 -2 -3
BITMAP
0000
0000
0000
0000
0000
1200
2D00
1200
0000
0000
0000
0000
ENDCHAR
STARTCHAR char8704
ENCODING 8704
SWIDTH 525 0
DWIDTH 7 0
BBX 10 12 -2 -3
BITMAP
0000
0000
0000
0000
1100
1100
0E00
0A00
0400
0400
0000
0000
ENDCHAR
STARTCHAR char8705
ENCODING 8705
SWIDTH 525 0
DWIDTH 7 0
BBX 10 12 -2 -3
BITMAP
0000
0000
0000
0E00
1100
1100
1000
1100
1100
0E00
0000
0000
ENDCHAR
STARTCHAR char8706
ENCODING 8706
SWIDTH 525 0
DWIDTH 7 0
BBX 10 12 -2 -3
BITMAP
0000
0000
1000
0800
0400
0A00
1200
1200
0C00
0000
0000
0000
ENDCHAR
STARTCHAR char8707
ENCODING 8707
SWIDTH 525 0
DWIDTH 7 0
BBX 10 12 -2 -3
BITMAP
0000
0000
0000
1F00
0100
0F00
0100
0100
1F00
0000
0000
0000
ENDCHAR
STARTCHAR char8708
ENCODING 8708
SWIDTH 525 0
DWIDTH 7 0
BBX 10 12 -2 -3
BITMAP
0000
0000
0200
1F00
0500
0F00
0500
0900
1F00
0800
0000
0000
ENDCHAR
STARTCHAR char8709
ENCODING 8709
SWIDTH 525 0
DWIDTH 7 0
BBX 10 12 -2 -3
BITMAP
0000
0000
0000
0E00
1180
1300
1D00
3100
0E00
0000
0000
0000
ENDCHAR
STARTCHAR char8710
ENCODING 8710
SWIDTH 525 0
DWIDTH 7 0
BBX 10 12 -2 -3
BITMAP
0000
0000
0000
0000
0400
0A00
0A00
1100
1F00
0000
0000
0000
ENDCHAR
STARTCHAR char8711
ENCODING 8711
SWIDTH 525 0
DWIDTH 7 0
BBX 10 12 -2 -3
BITMAP
0000
0000
0000
0000
1F00
1100
0A00
0A00
0400
0000
0000
0000
ENDCHAR
STARTCHAR char8712
ENCODING 8712
SWIDTH 525 0
DWIDTH 7 0
BBX 10 12 -2 -3
BITMAP
0000
0000
0000
0700
0800
1000
1E00
1000
0800
0700
0000
0000
ENDCHAR
STARTCHAR char8713
ENCODING 8713
SWIDTH 525 0
DWIDTH 7 0
BBX 10 12 -2 -3
BITMAP
0000
0000
0100
0700
0A00
1400
1E00
1400
0800
0F00
0000
0000
ENDCHAR
STARTCHAR char8714
ENCODING 8714
SWIDTH 525 0
DWIDTH 7 0
BBX 10 12 -2 -3
BITMAP
0000
0000
0000
0000
0E00
1000
1C00
1000
0E00
0000
0000
0000
ENDCHAR
STARTCHAR char8715
ENCODING 8715
SWIDTH 525 0
DWIDTH 7 0
BBX 10 12 -2 -3
BITMAP
0000
0000
0000
1C00
0200
0100
0F00
0100
0200
1C00
0000
0000
ENDCHAR
STARTCHAR char8716
ENCODING 8716
SWIDTH 525 0
DWIDTH 7 0
BBX 10 12 -2 -3
BITMAP
0000
0000
2000
1C00
1200
0900
0F00
0500
0200
1D00
0000
0000
ENDCHAR
STARTCHAR char8717
ENCODING 8717
SWIDTH 525 0
DWIDTH 7 0
BBX 10 12 -2 -3
BITMAP
0000
0000
0000
0000
0E00
0100
0700
0100
0E00
0000
0000
0000
ENDCHAR
STARTCHAR char8719
ENCODING 8719
SWIDTH 525 0
DWIDTH 7 0
BBX 10 12 -2 -3
BITMAP
0000
0000
0000
0000
1F00
0A00
0A00
0A00
0A00
0000
0000
0000
ENDCHAR
STARTCHAR char8720
ENCODING 8720
SWIDTH 525 0
DWIDTH 7 0
BBX 10 12 -2 -3
BITMAP
0000
0000
0000
0000
0A00
0A00
0A00
0A00
1F00
0000
0000
0000
ENDCHAR
STARTCHAR char8721
ENCODING 8721
SWIDTH 525 0
DWIDTH 7 0
BBX 10 12 -2 -3
BITMAP
0000
0000
0000
3E00
2200
1000
0800
1000
2200
3E00
0000
0000
ENDCHAR
STARTCHAR char8722
ENCODING 8722
SWIDTH 525 0
DWIDTH 7 0
BBX 10 12 -2 -3
BITMAP
0000
0000
0000
0000
0000
0000
3800
0000
0000
0000
0000
0000
ENDCHAR
STARTCHAR char8723
ENCODING 8723
SWIDTH 525 0
DWIDTH 7 0
BBX 10 12 -2 -3
BITMAP
0000
0000
0000
0000
0000
3800
0000
1000
3800
1000
0000
0000
ENDCHAR
STARTCHAR char8724
ENCODING 8724
SWIDTH 525 0
DWIDTH 7 0
BBX 10 12 -2 -3
BITMAP
0000
0000
0800
1C00
0800
0800
0800
3E00
0800
0800
0000
0000
ENDCHAR
STARTCHAR char8730
ENCODING 8730
SWIDTH 525 0
DWIDTH 7 0
BBX 10 12 -2 -3
BITMAP
0000
0000
0000
0080
0080
0100
3100
0A00
0A00
0400
0000
0000
ENDCHAR
STARTCHAR char8731
ENCODING 8731
SWIDTH 525 0
DWIDTH 7 0
BBX 10 12 -2 -3
BITMAP
0000
0000
0C00
0C80
0480
0D00
3100
0A00
0A00
0400
0000
0000
ENDCHAR
STARTCHAR char8732
ENCODING 8732
SWIDTH 525 0
DWIDTH 7 0
BBX 10 12 -2 -3
BITMAP
0000
0000
0000
0480
0C80
0500
3100
0A00
0A00
0400
0000
0000
ENDCHAR
STARTCHAR char8733
ENCODING 8733
SWIDTH 525 0
DWIDTH 7 0
BBX 10 12 -2 -3
BITMAP
0000
0000
0000
0000
0000
3400
2800
3400
0000
0000
0000
0000
ENDCHAR
STARTCHAR char8734
ENCODING 8734
SWIDTH 525 0
DWIDTH 7 0
BBX 10 12 -2 -3
BITMAP
0000
0000
0000
0000
0000
1200
2D00
2D00
1200
0000
0000
0000
ENDCHAR
STARTCHAR char8776
ENCODING 8776
SWIDTH 525 0
DWIDTH 7 0
BBX 10 12 -2 -3
BITMAP
0000
0000
0000
0000
0200
1C00
2200
1C00
2000
0000
0000
0000
ENDCHAR
STARTCHAR char8790
ENCODING 8790
SWIDTH 525 0
DWIDTH 7 0
BBX 10 12 -2 -3
BITMAP
0000
0000
0000
0000
0000
3E00
1400
3E00
0000
0000
0000
0000
ENDCHAR
STARTCHAR char8800
ENCODING 8800
SWIDTH 525 0
DWIDTH 7 0
BBX 10 12 -2 -3
BITMAP
0000
0000
0000
0200
0E00
0400
0E00
0800
0000
0000
0000
0000
ENDCHAR
STARTCHAR char8804
ENCODING 8804
SWIDTH 525 0
DWIDTH 7 0
BBX 10 12 -2 -3
BITMAP
0000
0000
0000
0400
0800
1000
0800
0400
0000
1E00
0000
0000
ENDCHAR
STARTCHAR char8805
ENCODING 8805
SWIDTH 525 0
DWIDTH 7 0
BBX 10 12 -2 -3
BITMAP
0000
0000
0000
0800
0400
0200
0400
0800
0000
1E00
0000
0000
ENDCHAR
STARTCHAR char8978
ENCODING 8978
SWIDTH 525 0
DWIDTH 7 0
BBX 10 12 -2 -3
BITMAP
0000
0000
0000
0000
0000
1800
2400
0000
0000
0000
0000
0000
ENDCHAR
STARTCHAR char8994
ENCODING 8994
SWIDTH 525 0
DWIDTH 7 0
BBX 10 12 -2 -3
BITMAP
0000
0000
0000
0000
0000
1C00
2200
0000
0000
0000
0000
0000
ENDCHAR
STARTCHAR bar
ENCODING 9472
SWIDTH 525 0
DWIDTH 7 0
BBX 10 12 -2 -3
BITMAP
0000
0000
0000
0000
0000
0000
1F00
0000
0000
0000
0000
0000
ENDCHAR
STARTCHAR QUADRANT LOWER LEFT
ENCODING 9622
SWIDTH 525 0
DWIDTH 7 0
BBX 10 12 -2 -3
BITMAP
0000
0000
0000
0000
0000
0000
3800
3800
3800
0000
0000
0000
ENDCHAR
STARTCHAR QUADRANT LOWER RIGHT
ENCODING 9623
SWIDTH 525 0
DWIDTH 7 0
BBX 10 12 -2 -3
BITMAP
0000
0000
0000
0000
0000
0000
0700
0700
0700
0000
0000
0000
ENDCHAR
STARTCHAR QUADRANT UPPER LEFT
ENCODING 9624
SWIDTH 525 0
DWIDTH 7 0
BBX 10 12 -2 -3
BITMAP
0000
0000
0000
3800
3800
3800
0000
0000
0000
0000
0000
0000
ENDCHAR
STARTCHAR QUADRANT UPPER LEFT AND LOWER LEFT AND LOWER RIGHT
ENCODING 9625
SWIDTH 525 0
DWIDTH 7 0
BBX 10 12 -2 -3
BITMAP
0000
0000
0000
3800
3800
3800
3F00
3F00
3F00
0000
0000
0000
ENDCHAR
STARTCHAR QUADRANT UPPER LEFT AND LOWER RIGHT
ENCODING 9626
SWIDTH 525 0
DWIDTH 7 0
BBX 10 12 -2 -3
BITMAP
0000
0000
0000
3800
3800
3800
0700
0700
0700
0000
0000
0000
ENDCHAR
STARTCHAR QUADRANT UPPER LEFT AND UPPER RIGHT AND LOWER LEFT
ENCODING 9627
SWIDTH 525 0
DWIDTH 7 0
BBX 10 12 -2 -3
BITMAP
0000
0000
0000
3F00
3F00
3F00
3800
3800
3800
0000
0000
0000
ENDCHAR
STARTCHAR QUADRANT UPPER LEFT AND UPPER RIGHT AND LOWER RIGHT
ENCODING 9628
SWIDTH 525 0
DWIDTH 7 0
BBX 10 12 -2 -3
BITMAP
0000
0000
0000
3F00
3F00
3F00
0700
0700
0700
0000
0000
0000
ENDCHAR
STARTCHAR QUADRANT UPPER RIGHT
ENCODING 9629
SWIDTH 525 0
DWIDTH 7 0
BBX 10 12 -2 -3
BITMAP
0000
0000
0000
0700
0700
0700
0000
0000
0000
0000
0000
0000
ENDCHAR
STARTCHAR QUADRANT UPPER RIGHT AND LOWER LEFT
ENCODING 9630
SWIDTH 525 0
DWIDTH 7 0
BBX 10 12 -2 -3
BITMAP
0000
0000
0000
0700
0700
0700
3800
3800
3800
0000
0000
0000
ENDCHAR
STARTCHAR QUADRANT UPPER RIGHT AND LOWER LEFT AND LOWER RIGHT
ENCODING 9631
SWIDTH 525 0
DWIDTH 7 0
BBX 10 12 -2 -3
BITMAP
0000
0000
0000
0700
0700
0700
3F00
3F00
3F00
0000
0000
0000
ENDCHAR
STARTCHAR BLACK SQUARE
ENCODING 9632
SWIDTH 525 0
DWIDTH 7 0
BBX 10 12 -2 -3
BITMAP
0000
0000
0000
3F00
3F00
3F00
3F00
3F00
3F00
0000
0000
0000
ENDCHAR
STARTCHAR WHITE SQUARE
ENCODING 9633
SWIDTH 525 0
DWIDTH 7 0
BBX 10 12 -2 -3
BITMAP
0000
0000
0000
3F00
2100
2100
2100
2100
3F00
0000
0000
0000
ENDCHAR
STARTCHAR WHITE SQUARE WITH ROUNDED CORNERS
ENCODING 9634
SWIDTH 525 0
DWIDTH 7 0
BBX 10 12 -2 -3
BITMAP
0000
0000
0000
1E00
2100
2100
2100
2100
1E00
0000
0000
0000
ENDCHAR
STARTCHAR WHITE SQUARE CONTAINING BLACK SMALL SQUARE
ENCODING 9635
SWIDTH 525 0
DWIDTH 7 0
BBX 10 12 -2 -3
BITMAP
0000
0000
0000
0000
3E00
2200
2A00
2200
3E00
0000
0000
0000
ENDCHAR
STARTCHAR SQUARE WITH HORIZONTAL FILL
ENCODING 9636
SWIDTH 525 0
DWIDTH 7 0
BBX 10 12 -2 -3
BITMAP
0000
0000
0000
0000
3E00
2200
3E00
2200
3E00
0000
0000
0000
ENDCHAR
STARTCHAR SQUARE WITH VERTICAL FILL
ENCODING 9637
SWIDTH 525 0
DWIDTH 7 0
BBX 10 12 -2 -3
BITMAP
0000
0000
0000
0000
3E00
2A00
2A00
2A00
3E00
0000
0000
0000
ENDCHAR
STARTCHAR SQUARE WITH ORTHOGONAL CROSSHATCH FILL
ENCODING 9638
SWIDTH 525 0
DWIDTH 7 0
BBX 10 12 -2 -3
BITMAP
0000
0000
0000
0000
3E00
2A00
3E00
2A00
3E00
0000
0000
0000
ENDCHAR
STARTCHAR SQUARE WITH UPPER LEFT TO LOWER RIGHT FILL
ENCODING 9639
SWIDTH 525 0
DWIDTH 7 0
BBX 10 12 -2 -3
BITMAP
0000
0000
0000
0000
3E00
3200
2A00
2600
3E00
0000
0000
0000
ENDCHAR
STARTCHAR SQUARE WITH UPPER RIGHT TO LOWER LEFT FILL
ENCODING 9640
SWIDTH 525 0
DWIDTH 7 0
BBX 10 12 -2 -3
BITMAP
0000
0000
0000
0000
3E00
2600
2A00
3200
3E00
0000
0000
0000
ENDCHAR
STARTCHAR SQUARE WITH DIAGONAL CROSSHATCH FILL
ENCODING 9641
SWIDTH 525 0
DWIDTH 7 0
BBX 10 12 -2 -3
BITMAP
0000
0000
0000
0000
3E00
2A00
3600
2A00
3E00
0000
0000
0000
ENDCHAR
STARTCHAR BLACK SMALL SQUARE
ENCODING 9642
SWIDTH 525 0
DWIDTH 7 0
BBX 10 12 -2 -3
BITMAP
0000
0000
0000
0000
3E00
3E00
3E00
3E00
3E00
0000
0000
0000
ENDCHAR
STARTCHAR WHITE SMALL SQUARE
ENCODING 9643
SWIDTH 525 0
DWIDTH 7 0
BBX 10 12 -2 -3
BITMAP
0000
0000
0000
0000
3E00
2200
2200
2200
3E00
0000
0000
0000
ENDCHAR
STARTCHAR BLACK RECTANGLE
ENCODING 9644
SWIDTH 525 0
DWIDTH 7 0
BBX 10 12 -2 -3
BITMAP
0000
0000
0000
0000
0000
0000
3E00
3E00
3E00
0000
0000
0000
ENDCHAR
STARTCHAR WHITE RECTANGLE
ENCODING 9645
SWIDTH 525 0
DWIDTH 7 0
BBX 10 12 -2 -3
BITMAP
0000
0000
0000
0000
0000
0000
3E00
2200
3E00
0000
0000
0000
ENDCHAR
STARTCHAR BLACK VERTICAL RECTANGLE
ENCODING 9646
SWIDTH 525 0
DWIDTH 7 0
BBX 10 12 -2 -3
BITMAP
0000
0000
3C00
3C00
3C00
3C00
3C00
3C00
3C00
0000
0000
0000
ENDCHAR
STARTCHAR WHITE VERTICAL RECTANGLE
ENCODING 9647
SWIDTH 525 0
DWIDTH 7 0
BBX 10 12 -2 -3
BITMAP
0000
0000
3C00
2400
2400
2400
2400
2400
3C00
0000
0000
0000
ENDCHAR
STARTCHAR BLACK PARALLELOGRAM
ENCODING 9648
SWIDTH 525 0
DWIDTH 7 0
BBX 10 12 -2 -3
BITMAP
0000
0000
0000
0000
0000
0000
1F00
3F00
3E00
0000
0000
0000
ENDCHAR
STARTCHAR WHITE PARALLELOGRAM
ENCODING 9649
SWIDTH 525 0
DWIDTH 7 0
BBX 10 12 -2 -3
BITMAP
0000
0000
0000
0000
0000
0000
1F00
2100
3E00
0000
0000
0000
ENDCHAR
STARTCHAR char11155
ENCODING 9650
SWIDTH 525 0
DWIDTH 7 0
BBX 10 12 -2 -3
BITMAP
0000
0000
0000
0000
0200
0700
0F80
1FC0
0000
0000
0000
0000
ENDCHAR
STARTCHAR char11155
ENCODING 9651
SWIDTH 525 0
DWIDTH 7 0
BBX 10 12 -2 -3
BITMAP
0000
0000
0000
0000
0200
0500
0880
1FC0
0000
0000
0000
0000
ENDCHAR
STARTCHAR char11155
ENCODING 9652
SWIDTH 525 0
DWIDTH 7 0
BBX 10 12 -2 -3
BITMAP
0000
0000
0000
0000
0000
0800
1C00
3E00
0000
0000
0000
0000
ENDCHAR
STARTCHAR char11155
ENCODING 9653
SWIDTH 525 0
DWIDTH 7 0
BBX 10 12 -2 -3
BITMAP
0000
0000
0000
0000
0000
0800
1400
3E00
0000
0000
0000
0000
ENDCHAR
STARTCHAR char11155
ENCODING 9654
SWIDTH 525 0
DWIDTH 7 0
BBX 10 12 -2 -3
BITMAP
0000
0000
0000
1000
1800
1C00
1C00
1800
1000
0000
0000
0000
ENDCHAR
STARTCHAR char11155
ENCODING 9655
SWIDTH 525 0
DWIDTH 7 0
BBX 10 12 -2 -3
BITMAP
0000
0000
0000
1000
1800
1400
1200
1400
1800
1000
0000
0000
ENDCHAR
STARTCHAR char11155
ENCODING 9656
SWIDTH 525 0
DWIDTH 7 0
BBX 10 12 -2 -3
BITMAP
0000
0000
0000
0000
1000
1800
1C00
1800
1000
0000
0000
0000
ENDCHAR
STARTCHAR char11155
ENCODING 9657
SWIDTH 525 0
DWIDTH 7 0
BBX 10 12 -2 -3
BITMAP
0000
0000
0000
0000
1000
1800
1400
1800
1000
0000
0000
0000
ENDCHAR
STARTCHAR BLACK RIGHT-POINTING POINTER
ENCODING 9658
SWIDTH 525 0
DWIDTH 7 0
BBX 10 12 -2 -3
BITMAP
0000
0000
0000
0000
6000
7C00
7F00
7C00
6000
0000
0000
0000
ENDCHAR
STARTCHAR WHITE RIGHT-POINTING POINTER
ENCODING 9659
SWIDTH 525 0
DWIDTH 7 0
BBX 10 12 -2 -3
BITMAP
0000
0000
0000
0000
6000
5C00
4300
5C00
6000
0000
0000
0000
ENDCHAR
STARTCHAR char11155
ENCODING 9660
SWIDTH 525 0
DWIDTH 7 0
BBX 10 12 -2 -3
BITMAP
0000
0000
0000
0000
1FC0
0F80
0700
0200
0000
0000
0000
0000
ENDCHAR
STARTCHAR char11155
ENCODING 9661
SWIDTH 525 0
DWIDTH 7 0
BBX 10 12 -2 -3
BITMAP
0000
0000
0000
0000
1FC0
0880
0500
0200
0000
0000
0000
0000
ENDCHAR
STARTCHAR char11155
ENCODING 9662
SWIDTH 525 0
DWIDTH 7 0
BBX 10 12 -2 -3
BITMAP
0000
0000
0000
0000
0000
3E00
1C00
0800
0000
0000
0000
0000
ENDCHAR
STARTCHAR char11155
ENCODING 9663
SWIDTH 525 0
DWIDTH 7 0
BBX 10 12 -2 -3
BITMAP
0000
0000
0000
0000
0000
3E00
1400
0800
0000
0000
0000
0000
ENDCHAR
STARTCHAR char11155
ENCODING 9664
SWIDTH 525 0
DWIDTH 7 0
BBX 10 12 -2 -3
BITMAP
0000
0000
0000
0200
0600
0E00
1E00
0E00
0600
0200
0000
0000
ENDCHAR
STARTCHAR char11155
ENCODING 9665
SWIDTH 525 0
DWIDTH 7 0
BBX 10 12 -2 -3
BITMAP
0000
0000
0000
0200
0600
0A00
1200
0A00
0600
0200
0000
0000
ENDCHAR
STARTCHAR char11155
ENCODING 9666
SWIDTH 525 0
DWIDTH 7 0
BBX 10 12 -2 -3
BITMAP
0000
0000
0000
0000
0400
0C00
1C00
0C00
0400
0000
0000
0000
ENDCHAR
STARTCHAR char11155
ENCODING 9667
SWIDTH 525 0
DWIDTH 7 0
BBX 10 12 -2 -3
BITMAP
0000
0000
0000
0000
0400
0C00
1400
0C00
0400
0000
0000
0000
ENDCHAR
STARTCHAR BLACK LEFT-POINTING POINTER
ENCODING 9668
SWIDTH 525 0
DWIDTH 7 0
BBX 10 12 -2 -3
BITMAP
0000
0000
0000
0000
0300
1F00
7F00
1F00
0300
0000
0000
0000
ENDCHAR
STARTCHAR WHITE LEFT-POINTING POINTER
ENCODING 9669
SWIDTH 525 0
DWIDTH 7 0
BBX 10 12 -2 -3
BITMAP
0000
0000
0000
0000
0300
1D00
6100
1D00
0300
0000
0000
0000
ENDCHAR
STARTCHAR BLACK DIAMOND
ENCODING 9670
SWIDTH 525 0
DWIDTH 7 0
BBX 10 12 -2 -3
BITMAP
0000
0000
0000
0800
1C00
3E00
1C00
0800
0000
0000
0000
0000
ENDCHAR
STARTCHAR WHITE DIAMOND
ENCODING 9671
SWIDTH 525 0
DWIDTH 7 0
BBX 10 12 -2 -3
BITMAP
0000
0000
0000
0800
1400
2200
1400
0800
0000
0000
0000
0000
ENDCHAR
STARTCHAR WHITE DIAMOND CONTAINING BLACK SMALL DIAMOND
ENCODING 9672
SWIDTH 525 0
DWIDTH 7 0
BBX 10 12 -2 -3
BITMAP
0000
0000
0000
0800
1400
2A00
1400
0800
0000
0000
0000
0000
ENDCHAR
STARTCHAR FISHEYE
ENCODING 9673
SWIDTH 525 0
DWIDTH 7 0
BBX 10 12 -2 -3
BITMAP
0000
0000
0000
1C00
2200
2A00
2200
1C00
0000
0000
0000
0000
ENDCHAR
STARTCHAR LOZENGE
ENCODING 9674
SWIDTH 525 0
DWIDTH 7 0
BBX 10 12 -2 -3
BITMAP
0000
0000
0800
1400
1400
2200
1400
1400
0800
0000
0000
0000
ENDCHAR
STARTCHAR WHITE CIRCLE
ENCODING 9675
SWIDTH 525 0
DWIDTH 7 0
BBX 10 12 -2 -3
BITMAP
0000
0000
0000
1C00
2200
2200
2200
1C00
0000
0000
0000
0000
ENDCHAR
STARTCHAR DOTTED CIRCLE
ENCODING 9676
SWIDTH 525 0
DWIDTH 7 0
BBX 10 12 -2 -3
BITMAP
0000
0000
0000
1400
2200
0000
2200
1400
0000
0000
0000
0000
ENDCHAR
STARTCHAR CIRCLE WITH VERTICAL FILL
ENCODING 9677
SWIDTH 525 0
DWIDTH 7 0
BBX 10 12 -2 -3
BITMAP
0000
0000
0000
1C00
2A00
2A00
2A00
1C00
0000
0000
0000
0000
ENDCHAR
STARTCHAR BULLSEYE
ENCODING 9678
SWIDTH 525 0
DWIDTH 7 0
BBX 10 12 -2 -3
BITMAP
0000
0000
0000
1C00
2200
2A00
2200
1C00
0000
0000
0000
0000
ENDCHAR
STARTCHAR BLACK CIRCLE
ENCODING 9679
SWIDTH 525 0
DWIDTH 7 0
BBX 10 12 -2 -3
BITMAP
0000
0000
0000
1C00
3E00
3E00
3E00
1C00
0000
0000
0000
0000
ENDCHAR
STARTCHAR CIRCLE WITH LEFT HALF BLACK
ENCODING 9680
SWIDTH 525 0
DWIDTH 7 0
BBX 10 12 -2 -3
BITMAP
0000
0000
0000
0C00
1A00
1A00
0C00
0000
0000
0000
0000
0000
ENDCHAR
STARTCHAR CIRCLE WITH RIGHT HALF BLACK
ENCODING 9681
SWIDTH 525 0
DWIDTH 7 0
BBX 10 12 -2 -3
BITMAP
0000
0000
0000
0C00
1600
1600
0C00
0000
0000
0000
0000
0000
ENDCHAR
STARTCHAR CIRCLE WITH LOWER HALF BLACK
ENCODING 9682
SWIDTH 525 0
DWIDTH 7 0
BBX 10 12 -2 -3
BITMAP
0000
0000
0000
0C00
1E00
1200
0C00
0000
0000
0000
0000
0000
ENDCHAR
STARTCHAR CIRCLE WITH UPPER HALF BLACK
ENCODING 9683
SWIDTH 525 0
DWIDTH 7 0
BBX 10 12 -2 -3
BITMAP
0000
0000
0000
0C00
1200
1E00
0C00
0000
0000
0000
0000
0000
ENDCHAR
STARTCHAR CIRCLE WITH UPPER RIGHT QUADRANT BLACK
ENCODING 9684
SWIDTH 525 0
DWIDTH 7 0
BBX 10 12 -2 -3
BITMAP
0000
0000
0000
0C00
1600
1200
0C00
0000
0000
0000
0000
0000
ENDCHAR
STARTCHAR CIRCLE WITH ALL BUT UPPER LEFT QUADRANT BLACK
ENCODING 9685
SWIDTH 525 0
DWIDTH 7 0
BBX 10 12 -2 -3
BITMAP
0000
0000
0000
0C00
1600
1E00
0C00
0000
0000
0000
0000
0000
ENDCHAR
STARTCHAR LEFT HALF BLACK CIRCLE
ENCODING 9686
SWIDTH 525 0
DWIDTH 7 0
BBX 10 12 -2 -3
BITMAP
0000
0000
0000
0800
1800
1800
0800
0000
0000
0000
0000
0000
ENDCHAR
STARTCHAR RIGHT HALF BLACK CIRCLE
ENCODING 9687
SWIDTH 525 0
DWIDTH 7 0
BBX 10 12 -2 -3
BITMAP
0000
0000
0000
0400
0600
0600
0400
0000
0000
0000
0000
0000
ENDCHAR
STARTCHAR INVERSE BULLET
ENCODING 9688
SWIDTH 525 0
DWIDTH 7 0
BBX 10 12 -2 -3
BITMAP
3F00
3F00
3F00
3F00
3300
2100
2100
3300
3F00
3F00
3F00
0000
ENDCHAR
STARTCHAR INVERSE WHITE CIRCLE
ENCODING 9689
SWIDTH 525 0
DWIDTH 7 0
BBX 10 12 -2 -3
BITMAP
0000
0000
7F00
6300
5D00
5D00
5D00
6300
7F00
0000
0000
0000
ENDCHAR
STARTCHAR UPPER HALF INVERSE WHITE CIRCLE
ENCODING 9690
SWIDTH 525 0
DWIDTH 7 0
BBX 10 12 -2 -3
BITMAP
0000
0000
7F00
6300
5D00
5D00
0000
0000
0000
0000
0000
0000
ENDCHAR
STARTCHAR LOWER HALF INVERSE WHITE CIRCLE
ENCODING 9691
SWIDTH 525 0
DWIDTH 7 0
BBX 10 12 -2 -3
BITMAP
0000
0000
0000
0000
0000
5D00
5D00
6300
7F00
0000
0000
0000
ENDCHAR
STARTCHAR UPPER LEFT QUADRANT CIRCULAR ARC
ENCODING 9692
SWIDTH 525 0
DWIDTH 7 0
BBX 10 12 -2 -3
BITMAP
0000
0000
0000
1800
2000
2000
0000
0000
0000
0000
0000
0000
ENDCHAR
STARTCHAR UPPER RIGHT QUADRANT CIRCULAR ARC
ENCODING 9693
SWIDTH 525 0
DWIDTH 7 0
BBX 10 12 -2 -3
BITMAP
0000
0000
0000
0C00
0200
0200
0000
0000
0000
0000
0000
0000
ENDCHAR
STARTCHAR LOWER RIGHT QUADRANT CIRCULAR ARC
ENCODING 9694
SWIDTH 525 0
DWIDTH 7 0
BBX 10 12 -2 -3
BITMAP
0000
0000
0000
0000
0000
0200
0200
0C00
0000
0000
0000
0000
ENDCHAR
STARTCHAR LOWER LEFT QUADRANT CIRCULAR ARC
ENCODING 9695
SWIDTH 525 0
DWIDTH 7 0
BBX 10 12 -2 -3
BITMAP
0000
0000
0000
0000
0000
2000
2000
1800
0000
0000
0000
0000
ENDCHAR
STARTCHAR UPPER HALF CIRCLE
ENCODING 9696
SWIDTH 525 0
DWIDTH 7 0
BBX 10 12 -2 -3
BITMAP
0000
0000
0000
1C00
2200
2200
0000
0000
0000
0000
0000
0000
ENDCHAR
STARTCHAR LOWER HALF CIRCLE
ENCODING 9697
SWIDTH 525 0
DWIDTH 7 0
BBX 10 12 -2 -3
BITMAP
0000
0000
0000
0000
0000
2100
1100
0E00
0000
0000
0000
0000
ENDCHAR
STARTCHAR BLACK LOWER RIGHT TRIANGLE
ENCODING 9698
SWIDTH 525 0
DWIDTH 7 0
BBX 10 12 -2 -3
BITMAP
0000
0000
0000
0100
0300
0700
0F00
1F00
3F00
0000
0000
0000
ENDCHAR
STARTCHAR BLACK LOWER LEFT TRIANGLE
ENCODING 9699
SWIDTH 525 0
DWIDTH 7 0
BBX 10 12 -2 -3
BITMAP
0000
0000
0000
2000
3000
3800
3C00
3E00
3F00
0000
0000
0000
ENDCHAR
STARTCHAR BLACK UPPER LEFT TRIANGLE
ENCODING 9700
SWIDTH 525 0
DWIDTH 7 0
BBX 10 12 -2 -3
BITMAP
0000
0000
0000
3F00
3E00
3C00
3800
3000
2000
0000
0000
0000
ENDCHAR
STARTCHAR BLACK UPPER RIGHT TRIANGLE
ENCODING 9701
SWIDTH 525 0
DWIDTH 7 0
BBX 10 12 -2 -3
BITMAP
0000
0000
0000
3F00
1F00
0F00
0700
0300
0100
0000
0000
0000
ENDCHAR
STARTCHAR WHITE BULLET
ENCODING 9702
SWIDTH 525 0
DWIDTH 7 0
BBX 10 12 -2 -3
BITMAP
0000
0000
0000
1C00
2200
2200
2200
1C00
0000
0000
0000
0000
ENDCHAR
STARTCHAR SQUARE WITH LEFT HALF BLACK
ENCODING 9703
SWIDTH 525 0
DWIDTH 7 0
BBX 10 12 -2 -3
BITMAP
0000
0000
0000
0000
3E00
3200
3200
3200
3E00
0000
0000
0000
ENDCHAR
STARTCHAR SQUARE WITH RIGHT HALF BLACK
ENCODING 9704
SWIDTH 525 0
DWIDTH 7 0
BBX 10 12 -2 -3
BITMAP
0000
0000
0000
0000
3E00
2600
2600
2600
3E00
0000
0000
0000
ENDCHAR
STARTCHAR SQUARE WITH UPPER LEFT DIAGONAL HALF BLACK
ENCODING 9705
SWIDTH 525 0
DWIDTH 7 0
BBX 10 12 -2 -3
BITMAP
0000
0000
0000
0000
3E00
3A00
3200
2200
3E00
0000
0000
0000
ENDCHAR
STARTCHAR SQUARE WITH LOWER RIGHT DIAGONAL HALF BLACK
ENCODING 9706
SWIDTH 525 0
DWIDTH 7 0
BBX 10 12 -2 -3
BITMAP
0000
0000
0000
0000
3E00
2200
2600
2E00
3E00
0000
0000
0000
ENDCHAR
STARTCHAR WHITE SQUARE WITH VERTICAL BISECTING LINE
ENCODING 9707
SWIDTH 525 0
DWIDTH 7 0
BBX 10 12 -2 -3
BITMAP
0000
0000
0000
0000
3E00
2A00
2A00
2A00
3E00
0000
0000
0000
ENDCHAR
STARTCHAR WHITE UP-POINTING TRIANGLE WITH DOT
ENCODING 9708
SWIDTH 525 0
DWIDTH 7 0
BBX 10 12 -2 -3
BITMAP
0000
0000
0800
0800
1400
1400
2A00
2200
3E00
0000
0000
0000
ENDCHAR
STARTCHAR UP-POINTING TRIANGLE WITH LEFT HALF BLACK
ENCODING 9709
SWIDTH 525 0
DWIDTH 7 0
BBX 10 12 -2 -3
BITMAP
0000
0000
0000
0800
0800
1C00
1C00
3A00
3E00
0000
0000
0000
ENDCHAR
STARTCHAR UP-POINTING TRIANGLE WITH RIGHT HALF BLACK
ENCODING 9710
SWIDTH 525 0
DWIDTH 7 0
BBX 10 12 -2 -3
BITMAP
0000
0000
0000
0800
0800
1C00
1C00
2E00
3E00
0000
0000
0000
ENDCHAR
STARTCHAR LARGE CIRCLE
ENCODING 9711
SWIDTH 525 0
DWIDTH 7 0
BBX 10 12 -2 -3
BITMAP
0000
0000
0000
0000
1C00
2200
2200
2200
1C00
0000
0000
0000
ENDCHAR
STARTCHAR WHITE SQUARE WITH UPPER LEFT QUADRANT
ENCODING 9712
SWIDTH 525 0
DWIDTH 7 0
BBX 10 12 -2 -3
BITMAP
0000
0000
0000
0000
3E00
2A00
3A00
2200
3E00
0000
0000
0000
ENDCHAR
STARTCHAR WHITE SQUARE WITH LOWER LEFT QUADRANT
ENCODING 9713
SWIDTH 525 0
DWIDTH 7 0
BBX 10 12 -2 -3
BITMAP
0000
0000
0000
0000
3E00
2200
3A00
2A00
3E00
0000
0000
0000
ENDCHAR
STARTCHAR WHITE SQUARE WITH LOWER RIGHT QUADRANT
ENCODING 9714
SWIDTH 525 0
DWIDTH 7 0
BBX 10 12 -2 -3
BITMAP
0000
0000
0000
0000
3E00
2200
2E00
2A00
3E00
0000
0000
0000
ENDCHAR
STARTCHAR WHITE SQUARE WITH UPPER RIGHT QUADRANT
ENCODING 9715
SWIDTH 525 0
DWIDTH 7 0
BBX 10 12 -2 -3
BITMAP
0000
0000
0000
0000
3E00
2A00
2E00
2200
3E00
0000
0000
0000
ENDCHAR
STARTCHAR WHITE CIRCLE WITH UPPER LEFT QUADRANT
ENCODING 9716
SWIDTH 525 0
DWIDTH 7 0
BBX 10 12 -2 -3
BITMAP
0000
0000
0000
0000
1C00
2A00
3A00
2200
1C00
0000
0000
0000
ENDCHAR
STARTCHAR WHITE CIRCLE WITH LOWER LEFT QUADRANT
ENCODING 9717
SWIDTH 525 0
DWIDTH 7 0
BBX 10 12 -2 -3
BITMAP
0000
0000
0000
0000
1C00
2200
3A00
2A00
1C00
0000
0000
0000
ENDCHAR
STARTCHAR WHITE CIRCLE WITH LOWER RIGHT QUADRANT
ENCODING 9718
SWIDTH 525 0
DWIDTH 7 0
BBX 10 12 -2 -3
BITMAP
0000
0000
0000
0000
1C00
2200
2E00
2A00
1C00
0000
0000
0000
ENDCHAR
STARTCHAR WHITE CIRCLE WITH UPPER RIGHT QUADRANT
ENCODING 9719
SWIDTH 525 0
DWIDTH 7 0
BBX 10 12 -2 -3
BITMAP
0000
0000
0000
0000
1C00
2A00
2E00
2200
1C00
0000
0000
0000
ENDCHAR
STARTCHAR UPPER LEFT TRIANGLE
ENCODING 9720
SWIDTH 525 0
DWIDTH 7 0
BBX 10 12 -2 -3
BITMAP
0000
0000
3C00
2800
3000
2000
0000
0000
0000
0000
0000
0000
ENDCHAR
STARTCHAR UPPER RIGHT TRIANGLE
ENCODING 9721
SWIDTH 525 0
DWIDTH 7 0
BBX 10 12 -2 -3
BITMAP
0000
0000
0F00
0500
0300
0100
0000
0000
0000
0000
0000
0000
ENDCHAR
STARTCHAR LOWER LEFT TRIANGLE
ENCODING 9722
SWIDTH 525 0
DWIDTH 7 0
BBX 10 12 -2 -3
BITMAP
0000
0000
0000
0000
0000
2000
3000
2800
3C00
0000
0000
0000
ENDCHAR
STARTCHAR WHITE MEDIUM SQUARE
ENCODING 9723
SWIDTH 525 0
DWIDTH 7 0
BBX 10 12 -2 -3
BITMAP
0000
0000
0000
3F00
2100
2100
2100
2100
3F00
0000
0000
0000
ENDCHAR
STARTCHAR BLACK MEDIUM SQUARE
ENCODING 9724
SWIDTH 525 0
DWIDTH 7 0
BBX 10 12 -2 -3
BITMAP
0000
0000
0000
3F00
3F00
3F00
3F00
3F00
3F00
0000
0000
0000
ENDCHAR
STARTCHAR WHITE MEDIUM SMALL SQUARE
ENCODING 9725
SWIDTH 525 0
DWIDTH 7 0
BBX 10 12 -2 -3
BITMAP
0000
0000
0000
3E00
2200
2200
2200
3E00
0000
0000
0000
0000
ENDCHAR
STARTCHAR BLACK MEDIUM SMALL SQUARE
ENCODING 9726
SWIDTH 525 0
DWIDTH 7 0
BBX 10 12 -2 -3
BITMAP
0000
0000
0000
3E00
3E00
3E00
3E00
3E00
0000
0000
0000
0000
ENDCHAR
STARTCHAR LOWER RIGHT TRIANGLE
ENCODING 9727
SWIDTH 525 0
DWIDTH 7 0
BBX 10 12 -2 -3
BITMAP
0000
0000
0000
0000
0000
0100
0300
0500
0F00
0000
0000
0000
ENDCHAR
STARTCHAR char9728
ENCODING 9728
SWIDTH 525 0
DWIDTH 7 0
BBX 10 12 -2 -3
BITMAP
0000
0000
0000
0800
0000
2A00
1C00
2A00
0000
0800
0000
0000
ENDCHAR
STARTCHAR char9729
ENCODING 9729
SWIDTH 525 0
DWIDTH 7 0
BBX 10 12 -2 -3
BITMAP
0000
0000
0000
0000
1400
1E00
3E00
0000
0000
0000
0000
0000
ENDCHAR
STARTCHAR char9730
ENCODING 9730
SWIDTH 525 0
DWIDTH 7 0
BBX 10 12 -2 -3
BITMAP
0000
0000
0000
0000
1C00
3E00
0800
0800
1000
0000
0000
0000
ENDCHAR
STARTCHAR char9732
ENCODING 9732
SWIDTH 525 0
DWIDTH 7 0
BBX 10 12 -2 -3
BITMAP
0000
0000
0000
0800
1200
0400
1100
2A00
1000
0000
0000
0000
ENDCHAR
STARTCHAR char9733
ENCODING 9733
SWIDTH 525 0
DWIDTH 7 0
BBX 10 12 -2 -3
BITMAP
0000
0000
0000
0800
0800
3E00
1C00
1C00
2200
0000
0000
0000
ENDCHAR
STARTCHAR char9734
ENCODING 9734
SWIDTH 525 0
DWIDTH 7 0
BBX 10 12 -2 -3
BITMAP
0000
0000
0000
0800
0800
3600
1400
1C00
2200
0000
0000
0000
ENDCHAR
STARTCHAR BLACK SPADE SUIT
ENCODING 9824
SWIDTH 525 0
DWIDTH 7 0
BBX 10 12 -2 -3
BITMAP
0000
0000
0800
0800
1C00
3E00
3E00
1C00
0800
1C00
0000
0000
ENDCHAR
STARTCHAR WHITE HEART SUIT
ENCODING 9825
SWIDTH 525 0
DWIDTH 7 0
BBX 10 12 -2 -3
BITMAP
0000
0000
0000
0000
1400
2A00
2200
1400
0800
0000
0000
0000
ENDCHAR
STARTCHAR WHITE DIAMOND SUIT
ENCODING 9826
SWIDTH 525 0
DWIDTH 7 0
BBX 10 12 -2 -3
BITMAP
0000
0000
0000
0800
1400
2200
2200
1400
0800
0000
0000
0000
ENDCHAR
STARTCHAR BLACK CLUB SUIT
ENCODING 9827
SWIDTH 525 0
DWIDTH 7 0
BBX 10 12 -2 -3
BITMAP
0000
0000
1C00
1C00
0800
3E00
3E00
3E00
0800
1C00
0000
0000
ENDCHAR
STARTCHAR WHITE SPADE SUIT
ENCODING 9828
SWIDTH 525 0
DWIDTH 7 0
BBX 10 12 -2 -3
BITMAP
0000
0000
0800
0800
1400
2200
2200
1C00
0800
1C00
0000
0000
ENDCHAR
STARTCHAR BLACK HEART SUIT
ENCODING 9829
SWIDTH 525 0
DWIDTH 7 0
BBX 10 12 -2 -3
BITMAP
0000
0000
0000
1B00
3F80
3F80
1F00
0E00
0400
0000
0000
0000
ENDCHAR
STARTCHAR BLACK DIAMOND SUIT
ENCODING 9830
SWIDTH 525 0
DWIDTH 7 0
BBX 10 12 -2 -3
BITMAP
0000
0000
0800
0800
1C00
1C00
3E00
1C00
1C00
0800
0800
0000
ENDCHAR
STARTCHAR WHITE CLUB SUIT
ENCODING 9831
SWIDTH 525 0
DWIDTH 7 0
BBX 10 12 -2 -3
BITMAP
0000
0000
1C00
1400
0800
3E00
2A00
3E00
0800
1C00
0000
0000
ENDCHAR
STARTCHAR char9833
ENCODING 9833
SWIDTH 525 0
DWIDTH 7 0
BBX 10 12 -2 -3
BITMAP
0000
0000
0000
0800
0800
0800
0800
1800
1800
0000
0000
0000
ENDCHAR
STARTCHAR char9834
ENCODING 9834
SWIDTH 525 0
DWIDTH 7 0
BBX 10 12 -2 -3
BITMAP
0000
0000
0000
0C00
0A00
0A00
0800
1800
1800
0000
0000
0000
ENDCHAR
STARTCHAR char9835
ENCODING 9835
SWIDTH 525 0
DWIDTH 7 0
BBX 10 12 -2 -3
BITMAP
0000
0000
0000
1F00
1100
1100
1100
3300
3300
0000
0000
0000
ENDCHAR
STARTCHAR char9836
ENCODING 9836
SWIDTH 525 0
DWIDTH 7 0
BBX 10 12 -2 -3
BITMAP
0000
0000
0000
1F00
1100
1F00
1100
3300
3300
0000
0000
0000
ENDCHAR
STARTCHAR char9837
ENCODING 9837
SWIDTH 525 0
DWIDTH 7 0
BBX 10 12 -2 -3
BITMAP
0000
0000
0000
2000
2000
2000
3800
2800
3000
0000
0000
0000
ENDCHAR
STARTCHAR MUSIC NATURAL SIGN
ENCODING 9838
SWIDTH 525 0
DWIDTH 7 0
BBX 10 12 -2 -3
BITMAP
0000
0000
0000
2000
2C00
3400
2C00
3400
0400
0000
0000
0000
ENDCHAR
STARTCHAR char9839
ENCODING 9839
SWIDTH 525 0
DWIDTH 7 0
BBX 10 12 -2 -3
BITMAP
0000
0000
0000
0400
1600
3400
1600
3400
1000
0000
0000
0000
ENDCHAR
STARTCHAR char9992
ENCODING 9992
SWIDTH 525 0
DWIDTH 7 0
BBX 10 12 -2 -3
BITMAP
0000
0000
0000
0000
1000
4800
7E00
4800
1000
0000
0000
0000
ENDCHAR
STARTCHAR char10003
ENCODING 10003
SWIDTH 525 0
DWIDTH 7 0
BBX 10 12 -2 -3
BITMAP
0000
0000
0000
0200
0400
0400
2800
2800
1000
1000
0000
0000
ENDCHAR
STARTCHAR HEAVY CHECK MARK
ENCODING 10004
SWIDTH 525 0
DWIDTH 7 0
BBX 10 12 -2 -3
BITMAP
0000
0000
0100
0200
0200
3400
1400
1400
0800
0800
0000
0000
ENDCHAR
STARTCHAR MULTIPLICATION X
ENCODING 10005
SWIDTH 525 0
DWIDTH 7 0
BBX 10 12 -2 -3
BITMAP
0000
0000
0000
0000
2200
1400
0800
1400
2200
0000
0000
0000
ENDCHAR
STARTCHAR HEAVY MULTIPLICATION X
ENCODING 10006
SWIDTH 525 0
DWIDTH 7 0
BBX 10 12 -2 -3
BITMAP
0000
0000
0000
0000
3600
1400
0800
1400
3600
0000
0000
0000
ENDCHAR
STARTCHAR BALLOT X
ENCODING 10007
SWIDTH 525 0
DWIDTH 7 0
BBX 10 12 -2 -3
BITMAP
0000
0000
0200
1200
1400
0800
1400
2400
2000
0000
0000
0000
ENDCHAR
STARTCHAR HEAVY BALLOT X
ENCODING 10008
SWIDTH 525 0
DWIDTH 7 0
BBX 10 12 -2 -3
BITMAP
0000
0000
0200
1600
1C00
0800
1C00
3400
2000
0000
0000
0000
ENDCHAR
STARTCHAR HEAVY GREEK CROSS
ENCODING 10010
SWIDTH 525 0
DWIDTH 7 0
BBX 10 12 -2 -3
BITMAP
0000
0000
0000
0C00
0C00
3F00
3F00
0C00
0C00
0000
0000
0000
ENDCHAR
STARTCHAR OPEN CENTRE CROSS
ENCODING 10011
SWIDTH 525 0
DWIDTH 7 0
BBX 10 12 -2 -3
BITMAP
0000
0000
0000
0800
0800
3600
0800
0800
0000
0000
0000
0000
ENDCHAR
STARTCHAR HEAVY OPEN CENTRE CROSS
ENCODING 10012
SWIDTH 525 0
DWIDTH 7 0
BBX 10 12 -2 -3
BITMAP
0000
0000
0000
0C00
0C00
3300
3300
0C00
0C00
0000
0000
0000
ENDCHAR
STARTCHAR LATIN CROSS
ENCODING 10013
SWIDTH 525 0
DWIDTH 7 0
BBX 10 12 -2 -3
BITMAP
0000
0000
0000
0800
0800
3E00
0800
0800
0800
0000
0000
0000
ENDCHAR
STARTCHAR SHADOWED WHITE LATIN CROSS
ENCODING 10014
SWIDTH 525 0
DWIDTH 7 0
BBX 10 12 -2 -3
BITMAP
0000
0000
0C00
0C00
3F00
3F00
0C00
0C00
0C00
0000
0000
0000
ENDCHAR
STARTCHAR CIRCLED WHITE STAR
ENCODING 10026
SWIDTH 525 0
DWIDTH 7 0
BBX 10 12 -2 -3
BITMAP
0000
0000
3E00
7700
7700
4100
6300
5D00
7F00
3E00
0000
0000
ENDCHAR
STARTCHAR OPEN CENTRE BLACK STAR
ENCODING 10027
SWIDTH 525 0
DWIDTH 7 0
BBX 10 12 -2 -3
BITMAP
0000
0000
0800
0800
3600
1C00
2200
0000
0000
0000
0000
0000
ENDCHAR
STARTCHAR EIGHT SPOKED ASTERISK
ENCODING 10035
SWIDTH 525 0
DWIDTH 7 0
BBX 10 12 -2 -3
BITMAP
0000
0000
0000
0800
2A00
1C00
3E00
1C00
2A00
0800
0000
0000
ENDCHAR
STARTCHAR SIX POINTED BLACK STAR
ENCODING 10038
SWIDTH 525 0
DWIDTH 7 0
BBX 10 12 -2 -3
BITMAP
0000
0000
0000
0800
2A00
1C00
1C00
2A00
0800
0000
0000
0000
ENDCHAR
STARTCHAR LOWER RIGHT DROP-SHADOWED WHITE SQUARE
ENCODING 10063
SWIDTH 525 0
DWIDTH 7 0
BBX 10 12 -2 -3
BITMAP
0000
0000
3E00
2300
2300
2300
3F00
1F00
0000
0000
0000
0000
ENDCHAR
STARTCHAR UPPER RIGHT DROP-SHADOWED WHITE SQUARE
ENCODING 10064
SWIDTH 525 0
DWIDTH 7 0
BBX 10 12 -2 -3
BITMAP
0000
0000
1F00
3F00
2300
2300
2300
3E00
0000
0000
0000
0000
ENDCHAR
STARTCHAR LOWER RIGHT SHADOWED WHITE SQUARE
ENCODING 10065
SWIDTH 525 0
DWIDTH 7 0
BBX 10 12 -2 -3
BITMAP
0000
0000
3E00
2300
2300
2300
3F00
1F00
0000
0000
0000
0000
ENDCHAR
STARTCHAR UPPER RIGHT SHADOWED WHITE SQUARE
ENCODING 10066
SWIDTH 525 0
DWIDTH 7 0
BBX 10 12 -2 -3
BITMAP
0000
0000
1F00
3F00
2300
2300
2300
3E00
0000
0000
0000
0000
ENDCHAR
STARTCHAR char10075
ENCODING 10075
SWIDTH 525 0
DWIDTH 7 0
BBX 10 12 -2 -3
BITMAP
0000
0000
0400
0800
0C00
0C00
0000
0000
0000
0000
0000
0000
ENDCHAR
STARTCHAR char10076
ENCODING 10076
SWIDTH 525 0
DWIDTH 7 0
BBX 10 12 -2 -3
BITMAP
0000
0000
0C00
0C00
0400
0800
0000
0000
0000
0000
0000
0000
ENDCHAR
STARTCHAR char10077
ENCODING 10077
SWIDTH 525 0
DWIDTH 7 0
BBX 10 12 -2 -3
BITMAP
0000
0000
0900
1200
1B00
1B00
0000
0000
0000
0000
0000
0000
ENDCHAR
STARTCHAR char10078
ENCODING 10078
SWIDTH 525 0
DWIDTH 7 0
BBX 10 12 -2 -3
BITMAP
0000
0000
1B00
1B00
0900
1200
0000
0000
0000
0000
0000
0000
ENDCHAR
STARTCHAR HEAVY LOW DOUBLE COMMA QUOTATION MARK ORNAMENT
ENCODING 10080
SWIDTH 525 0
DWIDTH 7 0
BBX 10 12 -2 -3
BITMAP
0000
0000
0000
0000
0000
0000
0000
3600
3600
1200
2400
0000
ENDCHAR
STARTCHAR HEAVY BLACK HEART
ENCODING 10084
SWIDTH 525 0
DWIDTH 7 0
BBX 10 12 -2 -3
BITMAP
0000
0000
0000
1B00
3F80
3F80
1F00
0E00
0400
0000
0000
0000
ENDCHAR
STARTCHAR MEDIUM LEFT-POINTING ANGLE BRACKET ORNAMENT
ENCODING 10092
SWIDTH 525 0
DWIDTH 7 0
BBX 10 12 -2 -3
BITMAP
0000
0000
0600
0C00
1800
3000
1800
0C00
0600
0000
0000
0000
ENDCHAR
STARTCHAR MEDIUM RIGHT-POINTING ANGLE BRACKET ORNAMENT
ENCODING 10093
SWIDTH 525 0
DWIDTH 7 0
BBX 10 12 -2 -3
BITMAP
0000
0000
3000
1800
0C00
0600
0C00
1800
3000
0000
0000
0000
ENDCHAR
STARTCHAR HEAVY LEFT-POINTING ANGLE QUOTATION MARK ORNAMENT
ENCODING 10094
SWIDTH 525 0
DWIDTH 7 0
BBX 10 12 -2 -3
BITMAP
0000
0000
0700
0E00
1C00
3800
3800
1C00
0E00
0700
0000
0000
ENDCHAR
STARTCHAR HEAVY RIGHT-POINTING ANGLE QUOTATION MARK ORNAMENT
ENCODING 10095
SWIDTH 525 0
DWIDTH 7 0
BBX 10 12 -2 -3
BITMAP
0000
0000
3800
1C00
0E00
0700
0700
0E00
1C00
3800
0000
0000
ENDCHAR
STARTCHAR HEAVY LEFT-POINTING ANGLE BRACKET ORNAMENT
ENCODING 10096
SWIDTH 525 0
DWIDTH 7 0
BBX 10 12 -2 -3
BITMAP
0000
0000
0F00
1E00
3C00
3800
3800
3C00
1E00
0F00
0000
0000
ENDCHAR
STARTCHAR HEAVY RIGHT-POINTING ANGLE BRACKET ORNAMENT
ENCODING 10097
SWIDTH 525 0
DWIDTH 7 0
BBX 10 12 -2 -3
BITMAP
0000
0000
3C00
1E00
0F00
0700
0700
0F00
1E00
3C00
0000
0000
ENDCHAR
STARTCHAR HEAVY RIGHT-POINTING ANGLE BRACKET ORNAMENT
ENCODING 10102
SWIDTH 525 0
DWIDTH 7 0
BBX 10 12 -2 -3
BITMAP
0000
0000
3C00
1E00
0F00
0700
0700
0F00
1E00
3C00
0000
0000
ENDCHAR
STARTCHAR DINGBAT NEGATIVE CIRCLED SANS-SERIF DIGIT ONE
ENCODING 10122
SWIDTH 525 0
DWIDTH 7 0
BBX 10 12 -2 -3
BITMAP
0000
0000
1E00
3300
3B00
3B00
3B00
3B00
3100
1E00
0000
0000
ENDCHAR
STARTCHAR DINGBAT NEGATIVE CIRCLED SANS-SERIF DIGIT TWO
ENCODING 10123
SWIDTH 525 0
DWIDTH 7 0
BBX 10 12 -2 -3
BITMAP
0000
0000
1E00
3300
2D00
3D00
3B00
3700
2100
1E00
0000
0000
ENDCHAR
STARTCHAR DINGBAT NEGATIVE CIRCLED SANS-SERIF DIGIT THREE
ENCODING 10124
SWIDTH 525 0
DWIDTH 7 0
BBX 10 12 -2 -3
BITMAP
0000
0000
1E00
2300
3D00
3300
3D00
3D00
2300
1E00
0000
0000
ENDCHAR
STARTCHAR DINGBAT NEGATIVE CIRCLED SANS-SERIF DIGIT FOUR
ENCODING 10125
SWIDTH 525 0
DWIDTH 7 0
BBX 10 12 -2 -3
BITMAP
0000
0000
1E00
3900
3500
2D00
2100
3D00
3D00
1E00
0000
0000
ENDCHAR
STARTCHAR DINGBAT NEGATIVE CIRCLED SANS-SERIF DIGIT FIVE
ENCODING 10126
SWIDTH 525 0
DWIDTH 7 0
BBX 10 12 -2 -3
BITMAP
0000
0000
1E00
2100
2F00
2300
3D00
3D00
2300
1E00
0000
0000
ENDCHAR
STARTCHAR DINGBAT NEGATIVE CIRCLED SANS-SERIF DIGIT SIX
ENCODING 10127
SWIDTH 525 0
DWIDTH 7 0
BBX 10 12 -2 -3
BITMAP
0000
0000
1E00
3300
2F00
2300
2D00
2D00
3300
1E00
0000
0000
ENDCHAR
STARTCHAR DINGBAT NEGATIVE CIRCLED SANS-SERIF DIGIT SEVEN
ENCODING 10128
SWIDTH 525 0
DWIDTH 7 0
BBX 10 12 -2 -3
BITMAP
0000
0000
1E00
2100
3D00
3B00
3B00
3700
3700
1E00
0000
0000
ENDCHAR
STARTCHAR DINGBAT NEGATIVE CIRCLED SANS-SERIF DIGIT EIGHT
ENCODING 10129
SWIDTH 525 0
DWIDTH 7 0
BBX 10 12 -2 -3
BITMAP
0000
0000
1E00
3300
2D00
3300
2D00
2D00
3300
1E00
0000
0000
ENDCHAR
STARTCHAR DINGBAT NEGATIVE CIRCLED SANS-SERIF DIGIT NINE
ENCODING 10130
SWIDTH 525 0
DWIDTH 7 0
BBX 10 12 -2 -3
BITMAP
0000
0000
1E00
3300
2D00
2D00
3100
3D00
3300
1E00
0000
0000
ENDCHAR
STARTCHAR DINGBAT NEGATIVE CIRCLED SANS-SERIF NUMBER TEN
ENCODING 10131
SWIDTH 525 0
DWIDTH 7 0
BBX 10 12 -2 -3
BITMAP
0000
0000
1F00
2D80
2A80
2A80
2A80
2A80
2D80
1F00
0000
0000
ENDCHAR
STARTCHAR HEAVY WIDE-HEADED RIGHTWARDS ARROW
ENCODING 10132
SWIDTH 525 0
DWIDTH 7 0
BBX 10 12 -2 -3
BITMAP
0000
0000
0000
0000
0800
0400
3E00
0400
0800
0000
0000
0000
ENDCHAR
STARTCHAR HEAVY PLUS SIGN
ENCODING 10133
SWIDTH 525 0
DWIDTH 7 0
BBX 10 12 -2 -3
BITMAP
0000
0000
0000
0C00
0C00
3F00
3F00
0C00
0C00
0000
0000
0000
ENDCHAR
STARTCHAR HEAVY MINUS SIGN
ENCODING 10134
SWIDTH 525 0
DWIDTH 7 0
BBX 10 12 -2 -3
BITMAP
0000
0000
0000
0000
0000
3F00
3F00
0000
0000
0000
0000
0000
ENDCHAR
STARTCHAR HEAVY DIVISION SIGN
ENCODING 10135
SWIDTH 525 0
DWIDTH 7 0
BBX 10 12 -2 -3
BITMAP
0000
0000
0000
0C00
0000
3F00
3F00
0000
0C00
0000
0000
0000
ENDCHAR
STARTCHAR HEAVY SOUTH EAST ARROW
ENCODING 10136
SWIDTH 525 0
DWIDTH 7 0
BBX 10 12 -2 -3
BITMAP
0000
0000
0000
0000
2000
1000
0A00
0600
0E00
0000
0000
0000
ENDCHAR
STARTCHAR HEAVY RIGHTWARDS ARROW
ENCODING 10137
SWIDTH 525 0
DWIDTH 7 0
BBX 10 12 -2 -3
BITMAP
0000
0000
0000
0000
0000
0400
3E00
0400
0000
0000
0000
0000
ENDCHAR
STARTCHAR HEAVY NORTH EAST ARROW
ENCODING 10138
SWIDTH 525 0
DWIDTH 7 0
BBX 10 12 -2 -3
BITMAP
0000
0000
0000
0000
0E00
0600
0A00
1000
2000
0000
0000
0000
ENDCHAR
STARTCHAR DRAFTING POINT RIGHTWARDS ARROW
ENCODING 10139
SWIDTH 525 0
DWIDTH 7 0
BBX 10 12 -2 -3
BITMAP
0000
0000
0000
0000
1000
0C00
FF00
0C00
1000
0000
0000
0000
ENDCHAR
STARTCHAR char11104
ENCODING 11104
SWIDTH 525 0
DWIDTH 7 0
BBX 10 12 -2 -3
BITMAP
0000
0000
1200
1700
1200
1200
1C00
1000
1000
1000
0000
0000
ENDCHAR
STARTCHAR char11105
ENCODING 11105
SWIDTH 525 0
DWIDTH 7 0
BBX 10 12 -2 -3
BITMAP
0000
1000
1000
1000
1E00
0000
1200
1A00
1600
1200
0000
0000
ENDCHAR
STARTCHAR char11106
ENCODING 11106
SWIDTH 525 0
DWIDTH 7 0
BBX 10 12 -2 -3
BITMAP
0000
0000
0F00
1000
1300
1300
1000
1300
1100
1800
0000
0000
ENDCHAR
STARTCHAR char11107
ENCODING 11107
SWIDTH 525 0
DWIDTH 7 0
BBX 10 12 -2 -3
BITMAP
0000
0000
3E00
0100
2600
2400
2400
2400
2400
1800
0000
0000
ENDCHAR
STARTCHAR char11108
ENCODING 11108
SWIDTH 525 0
DWIDTH 7 0
BBX 10 12 -2 -3
BITMAP
0000
0C00
1200
1200
1200
3F00
3300
3300
3F00
1E00
0000
0000
ENDCHAR
STARTCHAR char11136
ENCODING 11136
SWIDTH 525 0
DWIDTH 7 0
BBX 10 12 -2 -3
BITMAP
0000
2000
3000
3800
3C00
3E00
3C00
3800
3000
2000
0000
0000
ENDCHAR
STARTCHAR char11137
ENCODING 11137
SWIDTH 525 0
DWIDTH 7 0
BBX 10 12 -2 -3
BITMAP
0000
2000
1000
0800
0400
0200
0400
0800
1000
2000
0000
0000
ENDCHAR
STARTCHAR char11138
ENCODING 11138
SWIDTH 525 0
DWIDTH 7 0
BBX 10 12 -2 -3
BITMAP
0000
0200
0600
0E00
1E00
3E00
1E00
0E00
0600
0200
0000
0000
ENDCHAR
STARTCHAR char11139
ENCODING 11139
SWIDTH 525 0
DWIDTH 7 0
BBX 10 12 -2 -3
BITMAP
0000
0100
0200
0400
0800
1000
0800
0400
0200
0100
0000
0000
ENDCHAR
STARTCHAR bat charged
ENCODING 11150
SWIDTH 525 0
DWIDTH 7 0
BBX 10 12 -2 -3
BITMAP
0000
0000
0800
3E00
2A00
2200
3600
3600
3E00
0000
0000
0000
ENDCHAR
STARTCHAR bat full
ENCODING 11151
SWIDTH 525 0
DWIDTH 7 0
BBX 10 12 -2 -3
BITMAP
0000
0000
0800
3E00
2200
2A00
2A00
2200
3E00
0000
0000
0000
ENDCHAR
STARTCHAR bat empty
ENCODING 11152
SWIDTH 525 0
DWIDTH 7 0
BBX 10 12 -2 -3
BITMAP
0000
0000
0800
3E00
2200
2200
2200
2200
3E00
0000
0000
0000
ENDCHAR
STARTCHAR bat half empty
ENCODING 11153
SWIDTH 525 0
DWIDTH 7 0
BBX 10 12 -2 -3
BITMAP
0000
0000
0800
3E00
2200
2200
2A00
2200
3E00
0000
0000
0000
ENDCHAR
STARTCHAR bat charging
ENCODING 11154
SWIDTH 525 0
DWIDTH 7 0
BBX 10 12 -2 -3
BITMAP
0000
0000
0800
3E00
3A00
2600
3200
2E00
3E00
0000
0000
0000
ENDCHAR
STARTCHAR play
ENCODING 11155
SWIDTH 525 0
DWIDTH 7 0
BBX 10 12 -2 -3
BITMAP
0000
0000
0000
1000
1800
1C00
1C00
1800
1000
0000
0000
0000
ENDCHAR
STARTCHAR pause
ENCODING 11156
SWIDTH 525 0
DWIDTH 7 0
BBX 10 12 -2 -3
BITMAP
0000
0000
0000
3600
3600
3600
3600
3600
3600
0000
0000
0000
ENDCHAR
STARTCHAR music
ENCODING 11157
SWIDTH 525 0
DWIDTH 7 0
BBX 10 12 -2 -3
BITMAP
0000
0000
0000
1F00
1100
1100
1100
3300
3300
0000
0000
0000
ENDCHAR
STARTCHAR clock
ENCODING 11158
SWIDTH 525 0
DWIDTH 7 0
BBX 10 12 -2 -3
BITMAP
0000
0000
0000
1E00
3700
3700
3100
3F00
1E00
0000
0000
0000
ENDCHAR
STARTCHAR arch
ENCODING 11159
SWIDTH 525 0
DWIDTH 7 0
BBX 10 12 -2 -3
BITMAP
0000
0000
0800
0800
1C00
1C00
1400
3600
2200
0000
0000
0000
ENDCHAR
STARTCHAR tiled right
ENCODING 11160
SWIDTH 525 0
DWIDTH 7 0
BBX 10 12 -2 -3
BITMAP
0000
0000
0000
3B00
3B00
3B00
3800
3B00
3B00
0000
0000
0000
ENDCHAR
STARTCHAR tiled left
ENCODING 11161
SWIDTH 525 0
DWIDTH 7 0
BBX 10 12 -2 -3
BITMAP
0000
0000
0000
3700
3700
3700
0700
3700
3700
0000
0000
0000
ENDCHAR
STARTCHAR tiled bottom
ENCODING 11162
SWIDTH 525 0
DWIDTH 7 0
BBX 10 12 -2 -3
BITMAP
0000
0000
0000
3F00
3F00
3F00
0000
3B00
3B00
0000
0000
0000
ENDCHAR
STARTCHAR float
ENCODING 11163
SWIDTH 525 0
DWIDTH 7 0
BBX 10 12 -2 -3
BITMAP
0000
0000
0000
3C00
3C00
3D00
3D00
0100
0F00
0000
0000
0000
ENDCHAR
STARTCHAR headphones
ENCODING 11164
SWIDTH 525 0
DWIDTH 7 0
BBX 10 12 -2 -3
BITMAP
0000
0000
0000
1C00
2200
2200
2200
3600
1400
0000
0000
0000
ENDCHAR
STARTCHAR muted
ENCODING 11165
SWIDTH 525 0
DWIDTH 7 0
BBX 10 12 -2 -3
BITMAP
0000
0000
0000
2400
1400
2800
3400
0E00
0500
0000
0000
0000
ENDCHAR
STARTCHAR loud volume
ENCODING 11166
SWIDTH 525 0
DWIDTH 7 0
BBX 10 12 -2 -3
BITMAP
0000
0000
0000
0900
1A00
7900
7900
1A00
0900
0000
0000
0000
ENDCHAR
STARTCHAR soft volume
ENCODING 11167
SWIDTH 525 0
DWIDTH 7 0
BBX 10 12 -2 -3
BITMAP
0000
0000
0000
0400
0C00
3C00
3C00
0C00
0400
0000
0000
0000
ENDCHAR
STARTCHAR heart
ENCODING 11168
SWIDTH 525 0
DWIDTH 7 0
BBX 10 12 -2 -3
BITMAP
0000
0000
0000
0000
1200
3F00
3F00
1E00
0C00
0000
0000
0000
ENDCHAR
STARTCHAR cpu
ENCODING 11169
SWIDTH 525 0
DWIDTH 7 0
BBX 10 12 -2 -3
BITMAP
0000
0000
0000
2A00
0000
3E00
3E00
0000
2A00
0000
0000
0000
ENDCHAR
STARTCHAR pacman
ENCODING 11170
SWIDTH 525 0
DWIDTH 7 0
BBX 10 12 -2 -3
BITMAP
0000
0000
0000
0000
1C00
3600
3C00
3000
1C00
0000
0000
0000
ENDCHAR
STARTCHAR mail
ENCODING 11171
SWIDTH 525 0
DWIDTH 7 0
BBX 10 12 -2 -3
BITMAP
0000
0000
0000
0000
3E00
1C00
2A00
3600
3E00
0000
0000
0000
ENDCHAR
STARTCHAR data
ENCODING 11172
SWIDTH 525 0
DWIDTH 7 0
BBX 10 12 -2 -3
BITMAP
0000
0000
0000
3F00
2100
2100
2F00
2B00
1F00
0000
0000
0000
ENDCHAR
STARTCHAR simon
ENCODING 11173
SWIDTH 525 0
DWIDTH 7 0
BBX 10 12 -2 -3
BITMAP
0000
0000
0000
3200
5D00
3F00
3600
7E00
5D00
2600
0000
0000
ENDCHAR
STARTCHAR core
ENCODING 11174
SWIDTH 525 0
DWIDTH 7 0
BBX 10 12 -2 -3
BITMAP
0000
0000
0000
3580
2080
0E00
2E80
0E00
2080
3580
0000
0000
ENDCHAR
STARTCHAR grid
ENCODING 11175
SWIDTH 525 0
DWIDTH 7 0
BBX 10 12 -2 -3
BITMAP
0000
0000
0000
0000
3600
3600
0000
3600
3600
0000
0000
0000
ENDCHAR
STARTCHAR daze
ENCODING 11176
SWIDTH 525 0
DWIDTH 7 0
BBX 10 12 -2 -3
BITMAP
0000
0000
0000
3B00
3800
3B00
3800
3B00
3B00
0000
0000
0000
ENDCHAR
STARTCHAR term
ENCODING 11177
SWIDTH 525 0
DWIDTH 7 0
BBX 10 12 -2 -3
BITMAP
0000
0000
0000
3F00
2F00
3700
2900
3F00
3F00
0000
0000
0000
ENDCHAR
STARTCHAR lock
ENCODING 11178
SWIDTH 525 0
DWIDTH 7 0
BBX 10 12 -2 -3
BITMAP
0000
0000
0000
1C00
1400
1400
3E00
3600
3E00
1C00
0000
0000
ENDCHAR
STARTCHAR ichi
ENCODING 11179
SWIDTH 525 0
DWIDTH 7 0
BBX 10 12 -2 -3
BITMAP
0000
0000
0000
0000
0000
3C00
0000
0000
0000
0000
0000
0000
ENDCHAR
STARTCHAR ni
ENCODING 11180
SWIDTH 525 0
DWIDTH 7 0
BBX 10 12 -2 -3
BITMAP
0000
0000
0000
0000
3C00
0000
3C00
0000
0000
0000
0000
0000
ENDCHAR
STARTCHAR san
ENCODING 11181
SWIDTH 525 0
DWIDTH 7 0
BBX 10 12 -2 -3
BITMAP
0000
0000
0000
3E00
0000
1C00
0000
3E00
0000
0000
0000
0000
ENDCHAR
STARTCHAR yon
ENCODING 11182
SWIDTH 525 0
DWIDTH 7 0
BBX 10 12 -2 -3
BITMAP
0000
0000
0000
3E00
2A00
3E00
2200
3E00
0000
0000
0000
0000
ENDCHAR
STARTCHAR go
ENCODING 11183
SWIDTH 525 0
DWIDTH 7 0
BBX 10 12 -2 -3
BITMAP
0000
0000
0000
3C00
1000
1C00
1400
3E00
0000
0000
0000
0000
ENDCHAR
STARTCHAR cpu alt
ENCODING 11184
SWIDTH 525 0
DWIDTH 7 0
BBX 10 12 -2 -3
BITMAP
0000
0000
0000
1500
3F80
1900
3580
1300
3F80
1500
0000
0000
ENDCHAR
STARTCHAR squiglies
ENCODING 11185
SWIDTH 525 0
DWIDTH 7 0
BBX 10 12 -2 -3
BITMAP
0000
0000
0000
0000
0A00
1400
0000
0A00
1400
0000
0000
0000
ENDCHAR
STARTCHAR next
ENCODING 11186
SWIDTH 525 0
DWIDTH 7 0
BBX 10 12 -2 -3
BITMAP
0000
0000
0000
1100
1900
1D00
1D00
1900
1100
0000
0000
0000
ENDCHAR
STARTCHAR prev
ENCODING 11187
SWIDTH 525 0
DWIDTH 7 0
BBX 10 12 -2 -3
BITMAP
0000
0000
0000
1100
1300
1700
1700
1300
1100
0000
0000
0000
ENDCHAR
STARTCHAR up
ENCODING 11188
SWIDTH 525 0
DWIDTH 7 0
BBX 10 12 -2 -3
BITMAP
0000
0000
0400
0E00
1F00
3F80
0E00
0E00
0E00
1C00
0000
0000
ENDCHAR
STARTCHAR down
ENCODING 11189
SWIDTH 525 0
DWIDTH 7 0
BBX 10 12 -2 -3
BITMAP
0000
0000
0700
0E00
0E00
0E00
3F80
1F00
0E00
0400
0000
0000
ENDCHAR
STARTCHAR bar
ENCODING 11190
SWIDTH 525 0
DWIDTH 7 0
BBX 10 12 -2 -3
BITMAP
0000
0000
0000
0000
0000
0000
1F00
0000
0000
0000
0000
0000
ENDCHAR
STARTCHAR good net
ENCODING 11191
SWIDTH 525 0
DWIDTH 7 0
BBX 10 12 -2 -3
BITMAP
0000
0000
0000
0200
0200
0A00
0A00
2A00
2A00
0000
0000
0000
ENDCHAR
STARTCHAR okay net
ENCODING 11192
SWIDTH 525 0
DWIDTH 7 0
BBX 10 12 -2 -3
BITMAP
0000
0000
0000
0000
0000
0800
0800
2800
2A00
0000
0000
0000
ENDCHAR
STARTCHAR shit net
ENCODING 11193
SWIDTH 525 0
DWIDTH 7 0
BBX 10 12 -2 -3
BITMAP
0000
0000
0000
0000
0000
0000
0000
2000
2A00
0000
0000
0000
ENDCHAR
STARTCHAR temp
ENCODING 11194
SWIDTH 525 0
DWIDTH 7 0
BBX 10 12 -2 -3
BITMAP
0000
0000
0400
0180
1380
0500
1A00
2400
2400
1800
0000
0000
ENDCHAR
STARTCHAR pen
ENCODING 11195
SWIDTH 525 0
DWIDTH 7 0
BBX 10 12 -2 -3
BITMAP
0000
0000
0000
0180
0780
0F00
0F00
1E00
2800
3000
0000
0000
ENDCHAR
STARTCHAR globe
ENCODING 11196
SWIDTH 525 0
DWIDTH 7 0
BBX 10 12 -2 -3
BITMAP
0000
0000
0000
1E00
2B00
3900
2B00
3100
1E00
0000
0000
0000
ENDCHAR
STARTCHAR some weird ass dwm layout
ENCODING 11197
SWIDTH 525 0
DWIDTH 7 0
BBX 10 12 -2 -3
BITMAP
0000
0000
0000
0000
2D00
0C00
2D00
0C00
2D00
0000
0000
0000
ENDCHAR
STARTCHAR w_cloud
ENCODING 11198
SWIDTH 525 0
DWIDTH 7 0
BBX 10 12 -2 -3
BITMAP
0000
0000
0000
0E00
1F00
3F80
3F80
1B00
0000
0000
0000
0000
ENDCHAR
STARTCHAR w_lightning
ENCODING 11199
SWIDTH 525 0
DWIDTH 7 0
BBX 10 12 -2 -3
BITMAP
0000
0000
0000
0E00
1F00
3F80
3F80
1B00
0400
0C00
0800
0000
ENDCHAR
STARTCHAR w_rain
ENCODING 11200
SWIDTH 525 0
DWIDTH 7 0
BBX 10 12 -2 -3
BITMAP
0000
0000
0000
0E00
1F00
3F80
3F80
1B00
0000
1500
2A00
0000
ENDCHAR
STARTCHAR w_snow
ENCODING 11201
SWIDTH 525 0
DWIDTH 7 0
BBX 10 12 -2 -3
BITMAP
0000
0000
0000
0E00
1F00
3F80
3F80
1B00
0000
2400
0A00
0480
ENDCHAR
STARTCHAR w_hail
ENCODING 11202
SWIDTH 525 0
DWIDTH 7 0
BBX 10 12 -2 -3
BITMAP
0000
0000
0000
0E00
1F00
3F80
3F80
1B00
0400
1100
0400
1100
ENDCHAR
STARTCHAR w_morerainidunno
ENCODING 11203
SWIDTH 525 0
DWIDTH 7 0
BBX 10 12 -2 -3
BITMAP
0000
0000
0000
0E00
1F00
3F80
3F80
1B00
0000
1100
0400
0000
ENDCHAR
STARTCHAR w_partly
ENCODING 11204
SWIDTH 525 0
DWIDTH 7 0
BBX 10 12 -2 -3
BITMAP
0000
0280
0B00
1CC0
3880
3CC0
3F00
1680
0000
0000
0000
0000
ENDCHAR
STARTCHAR w_partlymoon
ENCODING 11205
SWIDTH 525 0
DWIDTH 7 0
BBX 10 12 -2 -3
BITMAP
0200
0400
0400
1640
3B80
3C00
3F00
1600
0000
0000
0000
0000
ENDCHAR
STARTCHAR w_moon
ENCODING 11206
SWIDTH 525 0
DWIDTH 7 0
BBX 10 12 -2 -3
BITMAP
0000
0000
0000
0000
1000
2000
2000
3200
1C00
0000
0000
0000
ENDCHAR
STARTCHAR w_sun
ENCODING 11207
SWIDTH 525 0
DWIDTH 7 0
BBX 10 12 -2 -3
BITMAP
0000
0000
2480
1F00
1100
3180
1100
1F00
2480
0000
0000
0000
ENDCHAR
STARTCHAR w_wind
ENCODING 11208
SWIDTH 525 0
DWIDTH 7 0
BBX 10 12 -2 -3
BITMAP
0000
0000
0000
0600
3E00
00C0
3FC0
0000
3F00
0300
0000
0000
ENDCHAR
STARTCHAR char38521
ENCODING 38521
SWIDTH 525 0
DWIDTH 7 0
BBX 10 12 -2 -3
BITMAP
0000
0000
0000
0000
0000
0600
0F00
0F00
0600
0000
0000
0000
ENDCHAR
STARTCHAR FULLWIDTH TILDE
ENCODING 65374
SWIDTH 525 0
DWIDTH 7 0
BBX 10 12 -2 -3
BITMAP
0000
0000
0000
0000
7080
8F00
0000
0000
0000
0000
0000
0000
ENDCHAR
STARTCHAR HALFWIDTH LEFT CORNER BRACKET
ENCODING 65378
SWIDTH 525 0
DWIDTH 7 0
BBX 10 12 -2 -3
BITMAP
0000
0000
3800
2000
2000
2000
2000
2000
0000
0000
0000
0000
ENDCHAR
STARTCHAR HALFWIDTH RIGHT CORNER BRACKET
ENCODING 65379
SWIDTH 525 0
DWIDTH 7 0
BBX 10 12 -2 -3
BITMAP
0000
0000
0000
0000
0400
0400
0400
0400
0400
1C00
0000
0000
ENDCHAR
ENDFONT
